<svg width="360" height="300" viewBox="0 0 360 300" fill="none" xmlns="http://www.w3.org/2000/svg">
<path d="M0 0H360V300H0V0Z" fill="white"/>
<rect x="30" y="182" width="300" height="2" fill="#1F87FC"/>
<path d="M58.8774 262.39H62.6201V267.583C62.0586 267.773 61.48 267.915 60.8843 268.007C60.2935 268.1 59.6318 268.146 58.8994 268.146C57.7861 268.146 56.8462 267.924 56.0796 267.48C55.3179 267.036 54.7393 266.403 54.3438 265.583C53.9482 264.758 53.7505 263.779 53.7505 262.646C53.7505 261.538 53.9678 260.571 54.4023 259.746C54.8418 258.92 55.4741 258.281 56.2993 257.827C57.1294 257.368 58.1255 257.138 59.2876 257.138C59.8833 257.138 60.4473 257.194 60.9795 257.307C61.5166 257.414 62.0146 257.568 62.4736 257.768L61.9976 258.852C61.6021 258.681 61.165 258.535 60.6865 258.413C60.2129 258.291 59.7222 258.229 59.2144 258.229C58.3403 258.229 57.5908 258.41 56.9658 258.771C56.3457 259.133 55.8696 259.643 55.5376 260.302C55.2104 260.961 55.0469 261.743 55.0469 262.646C55.0469 263.54 55.1909 264.318 55.479 264.982C55.7671 265.642 56.2163 266.154 56.8267 266.521C57.437 266.887 58.2231 267.07 59.1851 267.07C59.6685 267.07 60.0835 267.043 60.4302 266.989C60.7769 266.931 61.0918 266.862 61.375 266.784V263.503H58.8774V262.39ZM68.1206 259.826C68.8042 259.826 69.3901 259.978 69.8784 260.28C70.3667 260.583 70.7402 261.008 70.999 261.555C71.2578 262.097 71.3872 262.731 71.3872 263.459V264.213H65.8428C65.8574 265.156 66.0918 265.874 66.5459 266.367C67 266.86 67.6396 267.106 68.4648 267.106C68.9727 267.106 69.4219 267.06 69.8125 266.967C70.2031 266.875 70.6084 266.738 71.0283 266.557V267.626C70.623 267.807 70.2202 267.939 69.8198 268.022C69.4243 268.105 68.9556 268.146 68.4136 268.146C67.6421 268.146 66.9683 267.99 66.3921 267.678C65.8208 267.36 65.3765 266.896 65.0591 266.286C64.7417 265.676 64.583 264.929 64.583 264.045C64.583 263.181 64.7271 262.434 65.0151 261.804C65.3081 261.169 65.7183 260.681 66.2456 260.339C66.7778 259.997 67.4028 259.826 68.1206 259.826ZM68.106 260.822C67.4565 260.822 66.939 261.035 66.5532 261.459C66.1675 261.884 65.938 262.478 65.8647 263.239H70.1128C70.1079 262.761 70.0322 262.341 69.8857 261.979C69.7441 261.613 69.5269 261.33 69.2339 261.13C68.9409 260.925 68.5649 260.822 68.106 260.822ZM76.0454 267.15C76.2456 267.15 76.4507 267.133 76.6606 267.099C76.8706 267.065 77.0415 267.023 77.1733 266.975V267.919C77.0317 267.983 76.834 268.037 76.5801 268.081C76.3311 268.125 76.0869 268.146 75.8477 268.146C75.4229 268.146 75.0371 268.073 74.6904 267.927C74.3438 267.775 74.0654 267.521 73.8555 267.165C73.6504 266.809 73.5479 266.315 73.5479 265.686V260.925H72.4053V260.332L73.5552 259.855L74.0386 258.112H74.771V259.973H77.1221V260.925H74.771V265.649C74.771 266.152 74.8857 266.528 75.1152 266.777C75.3496 267.026 75.6597 267.15 76.0454 267.15ZM86.4971 259.826C87.4492 259.826 88.1694 260.061 88.6577 260.529C89.146 260.993 89.3901 261.74 89.3901 262.771V268H88.189V262.851C88.189 262.182 88.0352 261.682 87.7275 261.35C87.4248 261.018 86.9585 260.852 86.3286 260.852C85.4399 260.852 84.8149 261.103 84.4536 261.606C84.0923 262.109 83.9116 262.839 83.9116 263.796V268H82.6958V259.973H83.6772L83.8604 261.13H83.9263C84.0972 260.847 84.3145 260.61 84.5781 260.419C84.8418 260.224 85.1372 260.078 85.4644 259.98C85.7915 259.877 86.1357 259.826 86.4971 259.826ZM98.8164 263.972C98.8164 264.631 98.731 265.219 98.5601 265.737C98.3892 266.254 98.1426 266.691 97.8203 267.048C97.498 267.404 97.1074 267.678 96.6484 267.868C96.1943 268.054 95.6792 268.146 95.103 268.146C94.5659 268.146 94.0728 268.054 93.6235 267.868C93.1792 267.678 92.7935 267.404 92.4663 267.048C92.144 266.691 91.8926 266.254 91.7119 265.737C91.5361 265.219 91.4482 264.631 91.4482 263.972C91.4482 263.093 91.5972 262.346 91.895 261.73C92.1929 261.11 92.6177 260.639 93.1694 260.317C93.7261 259.99 94.3877 259.826 95.1543 259.826C95.8867 259.826 96.5264 259.99 97.0732 260.317C97.625 260.644 98.0522 261.118 98.355 261.738C98.6626 262.353 98.8164 263.098 98.8164 263.972ZM92.708 263.972C92.708 264.616 92.7935 265.175 92.9644 265.649C93.1353 266.123 93.3989 266.489 93.7554 266.748C94.1118 267.006 94.5708 267.136 95.1323 267.136C95.689 267.136 96.1455 267.006 96.502 266.748C96.8633 266.489 97.1294 266.123 97.3003 265.649C97.4712 265.175 97.5566 264.616 97.5566 263.972C97.5566 263.332 97.4712 262.78 97.3003 262.316C97.1294 261.848 96.8657 261.486 96.5093 261.232C96.1528 260.979 95.6914 260.852 95.125 260.852C94.29 260.852 93.6772 261.127 93.2866 261.679C92.9009 262.231 92.708 262.995 92.708 263.972ZM103.511 267.15C103.711 267.15 103.917 267.133 104.126 267.099C104.336 267.065 104.507 267.023 104.639 266.975V267.919C104.498 267.983 104.3 268.037 104.046 268.081C103.797 268.125 103.553 268.146 103.313 268.146C102.889 268.146 102.503 268.073 102.156 267.927C101.81 267.775 101.531 267.521 101.321 267.165C101.116 266.809 101.014 266.315 101.014 265.686V260.925H99.8711V260.332L101.021 259.855L101.504 258.112H102.237V259.973H104.588V260.925H102.237V265.649C102.237 266.152 102.352 266.528 102.581 266.777C102.815 267.026 103.125 267.15 103.511 267.15ZM107.481 259.973V268H106.265V259.973H107.481ZM106.888 256.97C107.088 256.97 107.259 257.036 107.4 257.167C107.547 257.294 107.62 257.495 107.62 257.768C107.62 258.037 107.547 258.237 107.4 258.369C107.259 258.5 107.088 258.566 106.888 258.566C106.678 258.566 106.502 258.5 106.36 258.369C106.224 258.237 106.155 258.037 106.155 257.768C106.155 257.495 106.224 257.294 106.36 257.167C106.502 257.036 106.678 256.97 106.888 256.97ZM113.633 260.925H111.634V268H110.418V260.925H108.997V260.339L110.418 259.936V259.401C110.418 258.728 110.518 258.181 110.718 257.761C110.918 257.336 111.209 257.023 111.59 256.823C111.971 256.623 112.435 256.523 112.981 256.523C113.289 256.523 113.57 256.55 113.824 256.604C114.083 256.657 114.31 256.718 114.505 256.787L114.19 257.746C114.024 257.692 113.836 257.644 113.626 257.6C113.421 257.551 113.211 257.526 112.996 257.526C112.532 257.526 112.188 257.678 111.963 257.98C111.744 258.278 111.634 258.747 111.634 259.387V259.973H113.633V260.925ZM116.321 259.973V268H115.105V259.973H116.321ZM115.728 256.97C115.928 256.97 116.099 257.036 116.241 257.167C116.387 257.294 116.46 257.495 116.46 257.768C116.46 258.037 116.387 258.237 116.241 258.369C116.099 258.5 115.928 258.566 115.728 258.566C115.518 258.566 115.342 258.5 115.201 258.369C115.064 258.237 114.996 258.037 114.996 257.768C114.996 257.495 115.064 257.294 115.201 257.167C115.342 257.036 115.518 256.97 115.728 256.97ZM121.983 259.826C122.667 259.826 123.252 259.978 123.741 260.28C124.229 260.583 124.603 261.008 124.861 261.555C125.12 262.097 125.25 262.731 125.25 263.459V264.213H119.705C119.72 265.156 119.954 265.874 120.408 266.367C120.862 266.86 121.502 267.106 122.327 267.106C122.835 267.106 123.284 267.06 123.675 266.967C124.065 266.875 124.471 266.738 124.891 266.557V267.626C124.485 267.807 124.083 267.939 123.682 268.022C123.287 268.105 122.818 268.146 122.276 268.146C121.504 268.146 120.831 267.99 120.254 267.678C119.683 267.36 119.239 266.896 118.921 266.286C118.604 265.676 118.445 264.929 118.445 264.045C118.445 263.181 118.589 262.434 118.877 261.804C119.17 261.169 119.581 260.681 120.108 260.339C120.64 259.997 121.265 259.826 121.983 259.826ZM121.968 260.822C121.319 260.822 120.801 261.035 120.416 261.459C120.03 261.884 119.8 262.478 119.727 263.239H123.975C123.97 262.761 123.895 262.341 123.748 261.979C123.606 261.613 123.389 261.33 123.096 261.13C122.803 260.925 122.427 260.822 121.968 260.822ZM130.171 268.146C129.156 268.146 128.35 267.8 127.754 267.106C127.164 266.413 126.868 265.383 126.868 264.016C126.868 262.634 127.171 261.591 127.776 260.888C128.382 260.18 129.188 259.826 130.193 259.826C130.618 259.826 130.989 259.882 131.307 259.995C131.624 260.107 131.897 260.258 132.127 260.449C132.356 260.634 132.549 260.847 132.706 261.086H132.793C132.774 260.935 132.754 260.727 132.735 260.463C132.715 260.2 132.706 259.985 132.706 259.819V256.604H133.921V268H132.94L132.757 266.857H132.706C132.554 267.097 132.361 267.314 132.127 267.509C131.897 267.705 131.622 267.861 131.299 267.978C130.982 268.09 130.606 268.146 130.171 268.146ZM130.362 267.136C131.221 267.136 131.829 266.892 132.186 266.403C132.542 265.915 132.72 265.19 132.72 264.228V264.008C132.72 262.988 132.549 262.204 132.208 261.657C131.871 261.11 131.255 260.837 130.362 260.837C129.615 260.837 129.056 261.125 128.685 261.701C128.313 262.272 128.128 263.054 128.128 264.045C128.128 265.031 128.311 265.793 128.677 266.33C129.048 266.867 129.61 267.136 130.362 267.136ZM143.399 259.841C144.356 259.841 145.066 260.056 145.53 260.485C145.994 260.915 146.226 261.601 146.226 262.543V268H145.34L145.105 266.813H145.047C144.822 267.106 144.588 267.353 144.344 267.553C144.1 267.749 143.816 267.897 143.494 268C143.177 268.098 142.786 268.146 142.322 268.146C141.834 268.146 141.399 268.061 141.019 267.89C140.643 267.719 140.345 267.46 140.125 267.114C139.91 266.767 139.803 266.328 139.803 265.795C139.803 264.995 140.12 264.379 140.755 263.95C141.39 263.52 142.356 263.286 143.655 263.247L145.04 263.188V262.697C145.04 262.004 144.891 261.518 144.593 261.24C144.295 260.961 143.875 260.822 143.333 260.822C142.913 260.822 142.513 260.883 142.132 261.005C141.751 261.127 141.39 261.271 141.048 261.438L140.674 260.515C141.036 260.329 141.451 260.17 141.919 260.039C142.388 259.907 142.881 259.841 143.399 259.841ZM145.025 264.045L143.802 264.096C142.801 264.135 142.095 264.299 141.685 264.587C141.275 264.875 141.07 265.283 141.07 265.81C141.07 266.269 141.209 266.608 141.487 266.828C141.766 267.048 142.134 267.158 142.593 267.158C143.306 267.158 143.89 266.96 144.344 266.564C144.798 266.169 145.025 265.576 145.025 264.785V264.045ZM149.947 256.604V259.453C149.947 259.78 149.937 260.097 149.917 260.405C149.903 260.712 149.891 260.952 149.881 261.123H149.947C150.167 260.761 150.484 260.456 150.899 260.207C151.314 259.958 151.844 259.833 152.488 259.833C153.494 259.833 154.295 260.183 154.891 260.881C155.491 261.574 155.792 262.607 155.792 263.979C155.792 264.882 155.655 265.644 155.381 266.264C155.108 266.884 154.722 267.353 154.224 267.67C153.726 267.988 153.138 268.146 152.459 268.146C151.824 268.146 151.302 268.029 150.892 267.795C150.486 267.556 150.174 267.265 149.954 266.923H149.859L149.61 268H148.731V256.604H149.947ZM152.291 260.852C151.709 260.852 151.248 260.966 150.906 261.196C150.564 261.42 150.318 261.762 150.167 262.221C150.02 262.675 149.947 263.251 149.947 263.95V264.016C149.947 265.026 150.115 265.8 150.452 266.337C150.789 266.87 151.402 267.136 152.291 267.136C153.038 267.136 153.597 266.862 153.968 266.315C154.344 265.769 154.532 264.987 154.532 263.972C154.532 262.937 154.346 262.158 153.975 261.635C153.609 261.113 153.047 260.852 152.291 260.852ZM164.837 263.972C164.837 264.631 164.751 265.219 164.581 265.737C164.41 266.254 164.163 266.691 163.841 267.048C163.519 267.404 163.128 267.678 162.669 267.868C162.215 268.054 161.7 268.146 161.124 268.146C160.586 268.146 160.093 268.054 159.644 267.868C159.2 267.678 158.814 267.404 158.487 267.048C158.165 266.691 157.913 266.254 157.732 265.737C157.557 265.219 157.469 264.631 157.469 263.972C157.469 263.093 157.618 262.346 157.916 261.73C158.213 261.11 158.638 260.639 159.19 260.317C159.747 259.99 160.408 259.826 161.175 259.826C161.907 259.826 162.547 259.99 163.094 260.317C163.646 260.644 164.073 261.118 164.375 261.738C164.683 262.353 164.837 263.098 164.837 263.972ZM158.729 263.972C158.729 264.616 158.814 265.175 158.985 265.649C159.156 266.123 159.419 266.489 159.776 266.748C160.132 267.006 160.591 267.136 161.153 267.136C161.709 267.136 162.166 267.006 162.522 266.748C162.884 266.489 163.15 266.123 163.321 265.649C163.492 265.175 163.577 264.616 163.577 263.972C163.577 263.332 163.492 262.78 163.321 262.316C163.15 261.848 162.886 261.486 162.53 261.232C162.173 260.979 161.712 260.852 161.146 260.852C160.311 260.852 159.698 261.127 159.307 261.679C158.921 262.231 158.729 262.995 158.729 263.972ZM173.567 259.973V268H172.571L172.396 266.872H172.33C172.164 267.15 171.949 267.385 171.685 267.575C171.421 267.766 171.124 267.907 170.792 268C170.464 268.098 170.115 268.146 169.744 268.146C169.109 268.146 168.577 268.044 168.147 267.839C167.718 267.634 167.393 267.316 167.173 266.887C166.958 266.457 166.851 265.905 166.851 265.231V259.973H168.082V265.144C168.082 265.812 168.233 266.313 168.536 266.645C168.838 266.972 169.3 267.136 169.92 267.136C170.516 267.136 170.989 267.023 171.341 266.799C171.697 266.574 171.954 266.245 172.11 265.81C172.266 265.371 172.344 264.833 172.344 264.199V259.973H173.567ZM178.731 267.15C178.931 267.15 179.136 267.133 179.346 267.099C179.556 267.065 179.727 267.023 179.859 266.975V267.919C179.717 267.983 179.52 268.037 179.266 268.081C179.017 268.125 178.772 268.146 178.533 268.146C178.108 268.146 177.723 268.073 177.376 267.927C177.029 267.775 176.751 267.521 176.541 267.165C176.336 266.809 176.233 266.315 176.233 265.686V260.925H175.091V260.332L176.241 259.855L176.724 258.112H177.457V259.973H179.808V260.925H177.457V265.649C177.457 266.152 177.571 266.528 177.801 266.777C178.035 267.026 178.345 267.15 178.731 267.15ZM188.472 259.826C189.156 259.826 189.742 259.978 190.23 260.28C190.718 260.583 191.092 261.008 191.351 261.555C191.609 262.097 191.739 262.731 191.739 263.459V264.213H186.194C186.209 265.156 186.443 265.874 186.897 266.367C187.352 266.86 187.991 267.106 188.816 267.106C189.324 267.106 189.773 267.06 190.164 266.967C190.555 266.875 190.96 266.738 191.38 266.557V267.626C190.975 267.807 190.572 267.939 190.171 268.022C189.776 268.105 189.307 268.146 188.765 268.146C187.994 268.146 187.32 267.99 186.744 267.678C186.172 267.36 185.728 266.896 185.411 266.286C185.093 265.676 184.935 264.929 184.935 264.045C184.935 263.181 185.079 262.434 185.367 261.804C185.66 261.169 186.07 260.681 186.597 260.339C187.129 259.997 187.754 259.826 188.472 259.826ZM188.458 260.822C187.808 260.822 187.291 261.035 186.905 261.459C186.519 261.884 186.29 262.478 186.216 263.239H190.464C190.459 262.761 190.384 262.341 190.237 261.979C190.096 261.613 189.878 261.33 189.585 261.13C189.292 260.925 188.917 260.822 188.458 260.822ZM195.569 268L192.522 259.973H193.826L195.591 264.829C195.713 265.161 195.838 265.527 195.965 265.927C196.092 266.328 196.18 266.65 196.229 266.894H196.28C196.338 266.65 196.436 266.328 196.573 265.927C196.709 265.522 196.834 265.156 196.946 264.829L198.711 259.973H200.015L196.961 268H195.569ZM204.395 259.826C205.079 259.826 205.665 259.978 206.153 260.28C206.641 260.583 207.015 261.008 207.273 261.555C207.532 262.097 207.662 262.731 207.662 263.459V264.213H202.117C202.132 265.156 202.366 265.874 202.82 266.367C203.274 266.86 203.914 267.106 204.739 267.106C205.247 267.106 205.696 267.06 206.087 266.967C206.478 266.875 206.883 266.738 207.303 266.557V267.626C206.897 267.807 206.495 267.939 206.094 268.022C205.699 268.105 205.23 268.146 204.688 268.146C203.917 268.146 203.243 267.99 202.667 267.678C202.095 267.36 201.651 266.896 201.333 266.286C201.016 265.676 200.857 264.929 200.857 264.045C200.857 263.181 201.001 262.434 201.29 261.804C201.583 261.169 201.993 260.681 202.52 260.339C203.052 259.997 203.677 259.826 204.395 259.826ZM204.38 260.822C203.731 260.822 203.213 261.035 202.828 261.459C202.442 261.884 202.212 262.478 202.139 263.239H206.387C206.382 262.761 206.307 262.341 206.16 261.979C206.019 261.613 205.801 261.33 205.508 261.13C205.215 260.925 204.839 260.822 204.38 260.822ZM213.528 259.826C214.48 259.826 215.201 260.061 215.689 260.529C216.177 260.993 216.421 261.74 216.421 262.771V268H215.22V262.851C215.22 262.182 215.066 261.682 214.759 261.35C214.456 261.018 213.99 260.852 213.36 260.852C212.471 260.852 211.846 261.103 211.485 261.606C211.124 262.109 210.943 262.839 210.943 263.796V268H209.727V259.973H210.708L210.892 261.13H210.958C211.128 260.847 211.346 260.61 211.609 260.419C211.873 260.224 212.168 260.078 212.496 259.98C212.823 259.877 213.167 259.826 213.528 259.826ZM221.519 267.15C221.719 267.15 221.924 267.133 222.134 267.099C222.344 267.065 222.515 267.023 222.647 266.975V267.919C222.505 267.983 222.308 268.037 222.054 268.081C221.805 268.125 221.561 268.146 221.321 268.146C220.896 268.146 220.511 268.073 220.164 267.927C219.817 267.775 219.539 267.521 219.329 267.165C219.124 266.809 219.021 266.315 219.021 265.686V260.925H217.879V260.332L219.029 259.855L219.512 258.112H220.245V259.973H222.596V260.925H220.245V265.649C220.245 266.152 220.359 266.528 220.589 266.777C220.823 267.026 221.133 267.15 221.519 267.15ZM229.466 265.803C229.466 266.315 229.336 266.748 229.078 267.099C228.824 267.446 228.458 267.707 227.979 267.883C227.505 268.059 226.939 268.146 226.28 268.146C225.718 268.146 225.232 268.103 224.822 268.015C224.412 267.927 224.053 267.802 223.746 267.641V266.521C224.073 266.682 224.463 266.828 224.917 266.96C225.372 267.092 225.835 267.158 226.309 267.158C227.002 267.158 227.505 267.045 227.818 266.821C228.13 266.596 228.287 266.291 228.287 265.905C228.287 265.686 228.223 265.493 228.096 265.327C227.974 265.156 227.767 264.992 227.474 264.836C227.181 264.675 226.775 264.499 226.258 264.309C225.745 264.113 225.301 263.92 224.925 263.73C224.554 263.535 224.266 263.298 224.061 263.02C223.86 262.741 223.76 262.38 223.76 261.936C223.76 261.257 224.034 260.737 224.581 260.375C225.132 260.009 225.855 259.826 226.749 259.826C227.232 259.826 227.684 259.875 228.104 259.973C228.528 260.065 228.924 260.192 229.29 260.354L228.88 261.328C228.548 261.186 228.194 261.066 227.818 260.969C227.442 260.871 227.059 260.822 226.668 260.822C226.106 260.822 225.674 260.915 225.372 261.101C225.074 261.286 224.925 261.54 224.925 261.862C224.925 262.111 224.993 262.316 225.13 262.478C225.271 262.639 225.496 262.79 225.804 262.932C226.111 263.073 226.517 263.239 227.02 263.43C227.522 263.615 227.957 263.808 228.323 264.008C228.689 264.204 228.97 264.443 229.166 264.726C229.366 265.004 229.466 265.363 229.466 265.803ZM232.813 266.257L232.908 266.425C232.82 266.782 232.708 267.163 232.571 267.568C232.439 267.973 232.293 268.378 232.132 268.784C231.976 269.194 231.817 269.577 231.656 269.934H230.748C230.85 269.543 230.95 269.13 231.048 268.696C231.146 268.266 231.233 267.841 231.312 267.421C231.395 266.997 231.46 266.608 231.509 266.257H232.813ZM247.916 259.826C248.799 259.826 249.466 260.058 249.915 260.522C250.364 260.981 250.589 261.721 250.589 262.741V268H249.388V262.8C249.388 262.15 249.246 261.665 248.963 261.342C248.685 261.015 248.27 260.852 247.718 260.852C246.941 260.852 246.377 261.076 246.026 261.525C245.674 261.975 245.499 262.636 245.499 263.51V268H244.29V262.8C244.29 262.365 244.227 262.004 244.1 261.716C243.978 261.428 243.792 261.213 243.543 261.071C243.299 260.925 242.989 260.852 242.613 260.852C242.081 260.852 241.653 260.961 241.331 261.181C241.009 261.401 240.774 261.728 240.628 262.163C240.486 262.592 240.416 263.122 240.416 263.752V268H239.2V259.973H240.181L240.364 261.108H240.43C240.591 260.83 240.794 260.595 241.038 260.405C241.282 260.214 241.556 260.07 241.858 259.973C242.161 259.875 242.483 259.826 242.825 259.826C243.436 259.826 243.946 259.941 244.356 260.17C244.771 260.395 245.071 260.739 245.257 261.203H245.323C245.586 260.739 245.948 260.395 246.407 260.17C246.866 259.941 247.369 259.826 247.916 259.826ZM256.177 259.826C256.861 259.826 257.447 259.978 257.935 260.28C258.423 260.583 258.797 261.008 259.056 261.555C259.314 262.097 259.444 262.731 259.444 263.459V264.213H253.899C253.914 265.156 254.148 265.874 254.603 266.367C255.057 266.86 255.696 267.106 256.521 267.106C257.029 267.106 257.479 267.06 257.869 266.967C258.26 266.875 258.665 266.738 259.085 266.557V267.626C258.68 267.807 258.277 267.939 257.876 268.022C257.481 268.105 257.012 268.146 256.47 268.146C255.699 268.146 255.025 267.99 254.449 267.678C253.877 267.36 253.433 266.896 253.116 266.286C252.798 265.676 252.64 264.929 252.64 264.045C252.64 263.181 252.784 262.434 253.072 261.804C253.365 261.169 253.775 260.681 254.302 260.339C254.834 259.997 255.459 259.826 256.177 259.826ZM256.163 260.822C255.513 260.822 254.996 261.035 254.61 261.459C254.224 261.884 253.995 262.478 253.921 263.239H258.169C258.165 262.761 258.089 262.341 257.942 261.979C257.801 261.613 257.583 261.33 257.291 261.13C256.998 260.925 256.622 260.822 256.163 260.822ZM264.6 259.826C265.284 259.826 265.87 259.978 266.358 260.28C266.846 260.583 267.22 261.008 267.479 261.555C267.737 262.097 267.867 262.731 267.867 263.459V264.213H262.322C262.337 265.156 262.571 265.874 263.025 266.367C263.479 266.86 264.119 267.106 264.944 267.106C265.452 267.106 265.901 267.06 266.292 266.967C266.683 266.875 267.088 266.738 267.508 266.557V267.626C267.103 267.807 266.7 267.939 266.299 268.022C265.904 268.105 265.435 268.146 264.893 268.146C264.122 268.146 263.448 267.99 262.872 267.678C262.3 267.36 261.856 266.896 261.539 266.286C261.221 265.676 261.062 264.929 261.062 264.045C261.062 263.181 261.207 262.434 261.495 261.804C261.788 261.169 262.198 260.681 262.725 260.339C263.257 259.997 263.882 259.826 264.6 259.826ZM264.585 260.822C263.936 260.822 263.418 261.035 263.033 261.459C262.647 261.884 262.417 262.478 262.344 263.239H266.592C266.587 262.761 266.512 262.341 266.365 261.979C266.224 261.613 266.006 261.33 265.713 261.13C265.42 260.925 265.044 260.822 264.585 260.822ZM272.525 267.15C272.725 267.15 272.93 267.133 273.14 267.099C273.35 267.065 273.521 267.023 273.653 266.975V267.919C273.511 267.983 273.313 268.037 273.06 268.081C272.811 268.125 272.566 268.146 272.327 268.146C271.902 268.146 271.517 268.073 271.17 267.927C270.823 267.775 270.545 267.521 270.335 267.165C270.13 266.809 270.027 266.315 270.027 265.686V260.925H268.885V260.332L270.035 259.855L270.518 258.112H271.25V259.973H273.602V260.925H271.25V265.649C271.25 266.152 271.365 266.528 271.595 266.777C271.829 267.026 272.139 267.15 272.525 267.15ZM276.495 259.973V268H275.279V259.973H276.495ZM275.901 256.97C276.102 256.97 276.272 257.036 276.414 257.167C276.561 257.294 276.634 257.495 276.634 257.768C276.634 258.037 276.561 258.237 276.414 258.369C276.272 258.5 276.102 258.566 275.901 258.566C275.691 258.566 275.516 258.5 275.374 258.369C275.237 258.237 275.169 258.037 275.169 257.768C275.169 257.495 275.237 257.294 275.374 257.167C275.516 257.036 275.691 256.97 275.901 256.97ZM282.874 259.826C283.826 259.826 284.546 260.061 285.035 260.529C285.523 260.993 285.767 261.74 285.767 262.771V268H284.566V262.851C284.566 262.182 284.412 261.682 284.104 261.35C283.802 261.018 283.335 260.852 282.706 260.852C281.817 260.852 281.192 261.103 280.831 261.606C280.469 262.109 280.289 262.839 280.289 263.796V268H279.073V259.973H280.054L280.237 261.13H280.303C280.474 260.847 280.691 260.61 280.955 260.419C281.219 260.224 281.514 260.078 281.841 259.98C282.168 259.877 282.513 259.826 282.874 259.826ZM290.513 271.604C289.458 271.604 288.646 271.406 288.074 271.01C287.503 270.62 287.217 270.07 287.217 269.362C287.217 268.859 287.376 268.43 287.693 268.073C288.016 267.717 288.46 267.48 289.026 267.363C288.816 267.265 288.636 267.119 288.484 266.923C288.338 266.728 288.265 266.503 288.265 266.25C288.265 265.957 288.345 265.7 288.506 265.48C288.672 265.256 288.924 265.041 289.261 264.836C288.841 264.665 288.499 264.377 288.235 263.972C287.977 263.562 287.847 263.085 287.847 262.543C287.847 261.967 287.967 261.477 288.206 261.071C288.445 260.661 288.792 260.349 289.246 260.134C289.7 259.919 290.25 259.812 290.894 259.812C291.036 259.812 291.177 259.819 291.319 259.833C291.465 259.843 291.604 259.86 291.736 259.885C291.868 259.904 291.983 259.929 292.081 259.958H294.834V260.742L293.355 260.925C293.501 261.115 293.624 261.345 293.721 261.613C293.819 261.882 293.868 262.18 293.868 262.507C293.868 263.308 293.597 263.945 293.055 264.418C292.513 264.887 291.768 265.122 290.821 265.122C290.596 265.122 290.367 265.102 290.132 265.063C289.893 265.195 289.71 265.341 289.583 265.502C289.461 265.664 289.4 265.849 289.4 266.059C289.4 266.215 289.446 266.34 289.539 266.433C289.637 266.525 289.776 266.594 289.957 266.638C290.137 266.677 290.354 266.696 290.608 266.696H292.022C292.896 266.696 293.565 266.879 294.029 267.246C294.498 267.612 294.732 268.146 294.732 268.85C294.732 269.738 294.371 270.419 293.648 270.893C292.925 271.367 291.88 271.604 290.513 271.604ZM290.55 270.651C291.214 270.651 291.763 270.583 292.198 270.446C292.637 270.314 292.964 270.122 293.179 269.868C293.399 269.619 293.509 269.321 293.509 268.974C293.509 268.652 293.436 268.408 293.289 268.242C293.143 268.081 292.928 267.973 292.645 267.919C292.361 267.861 292.015 267.832 291.604 267.832H290.213C289.852 267.832 289.537 267.888 289.268 268C289 268.112 288.792 268.278 288.646 268.498C288.504 268.718 288.433 268.991 288.433 269.318C288.433 269.753 288.616 270.083 288.982 270.307C289.349 270.537 289.871 270.651 290.55 270.651ZM290.865 264.235C291.446 264.235 291.883 264.089 292.176 263.796C292.469 263.503 292.615 263.076 292.615 262.514C292.615 261.914 292.466 261.464 292.168 261.167C291.871 260.864 291.431 260.712 290.85 260.712C290.293 260.712 289.864 260.869 289.561 261.181C289.263 261.489 289.114 261.94 289.114 262.536C289.114 263.083 289.266 263.503 289.568 263.796C289.871 264.089 290.303 264.235 290.865 264.235ZM301.609 265.803C301.609 266.315 301.48 266.748 301.221 267.099C300.967 267.446 300.601 267.707 300.123 267.883C299.649 268.059 299.083 268.146 298.423 268.146C297.862 268.146 297.376 268.103 296.966 268.015C296.556 267.927 296.197 267.802 295.889 267.641V266.521C296.216 266.682 296.607 266.828 297.061 266.96C297.515 267.092 297.979 267.158 298.453 267.158C299.146 267.158 299.649 267.045 299.961 266.821C300.274 266.596 300.43 266.291 300.43 265.905C300.43 265.686 300.367 265.493 300.24 265.327C300.118 265.156 299.91 264.992 299.617 264.836C299.324 264.675 298.919 264.499 298.401 264.309C297.889 264.113 297.444 263.92 297.068 263.73C296.697 263.535 296.409 263.298 296.204 263.02C296.004 262.741 295.904 262.38 295.904 261.936C295.904 261.257 296.177 260.737 296.724 260.375C297.276 260.009 297.999 259.826 298.892 259.826C299.375 259.826 299.827 259.875 300.247 259.973C300.672 260.065 301.067 260.192 301.434 260.354L301.023 261.328C300.691 261.186 300.337 261.066 299.961 260.969C299.585 260.871 299.202 260.822 298.812 260.822C298.25 260.822 297.818 260.915 297.515 261.101C297.217 261.286 297.068 261.54 297.068 261.862C297.068 262.111 297.137 262.316 297.273 262.478C297.415 262.639 297.64 262.79 297.947 262.932C298.255 263.073 298.66 263.239 299.163 263.43C299.666 263.615 300.101 263.808 300.467 264.008C300.833 264.204 301.114 264.443 301.309 264.726C301.509 265.004 301.609 265.363 301.609 265.803ZM304.957 266.257L305.052 266.425C304.964 266.782 304.852 267.163 304.715 267.568C304.583 267.973 304.437 268.378 304.275 268.784C304.119 269.194 303.96 269.577 303.799 269.934H302.891C302.994 269.543 303.094 269.13 303.191 268.696C303.289 268.266 303.377 267.841 303.455 267.421C303.538 266.997 303.604 266.608 303.653 266.257H304.957ZM139.898 287.15C140.098 287.15 140.303 287.133 140.513 287.099C140.723 287.065 140.894 287.023 141.026 286.975V287.919C140.884 287.983 140.687 288.037 140.433 288.081C140.184 288.125 139.939 288.146 139.7 288.146C139.275 288.146 138.89 288.073 138.543 287.927C138.196 287.775 137.918 287.521 137.708 287.165C137.503 286.809 137.4 286.315 137.4 285.686V280.925H136.258V280.332L137.408 279.855L137.891 278.112H138.624V279.973H140.975V280.925H138.624V285.649C138.624 286.152 138.738 286.528 138.968 286.777C139.202 287.026 139.512 287.15 139.898 287.15ZM145.743 279.826C146.426 279.826 147.012 279.978 147.5 280.28C147.989 280.583 148.362 281.008 148.621 281.555C148.88 282.097 149.009 282.731 149.009 283.459V284.213H143.465C143.479 285.156 143.714 285.874 144.168 286.367C144.622 286.86 145.262 287.106 146.087 287.106C146.595 287.106 147.044 287.06 147.435 286.967C147.825 286.875 148.23 286.738 148.65 286.557V287.626C148.245 287.807 147.842 287.939 147.442 288.022C147.046 288.105 146.578 288.146 146.036 288.146C145.264 288.146 144.59 287.99 144.014 287.678C143.443 287.36 142.999 286.896 142.681 286.286C142.364 285.676 142.205 284.929 142.205 284.045C142.205 283.181 142.349 282.434 142.637 281.804C142.93 281.169 143.34 280.681 143.868 280.339C144.4 279.997 145.025 279.826 145.743 279.826ZM145.728 280.822C145.079 280.822 144.561 281.035 144.175 281.459C143.79 281.884 143.56 282.478 143.487 283.239H147.735C147.73 282.761 147.654 282.341 147.508 281.979C147.366 281.613 147.149 281.33 146.856 281.13C146.563 280.925 146.187 280.822 145.728 280.822ZM154.29 288.146C153.567 288.146 152.93 287.998 152.378 287.7C151.827 287.402 151.397 286.948 151.089 286.337C150.782 285.727 150.628 284.958 150.628 284.03C150.628 283.059 150.789 282.265 151.111 281.65C151.438 281.03 151.888 280.571 152.459 280.273C153.03 279.975 153.68 279.826 154.407 279.826C154.808 279.826 155.193 279.868 155.564 279.951C155.94 280.029 156.248 280.129 156.487 280.251L156.121 281.269C155.877 281.171 155.594 281.083 155.271 281.005C154.954 280.927 154.656 280.888 154.378 280.888C153.821 280.888 153.357 281.008 152.986 281.247C152.62 281.486 152.344 281.838 152.159 282.302C151.978 282.766 151.888 283.337 151.888 284.016C151.888 284.665 151.976 285.219 152.151 285.678C152.332 286.137 152.598 286.489 152.95 286.733C153.306 286.972 153.75 287.092 154.283 287.092C154.708 287.092 155.091 287.048 155.433 286.96C155.774 286.867 156.084 286.76 156.363 286.638V287.722C156.094 287.858 155.794 287.963 155.462 288.037C155.135 288.11 154.744 288.146 154.29 288.146ZM159.483 276.604V280.009C159.483 280.205 159.478 280.402 159.468 280.603C159.458 280.798 159.441 280.979 159.417 281.145H159.498C159.664 280.861 159.874 280.625 160.127 280.434C160.386 280.239 160.679 280.092 161.006 279.995C161.333 279.892 161.68 279.841 162.046 279.841C162.691 279.841 163.228 279.943 163.658 280.148C164.092 280.354 164.417 280.671 164.632 281.101C164.852 281.53 164.961 282.087 164.961 282.771V288H163.76V282.851C163.76 282.182 163.606 281.682 163.299 281.35C162.996 281.018 162.53 280.852 161.9 280.852C161.304 280.852 160.828 280.966 160.472 281.196C160.12 281.42 159.866 281.752 159.71 282.192C159.559 282.631 159.483 283.168 159.483 283.803V288H158.267V276.604H159.483ZM166.785 284.514V283.43H170.418V284.514H166.785ZM177.493 285.803C177.493 286.315 177.364 286.748 177.105 287.099C176.851 287.446 176.485 287.707 176.006 287.883C175.533 288.059 174.966 288.146 174.307 288.146C173.746 288.146 173.26 288.103 172.85 288.015C172.439 287.927 172.081 287.802 171.773 287.641V286.521C172.1 286.682 172.491 286.828 172.945 286.96C173.399 287.092 173.863 287.158 174.336 287.158C175.03 287.158 175.533 287.045 175.845 286.821C176.158 286.596 176.314 286.291 176.314 285.905C176.314 285.686 176.25 285.493 176.124 285.327C176.001 285.156 175.794 284.992 175.501 284.836C175.208 284.675 174.803 284.499 174.285 284.309C173.772 284.113 173.328 283.92 172.952 283.73C172.581 283.535 172.293 283.298 172.088 283.02C171.888 282.741 171.788 282.38 171.788 281.936C171.788 281.257 172.061 280.737 172.608 280.375C173.16 280.009 173.882 279.826 174.776 279.826C175.259 279.826 175.711 279.875 176.131 279.973C176.556 280.065 176.951 280.192 177.317 280.354L176.907 281.328C176.575 281.186 176.221 281.066 175.845 280.969C175.469 280.871 175.086 280.822 174.695 280.822C174.134 280.822 173.702 280.915 173.399 281.101C173.101 281.286 172.952 281.54 172.952 281.862C172.952 282.111 173.021 282.316 173.157 282.478C173.299 282.639 173.523 282.79 173.831 282.932C174.139 283.073 174.544 283.239 175.047 283.43C175.55 283.615 175.984 283.808 176.351 284.008C176.717 284.204 176.998 284.443 177.193 284.726C177.393 285.004 177.493 285.363 177.493 285.803ZM180.665 276.604V280.009C180.665 280.205 180.66 280.402 180.65 280.603C180.64 280.798 180.623 280.979 180.599 281.145H180.679C180.845 280.861 181.055 280.625 181.309 280.434C181.568 280.239 181.861 280.092 182.188 279.995C182.515 279.892 182.862 279.841 183.228 279.841C183.873 279.841 184.41 279.943 184.839 280.148C185.274 280.354 185.599 280.671 185.813 281.101C186.033 281.53 186.143 282.087 186.143 282.771V288H184.942V282.851C184.942 282.182 184.788 281.682 184.48 281.35C184.178 281.018 183.711 280.852 183.082 280.852C182.486 280.852 182.01 280.966 181.653 281.196C181.302 281.42 181.048 281.752 180.892 282.192C180.74 282.631 180.665 283.168 180.665 283.803V288H179.449V276.604H180.665ZM191.651 279.841C192.608 279.841 193.318 280.056 193.782 280.485C194.246 280.915 194.478 281.601 194.478 282.543V288H193.592L193.357 286.813H193.299C193.074 287.106 192.84 287.353 192.596 287.553C192.352 287.749 192.068 287.897 191.746 288C191.429 288.098 191.038 288.146 190.574 288.146C190.086 288.146 189.651 288.061 189.271 287.89C188.895 287.719 188.597 287.46 188.377 287.114C188.162 286.767 188.055 286.328 188.055 285.795C188.055 284.995 188.372 284.379 189.007 283.95C189.642 283.52 190.608 283.286 191.907 283.247L193.292 283.188V282.697C193.292 282.004 193.143 281.518 192.845 281.24C192.547 280.961 192.127 280.822 191.585 280.822C191.165 280.822 190.765 280.883 190.384 281.005C190.003 281.127 189.642 281.271 189.3 281.438L188.926 280.515C189.288 280.329 189.703 280.17 190.171 280.039C190.64 279.907 191.133 279.841 191.651 279.841ZM193.277 284.045L192.054 284.096C191.053 284.135 190.347 284.299 189.937 284.587C189.527 284.875 189.322 285.283 189.322 285.81C189.322 286.269 189.461 286.608 189.739 286.828C190.018 287.048 190.386 287.158 190.845 287.158C191.558 287.158 192.142 286.96 192.596 286.564C193.05 286.169 193.277 285.576 193.277 284.785V284.045ZM200.63 279.826C200.792 279.826 200.96 279.836 201.136 279.855C201.312 279.87 201.468 279.892 201.604 279.921L201.451 281.049C201.319 281.015 201.172 280.988 201.011 280.969C200.85 280.949 200.699 280.939 200.557 280.939C200.235 280.939 199.93 281.005 199.642 281.137C199.358 281.264 199.109 281.45 198.895 281.694C198.68 281.933 198.511 282.224 198.389 282.565C198.267 282.902 198.206 283.278 198.206 283.693V288H196.983V279.973H197.994L198.125 281.452H198.177C198.343 281.154 198.543 280.883 198.777 280.639C199.012 280.39 199.283 280.192 199.59 280.046C199.903 279.899 200.25 279.826 200.63 279.826ZM204.336 279.973V288H203.121V279.973H204.336ZM203.743 276.97C203.943 276.97 204.114 277.036 204.256 277.167C204.402 277.294 204.476 277.495 204.476 277.768C204.476 278.037 204.402 278.237 204.256 278.369C204.114 278.5 203.943 278.566 203.743 278.566C203.533 278.566 203.357 278.5 203.216 278.369C203.079 278.237 203.011 278.037 203.011 277.768C203.011 277.495 203.079 277.294 203.216 277.167C203.357 277.036 203.533 276.97 203.743 276.97ZM210.716 279.826C211.668 279.826 212.388 280.061 212.876 280.529C213.365 280.993 213.609 281.74 213.609 282.771V288H212.408V282.851C212.408 282.182 212.254 281.682 211.946 281.35C211.644 281.018 211.177 280.852 210.547 280.852C209.659 280.852 209.034 281.103 208.672 281.606C208.311 282.109 208.13 282.839 208.13 283.796V288H206.915V279.973H207.896L208.079 281.13H208.145C208.316 280.847 208.533 280.61 208.797 280.419C209.061 280.224 209.356 280.078 209.683 279.98C210.01 279.877 210.354 279.826 210.716 279.826ZM218.355 291.604C217.3 291.604 216.487 291.406 215.916 291.01C215.345 290.62 215.059 290.07 215.059 289.362C215.059 288.859 215.218 288.43 215.535 288.073C215.857 287.717 216.302 287.48 216.868 287.363C216.658 287.265 216.478 287.119 216.326 286.923C216.18 286.728 216.106 286.503 216.106 286.25C216.106 285.957 216.187 285.7 216.348 285.48C216.514 285.256 216.766 285.041 217.103 284.836C216.683 284.665 216.341 284.377 216.077 283.972C215.818 283.562 215.689 283.085 215.689 282.543C215.689 281.967 215.809 281.477 216.048 281.071C216.287 280.661 216.634 280.349 217.088 280.134C217.542 279.919 218.091 279.812 218.736 279.812C218.877 279.812 219.019 279.819 219.161 279.833C219.307 279.843 219.446 279.86 219.578 279.885C219.71 279.904 219.825 279.929 219.922 279.958H222.676V280.742L221.197 280.925C221.343 281.115 221.465 281.345 221.563 281.613C221.661 281.882 221.709 282.18 221.709 282.507C221.709 283.308 221.438 283.945 220.896 284.418C220.354 284.887 219.61 285.122 218.663 285.122C218.438 285.122 218.208 285.102 217.974 285.063C217.735 285.195 217.552 285.341 217.425 285.502C217.303 285.664 217.242 285.849 217.242 286.059C217.242 286.215 217.288 286.34 217.381 286.433C217.479 286.525 217.618 286.594 217.798 286.638C217.979 286.677 218.196 286.696 218.45 286.696H219.864C220.738 286.696 221.407 286.879 221.871 287.246C222.339 287.612 222.574 288.146 222.574 288.85C222.574 289.738 222.212 290.419 221.49 290.893C220.767 291.367 219.722 291.604 218.355 291.604ZM218.392 290.651C219.056 290.651 219.605 290.583 220.04 290.446C220.479 290.314 220.806 290.122 221.021 289.868C221.241 289.619 221.351 289.321 221.351 288.974C221.351 288.652 221.277 288.408 221.131 288.242C220.984 288.081 220.77 287.973 220.486 287.919C220.203 287.861 219.856 287.832 219.446 287.832H218.055C217.693 287.832 217.378 287.888 217.11 288C216.841 288.112 216.634 288.278 216.487 288.498C216.346 288.718 216.275 288.991 216.275 289.318C216.275 289.753 216.458 290.083 216.824 290.307C217.19 290.537 217.713 290.651 218.392 290.651ZM218.707 284.235C219.288 284.235 219.725 284.089 220.018 283.796C220.311 283.503 220.457 283.076 220.457 282.514C220.457 281.914 220.308 281.464 220.01 281.167C219.712 280.864 219.273 280.712 218.692 280.712C218.135 280.712 217.706 280.869 217.403 281.181C217.105 281.489 216.956 281.94 216.956 282.536C216.956 283.083 217.107 283.503 217.41 283.796C217.713 284.089 218.145 284.235 218.707 284.235Z" fill="black"/>
<path d="M144.322 220.6H156.048V223.394H147.798V226.87H155.212V229.664H147.798V233.206H156.29V236H144.322V220.6ZM157.257 224.186H160.755L163.549 232.898L166.321 224.186H169.687L165.221 236H161.745L157.257 224.186ZM178.511 229.136C178.496 228.593 178.379 228.131 178.159 227.75C177.954 227.354 177.653 227.046 177.257 226.826C176.861 226.606 176.406 226.496 175.893 226.496C175.321 226.496 174.822 226.643 174.397 226.936C173.972 227.229 173.642 227.633 173.407 228.146C173.172 228.659 173.055 229.253 173.055 229.928C173.055 230.691 173.187 231.343 173.451 231.886C173.715 232.429 174.089 232.847 174.573 233.14C175.057 233.433 175.614 233.58 176.245 233.58C177.389 233.58 178.386 233.155 179.237 232.304L181.019 234.064C180.432 234.724 179.706 235.23 178.841 235.582C177.99 235.934 177.03 236.11 175.959 236.11C174.698 236.11 173.605 235.861 172.681 235.362C171.757 234.863 171.038 234.167 170.525 233.272C170.026 232.363 169.777 231.314 169.777 230.126C169.777 228.909 170.034 227.853 170.547 226.958C171.06 226.049 171.772 225.345 172.681 224.846C173.605 224.347 174.668 224.091 175.871 224.076C177.264 224.076 178.401 224.369 179.281 224.956C180.176 225.528 180.821 226.342 181.217 227.398C181.628 228.439 181.782 229.679 181.679 231.116H172.571V229.136H178.511ZM192.342 229.532C192.342 228.755 192.129 228.146 191.704 227.706C191.293 227.266 190.729 227.046 190.01 227.046C189.174 227.061 188.514 227.361 188.03 227.948C187.546 228.535 187.304 229.275 187.304 230.17H186.446C186.446 228.791 186.644 227.655 187.04 226.76C187.451 225.851 188.023 225.176 188.756 224.736C189.504 224.281 190.384 224.054 191.396 224.054C192.276 224.054 193.039 224.245 193.684 224.626C194.344 224.993 194.85 225.513 195.202 226.188C195.554 226.863 195.73 227.662 195.73 228.586V236H192.342V229.532ZM183.916 224.186H187.304V236H183.916V224.186ZM202.548 231.974C202.548 232.502 202.651 232.876 202.856 233.096C203.062 233.301 203.34 233.397 203.692 233.382C203.912 233.382 204.154 233.345 204.418 233.272C204.682 233.199 204.968 233.089 205.276 232.942L205.98 235.318C205.54 235.582 205.056 235.787 204.528 235.934C204 236.081 203.458 236.154 202.9 236.154C202.196 236.154 201.558 236.022 200.986 235.758C200.429 235.494 199.989 235.091 199.666 234.548C199.344 234.005 199.182 233.331 199.182 232.524V221.436H202.548V231.974ZM197.532 224.692H205.76V226.958H197.532V224.692ZM215.48 227.574C214.834 227.222 214.196 226.951 213.566 226.76C212.935 226.555 212.37 226.452 211.872 226.452C211.476 226.452 211.146 226.525 210.882 226.672C210.632 226.819 210.508 227.053 210.508 227.376C210.508 227.684 210.654 227.933 210.948 228.124C211.256 228.3 211.644 228.454 212.114 228.586C212.598 228.718 213.104 228.872 213.632 229.048C214.16 229.209 214.658 229.422 215.128 229.686C215.612 229.95 216 230.309 216.294 230.764C216.587 231.204 216.734 231.776 216.734 232.48C216.734 233.272 216.521 233.947 216.096 234.504C215.67 235.047 215.091 235.457 214.358 235.736C213.624 236 212.81 236.132 211.916 236.132C210.962 236.132 210.038 235.993 209.144 235.714C208.249 235.435 207.464 235.025 206.79 234.482L207.89 232.282C208.506 232.751 209.18 233.118 209.914 233.382C210.662 233.631 211.358 233.756 212.004 233.756C212.297 233.756 212.554 233.719 212.774 233.646C212.994 233.573 213.17 233.463 213.302 233.316C213.434 233.169 213.5 232.986 213.5 232.766C213.5 232.443 213.353 232.187 213.06 231.996C212.766 231.791 212.385 231.622 211.916 231.49C211.446 231.343 210.948 231.197 210.42 231.05C209.892 230.889 209.393 230.676 208.924 230.412C208.469 230.148 208.095 229.803 207.802 229.378C207.508 228.938 207.362 228.373 207.362 227.684C207.362 226.863 207.574 226.188 208 225.66C208.425 225.117 208.99 224.714 209.694 224.45C210.398 224.186 211.175 224.054 212.026 224.054C212.847 224.054 213.654 224.164 214.446 224.384C215.252 224.604 215.986 224.919 216.646 225.33L215.48 227.574Z" fill="black"/>
<path d="M164.117 64.8589L162.753 83.3544L162.095 92.3444C161.91 94.9114 161.794 97.7148 163.782 99.777C165.411 101.453 167.779 101.925 170.102 102.086C173.256 102.333 176.434 102.473 179.6 102.666L199.324 103.858C202.663 104.063 205.991 104.277 209.33 104.46C211.884 104.61 214.518 104.46 216.483 102.698C220.377 99.2937 219.591 92.9244 219.672 88.4455C219.776 82.4629 220.146 76.4159 219.938 70.4333C219.845 67.8555 219.314 65.1703 217.361 63.2155C215.638 61.6594 213.379 60.7196 210.983 60.5626C207.689 60.3065 204.384 60.2061 201.08 60.2618L189.884 60.047L167.479 59.6389C164.683 59.6389 164.683 63.6129 167.479 63.6666L203.091 64.3218C205.663 64.2571 208.237 64.3432 210.798 64.5796C212.762 64.8481 214.461 65.6537 215.131 67.4689C215.94 69.7029 215.605 72.2914 215.57 74.6007L215.431 82.8603L215.293 91.1092C215.384 93.2519 215.202 95.3972 214.749 97.5C214.218 99.3474 213.19 100.464 211.04 100.497C208.29 100.497 205.494 100.207 202.756 100.035L184.742 98.9607L176.168 98.4344C173.684 98.284 170.934 98.4344 168.507 97.8329C166.081 97.2314 166.196 94.8792 166.393 92.8814C166.601 89.7988 166.844 86.7163 167.075 83.6337L168.45 64.8589C168.646 62.2703 164.313 62.2811 164.117 64.8589Z" fill="#1F87FC"/>
<path d="M172.297 57.1041V71.3033C172.297 72.0155 172.602 72.6985 173.143 73.202C173.685 73.7056 174.42 73.9885 175.186 73.9885C175.952 73.9885 176.687 73.7056 177.229 73.202C177.77 72.6985 178.075 72.0155 178.075 71.3033V57.1041C178.075 56.3919 177.77 55.7089 177.229 55.2054C176.687 54.7018 175.952 54.4189 175.186 54.4189C174.42 54.4189 173.685 54.7018 173.143 55.2054C172.602 55.7089 172.297 56.3919 172.297 57.1041Z" fill="#1F87FC"/>
<path d="M188.023 57.9204L188.463 68.876C188.463 69.5881 188.767 70.2711 189.309 70.7747C189.85 71.2783 190.585 71.5612 191.351 71.5612C192.117 71.5612 192.852 71.2783 193.394 70.7747C193.936 70.2711 194.24 69.5881 194.24 68.876L193.801 57.9204C193.801 57.2083 193.496 56.5253 192.955 56.0217C192.413 55.5181 191.678 55.2352 190.912 55.2352C190.146 55.2352 189.411 55.5181 188.87 56.0217C188.328 56.5253 188.023 57.2083 188.023 57.9204Z" fill="#1F87FC"/>
<path d="M205.448 56.6959L204.292 72.9252C204.299 73.6365 204.607 74.3167 205.15 74.8176C205.693 75.3186 206.428 75.5997 207.193 75.5996C207.953 75.5832 208.678 75.2951 209.216 74.795C209.754 74.295 210.064 73.6214 210.081 72.9144L211.237 56.6852C211.234 55.9739 210.929 55.2926 210.387 54.7896C209.846 54.2866 209.113 54.0028 208.348 54C207.587 54.0137 206.861 54.3011 206.322 54.8017C205.783 55.3023 205.474 55.9773 205.46 56.6852L205.448 56.6959Z" fill="#1F87FC"/>
<path d="M62.8359 44.8376C58.4763 43.7141 56.1998 39.4848 54.6886 35.5821C52.7703 30.6358 51.3457 25.3486 47.1216 21.8088C43.4174 18.7313 38.0125 17.8305 34.1289 21.1075C30.1118 24.5004 29.5366 29.9633 29.7782 34.8668C30.0158 39.6172 31.169 45.983 27.0839 49.5571C26.7781 49.8309 26.5686 50.196 26.4866 50.5983C26.4047 51.0005 26.4545 51.4185 26.6289 51.7901C26.8032 52.1618 27.0927 52.4674 27.4544 52.6615C27.8162 52.8556 28.2308 52.928 28.6369 52.8678L40.0374 51.3884L58.3268 49.0173L62.5076 48.4724C64.9221 48.1621 64.2643 44.4319 61.8499 44.7423L50.4419 46.2231L32.16 48.5928L27.9792 49.1377L29.5322 52.4484C33.1714 49.2683 34.0116 44.3048 33.8389 39.7046C33.6662 35.1043 32.5088 29.7623 35.2012 25.6184C35.6532 24.8237 36.2882 24.1482 37.0535 23.6481C37.8188 23.1479 38.6924 22.8375 39.6017 22.7425C41.595 22.7536 43.5112 23.514 44.9696 24.8729C48.6856 28.0176 49.7442 33.3232 51.4761 37.6485C53.3089 42.2406 56.4638 47.0458 61.54 48.3507C62.0113 48.5097 62.5255 48.483 62.9778 48.276C63.4301 48.0691 63.7865 47.6974 63.9743 47.2369C64.1331 46.7674 64.1031 46.2546 63.8907 45.8069C63.6782 45.3591 63.3 45.0116 62.8359 44.8376Z" fill="#FE2B25"/>
<path d="M40.8424 50.5003C41.2016 51.4495 41.7135 52.3336 42.3578 53.1177C43.0055 54.0174 43.891 54.7189 44.915 55.1437C45.5324 55.3726 46.203 55.4173 46.8454 55.2725C47.6248 55.0703 48.3114 54.6072 48.7909 53.9602C49.3958 53.0387 49.6761 51.9417 49.5873 50.8429C49.6169 50.3385 49.4607 49.8406 49.1483 49.4434C48.9876 49.2535 48.791 49.0972 48.5698 48.9832C48.3487 48.8693 48.1072 48.8001 47.8593 48.7795C47.6113 48.759 47.3618 48.7874 47.1249 48.8633C46.8879 48.9393 46.6683 49.0611 46.4785 49.2219C46.2894 49.3775 46.1334 49.5694 46.0197 49.7863C45.906 50.0032 45.8369 50.2407 45.8165 50.4848C45.8361 50.9424 45.8087 51.4009 45.7347 51.853L45.8423 51.3725C45.7977 51.5719 45.7284 51.765 45.636 51.9473L45.8686 51.5217C45.7883 51.6675 45.6941 51.8052 45.5873 51.9329L45.909 51.5761C45.8135 51.6765 45.7084 51.7671 45.5952 51.8468L46.0099 51.5814C45.9069 51.6384 45.8 51.6881 45.69 51.7301L46.178 51.5749C46.0584 51.6075 45.936 51.6291 45.8124 51.6393L46.3167 51.6196C46.1957 51.6194 46.075 51.6072 45.9564 51.5832L46.4369 51.6907C46.2565 51.6438 46.0821 51.5765 45.9169 51.4901L46.3412 51.7153C46.0687 51.5604 45.8142 51.3756 45.5826 51.1645L45.9406 51.4936C45.4968 51.0648 45.103 50.5872 44.7665 50.0699L45.0319 50.4847C44.7139 49.9833 44.4497 49.4497 44.2436 48.8929C44.0334 48.4437 43.654 48.0958 43.1883 47.9252C42.7169 47.7532 42.1966 47.7745 41.7408 47.9846C41.2851 48.1946 40.9308 48.5763 40.7553 49.0465C40.6043 49.5301 40.6281 50.0514 40.8227 50.5192L40.8424 50.5003Z" fill="#FE2B25"/>
<path d="M39.0625 19.0299L37.8012 13.3601C37.714 12.8655 37.4338 12.4257 37.0224 12.1376C36.6109 11.8495 36.1019 11.7367 35.6073 11.8239C35.1126 11.9111 34.6729 12.1913 34.3848 12.6027C34.0967 13.0142 33.9838 13.5232 34.071 14.0178L35.3323 19.6877C35.4195 20.1823 35.6997 20.622 36.1111 20.9101C36.5226 21.1982 37.0316 21.3111 37.5263 21.2239C38.0209 21.1367 38.4606 20.8565 38.7487 20.4451C39.0368 20.0336 39.1497 19.5246 39.0625 19.0299Z" fill="#FE2B25"/>
<path d="M245.072 163.26C245.657 163.276 246.239 163.18 246.78 162.979C247.321 162.777 247.808 162.474 248.209 162.09C249.056 161.22 249.494 160.086 249.429 158.93V151.03C249.361 149.847 249.648 148.668 250.26 147.62C250.835 146.769 251.733 146.137 252.788 145.84V145.66C251.73 145.353 250.832 144.709 250.26 143.85C249.653 142.807 249.366 141.637 249.429 140.46V132.56C249.491 131.404 249.054 130.271 248.209 129.4C247.808 129.016 247.321 128.713 246.78 128.511C246.239 128.309 245.657 128.214 245.072 128.23H244.03V125.07H245.139C246.23 125 247.325 125.143 248.35 125.488C249.375 125.833 250.306 126.373 251.08 127.071C251.853 127.769 252.452 128.608 252.834 129.533C253.217 130.458 253.375 131.446 253.298 132.43V140.33C253.219 141.36 253.584 142.378 254.317 143.17C254.659 143.5 255.075 143.761 255.538 143.933C256.001 144.106 256.5 144.187 257 144.17V147.33C256.5 147.315 256.002 147.396 255.539 147.568C255.076 147.741 254.66 148.001 254.317 148.33C253.584 149.122 253.219 150.14 253.298 151.17V159.07C253.375 160.054 253.217 161.042 252.834 161.967C252.452 162.892 251.853 163.731 251.08 164.429C250.306 165.127 249.375 165.667 248.35 166.012C247.325 166.357 246.23 166.5 245.139 166.43H244.03V163.27L245.072 163.26Z" fill="#FFB900"/>
<path d="M114.054 125.07V128.23H107.858V163.23H114.054V166.39H104V125.07H114.054Z" fill="#FFB900"/>
<path d="M128.177 144.34L132.257 142.21L125.849 147.35L136.469 141.81L125.073 149.74L158.562 132.3L124.962 151.92L157.875 134.78L125.251 153.49L156.644 137.13L127.08 154L154.582 139.67L129.474 154.14L151.567 142.63L132.345 154.3L153.973 143.04L135.106 154.46L155.769 143.7L139.041 154.69L157.819 144.91L141.258 154.81L158.773 145.69L143.375 154.94L159.56 146.51L146.401 155.11L160.48 147.78L148.851 155.25L161.056 148.89L152.443 155.46L161.633 150.67L154.461 155.57L161.81 151.75L158.074 155.78L161.788 153.85L160.48 155.92L161.444 155.42" stroke="#FFB900" stroke-linecap="round" stroke-linejoin="round"/>
<path d="M140.393 123.43L145.049 121L137.766 126.35L148.984 120.5L136.558 128.88L151.711 120.99L136.015 131.06L153.663 121.87L135.826 133.23L155.303 123.08L135.926 135.21L156.556 124.46L136.092 136.32L157.154 125.35L136.347 137.58L157.731 126.44L136.68 138.76L158.174 127.56L137.201 140.2L158.54 129.08L137.677 141.29L158.684 130.35" stroke="#FFB900" stroke-linecap="round" stroke-linejoin="round"/>
<path d="M151.224 155.44L154.05 155.61L154.061 155.6" stroke="#FFB900" stroke-linecap="round" stroke-linejoin="round"/>
<path d="M130.66 154.19V154.18L133.077 154.33L133.088 154.32L135.383 154.46" stroke="#FFB900" stroke-linecap="round" stroke-linejoin="round"/>
<path d="M173.062 135.6L177.507 133.29L169.515 139.76L195.066 126.45L168.24 142.54L194.168 129.03L167.652 144.52L191.464 132.12L167.275 146.38L194.49 132.2L167.076 147.83L195.875 132.82L166.921 149.46L197.073 133.75L166.799 151.64L198.281 135.24L166.743 153.38L199.013 136.57L167.264 154.35L199.456 137.58L170.512 154.56L200.032 139.18L172.618 154.69L200.376 140.23L175.6 154.88L200.808 141.75L179.38 155.12L201.285 143.71L183.072 155.35L201.662 145.67L185.477 155.5L201.85 146.98L189.391 155.75L202.072 149.14L193.326 156L202.172 151.39L196.086 156.17L202.172 153L199.644 156.39L202.072 155.13" stroke="#FFB900" stroke-linecap="round" stroke-linejoin="round"/>
<path d="M178.904 119.35L183.027 117.2L176.365 122.73L187.362 117L175.778 125.07L189.834 117.75L175.755 126.53L191.197 118.48L176.099 128.37L192.749 119.7L176.72 129.95L193.869 121.02L177.33 131L194.467 122.07L178.383 132.3L195.011 123.65" stroke="#FFB900" stroke-linecap="round" stroke-linejoin="round"/>
<path d="M209.555 146.89L213.424 144.87L207.848 148.98L216.339 144.56L207.183 150.59L227.38 140.07L206.883 152.42L226.482 142.21L207.027 154.26L227.158 143.78L207.959 155.66L229.331 144.53L210.774 155.63L230.639 145.28L213.39 155.6L231.659 146.09L216.893 155.56L232.757 147.3L220.208 155.52L233.532 148.59L223.511 155.48L234.042 150L225.972 155.46L234.253 151.14L228.411 155.43L234.297 152.36L231.836 155.39L233.965 154.28" stroke="#FFB900" stroke-linecap="round" stroke-linejoin="round"/>
<path d="M214.543 130.87L218.079 129.03L212.326 134.14L222.17 129.01L211.96 135.51L223.578 129.46L211.86 137.01L224.93 130.2L212.226 139.09L226.46 131.68L212.647 140.16L227.069 132.65L213.18 141.13L227.513 133.67L214.421 142.71L227.967 135.66L215.496 143.69L227.978 137.19L216.516 144.41L227.79 138.54" stroke="#FFB900" stroke-linecap="round" stroke-linejoin="round"/>
<path d="M167.486 154.34L167.73 154.21L169.548 154.47L170.556 153.94L173.472 154.72L175.201 153.82L176.022 154.88L177.906 153.9L178.017 155.01L179.924 154.01L180.245 155.15L182.118 154.18L182.972 155.33L184.69 154.43L186.176 155.53L187.628 154.77L189.945 155.77L191.031 155.21L192.76 155.95L193.547 155.54L195.676 156.14L196.153 155.89L197.937 156.28L198.181 156.15L200.276 156.43L200.31 156.41" stroke="#FFB900" stroke-linecap="round" stroke-linejoin="round"/>
<path d="M315.81 63.62C329.512 63.62 340.62 52.5122 340.62 38.81C340.62 25.1078 329.512 14 315.81 14C302.108 14 291 25.1078 291 38.81C291 52.5122 302.108 63.62 315.81 63.62Z" stroke="#00A050" stroke-width="3" stroke-miterlimit="10"/>
<path d="M322.21 14.85C322.21 14.85 290.94 30.85 309.4 62.78" stroke="#00A050" stroke-width="3" stroke-miterlimit="10"/>
<path d="M322.89 15.03C322.89 15.03 342 44.51 310.07 62.96" stroke="#00A050" stroke-width="3" stroke-miterlimit="10"/>
<path d="M291.84 32.4C291.84 32.4 315.36 50.29 339.77 45.19" stroke="#00A050" stroke-width="3" stroke-miterlimit="10"/>
<path d="M291.46 43.6C291.46 43.6 308.29 61.43 333.6 56.1" stroke="#00A050" stroke-width="3" stroke-miterlimit="10"/>
<path d="M300.04 19.66C300.04 19.66 319.48 34.47 338.8 29.5" stroke="#00A050" stroke-width="3" stroke-miterlimit="10"/>
<path d="M135.42 83.689L139.48 80.019C90.25 78.839 89 133.119 89 133.119" stroke="#FE2B25" stroke-width="3" stroke-miterlimit="10"/>
</svg>
