<svg width="360" height="72" viewBox="0 0 360 72" fill="none" xmlns="http://www.w3.org/2000/svg">
<g opacity="0.5">
<path d="M100.736 70.5478V0.960449H128.362V11.771H135.834V70.5478H100.736Z" fill="white"/>
<path d="M101.736 1.39321L103.199 0.555248L103.523 1.39321L104.985 0.546059L104.745 1.39321L106.217 0.546059L106.161 1.38399L107.633 0.546059L106.457 1.38399L107.93 0.546059L107.865 1.38399L109.337 0.536841L109.355 1.38399L110.837 0.536841L109.855 1.38399L111.336 0.536841L111.04 1.38399L112.522 0.536841L111.494 1.38399L112.975 0.536841L111.586 1.38399L113.068 0.536841L113.244 1.38399L114.734 0.527624L113.429 1.38399L114.91 0.527624L114.827 1.3748L116.308 0.527624L115.234 1.3748L116.715 0.527624L116.91 1.3748L118.4 0.518435L117.132 1.3748L118.613 0.518435L117.604 1.3748L119.095 0.518435L117.771 1.3748L119.261 0.518435L119.058 1.3748L120.548 0.518435L120.28 1.3748L121.77 0.518435L121.687 1.3748L123.187 0.509217L122.854 1.3748L124.353 0.509217L124.409 1.36559L125.918 0.509217L125.344 1.36559L126.853 0.509217L126.122 1.36559L127.622 0.5L127.779 1.36559L128.77 0.794673L127.899 1.66026L128.77 1.15378L127.899 1.81678L128.77 1.31034L127.899 1.96412L128.779 1.45767L127.909 2.54425L128.779 2.04699L127.909 3.31775L128.779 2.82052L127.909 3.33618L128.779 2.83892L127.909 3.89788L128.788 3.39143L127.918 4.68981L128.788 4.19255L127.918 5.29753L128.788 4.8003L127.918 5.78557L128.797 5.28834L127.927 6.72484L128.797 6.22758L127.927 7.32337L128.807 6.82612L127.936 8.23499L128.807 7.73776L127.936 8.62175L128.807 8.1245L127.936 8.71384L128.807 8.20737L127.936 9.23869L128.816 8.73225L127.946 10.0951L128.816 9.59783L127.946 10.9422L128.816 10.445L127.955 11.9736L129.01 11.3658L128.27 12.2314L129.788 11.3566L129.593 12.213L131.112 11.3474L130.834 12.2038L132.343 11.3382L131.612 12.2038L133.121 11.329L132.269 12.1946L133.787 11.329L132.538 12.1946L134.047 11.329L133.76 12.1854L135.278 11.3198L134.361 12.1854L135.87 11.3106L135.352 12.1762L136.241 11.6605L135.371 12.5629L136.241 12.0565L135.371 13.1615L136.241 12.6642L135.371 13.9534L136.241 13.4561L135.371 14.0639L136.241 13.5666L135.371 14.2757L136.241 13.7692L135.371 14.4875L136.241 13.9902L135.371 15.3623L136.241 14.865L135.38 16.2923L136.25 15.7858L135.38 17.2592L136.25 16.7527L135.38 18.2168L136.25 17.7104L135.38 18.3089L136.25 17.8025L135.38 18.9719L136.25 18.4747L135.38 19.9572L136.25 19.4599L135.38 20.0401L136.25 19.5428L135.38 20.3071L136.25 19.8006L135.38 20.4913L136.25 19.994L135.38 21.0622L136.25 20.5557L135.38 21.6884L136.25 21.1819L135.38 21.6976L136.25 21.2003L135.38 22.6L136.25 22.1027L135.38 22.8763L136.25 22.3698L135.38 23.4103L136.25 22.9131L135.38 24.3035L136.25 23.8063L135.38 24.8929L136.25 24.3956L135.38 25.5651L136.25 25.0678L135.38 26.6148L136.259 26.1176L135.389 26.9647L136.259 26.4675L135.389 27.0016L136.259 26.5043L135.389 27.5265L136.259 27.0292L135.389 28.4381L136.259 27.9408L135.389 28.5025L136.259 28.0053L135.389 29.0366L136.259 28.5394L135.389 29.8377L136.259 29.3405L135.389 30.5099L136.259 30.0035L135.389 31.1914L136.259 30.6941L135.389 31.6242L136.259 31.1269L135.389 32.4805L136.259 31.9833L135.389 33.033L136.259 32.5266L135.389 33.9999L136.259 33.5026L135.389 34.267L136.259 33.7697L135.389 34.7182L136.259 34.2209L135.389 34.9852L136.259 34.4879L135.389 35.7495L136.259 35.2522L135.389 36.081L136.259 35.5837L135.398 36.5414L136.269 36.0442L135.398 36.6887L136.269 36.1915L135.398 37.1584L136.269 36.6519L135.398 37.6648L136.269 37.1584L135.398 38.5396L136.269 38.0332L135.398 38.8251L136.269 38.3278L135.398 39.6538L136.269 39.1566L135.398 40.2339L136.269 39.7367L135.398 41.0903L136.269 40.5839L135.398 41.4218L136.269 40.9154L135.398 42.2598L136.269 41.7625L135.398 42.7938L136.269 42.2966L135.398 43.153L136.269 42.6557L135.398 43.8528L136.269 43.3464L135.398 44.5803L136.269 44.083L135.398 44.7921L136.269 44.2948L135.408 45.409L136.269 44.9118L135.408 46.0352L136.278 45.5287L135.408 46.5416L136.278 46.0352L135.408 47.2507L136.278 46.7534L135.408 47.2875L136.278 46.7903L135.408 47.3704L136.278 46.8732L135.408 48.4017L136.278 47.9045L135.408 49.2489L136.278 48.7516L135.408 49.783L136.278 49.2765L135.408 50.6854L136.278 50.1881L135.408 50.9064L136.278 50.4092L135.408 51.2287L136.278 50.7315L135.408 52.2232L136.278 51.7167L135.408 52.7665L136.278 52.2692L135.408 53.5216L136.278 53.0243L135.408 54.5161L136.278 54.0188L135.417 54.6542L136.278 54.1569L135.417 54.7831L136.278 54.2859L135.417 55.6579L136.278 55.1607L135.417 56.5879L136.287 56.0907L135.417 56.8734L136.287 56.3761L135.417 57.1128L136.287 56.6156L135.417 57.5088L136.287 57.0115L135.417 57.6101L136.287 57.1128L135.417 58.1625L136.287 57.6653L135.417 58.8532L136.287 58.3559L135.417 59.8937L136.287 59.3965L135.417 60.612L136.287 60.1147L135.417 61.1276L136.287 60.6212L135.417 61.1737L136.287 60.6764L135.417 61.588L136.287 61.0908L135.417 61.6157L136.287 61.1092L135.417 62.3615L136.287 61.8551L135.417 62.868L136.287 62.3708L135.417 63.6968L136.287 63.1903L135.417 64.4979L136.287 63.9914L135.417 64.7097L136.287 64.2124L135.417 64.8478L136.287 64.3505L135.426 65.695L136.287 65.1977L135.426 66.0725L136.287 65.5753L135.426 66.1278L136.287 65.6305L135.426 66.4869L136.296 65.9896L135.426 66.6987L136.296 66.2014L135.426 67.021L136.296 66.5237L135.426 67.0762L136.296 66.579L135.426 67.1039L136.296 66.6066L135.426 67.7208L136.296 67.2144L135.426 68.4759L136.296 67.9786L135.426 69.056L136.296 68.5588L135.426 69.8479L136.296 69.3507" stroke="#A7A9AC" stroke-linecap="round" stroke-linejoin="round"/>
<path d="M100.329 0.822286L100.792 0.555237L100.329 1.40242L101.801 0.555237L100.329 1.95492L101.143 1.48529L100.329 2.35087L101.143 1.88124L100.329 3.16121L101.143 2.69158L100.329 3.9439L101.143 3.47429L100.329 4.46878L101.143 3.99917L100.329 5.32514L101.153 4.85554L100.329 5.54616L101.153 5.07653L100.329 5.84084L101.153 5.3712L100.329 5.98815L101.153 5.51854L100.329 7.02869L101.153 6.55909L100.329 7.35099L101.153 6.88135L100.329 7.76537L101.153 7.29574L100.329 8.01399L101.153 7.54436L100.329 9.06375L101.153 8.59412L100.329 9.33077L101.153 8.86117L100.329 9.94774L101.153 9.47811L100.329 10.5463L101.153 10.0675L100.329 11.2737L101.153 10.8041L100.329 11.4487L101.153 10.9791L100.329 12.48L101.153 12.0104L100.329 13.3456L101.153 12.8668L100.329 13.7784L101.153 13.3088L100.329 14.2665L101.153 13.7968L100.329 14.2941L101.153 13.8152L100.329 14.7177L101.153 14.248L100.329 15.3346L101.153 14.8558L100.329 16.1357L101.162 15.6569L100.329 16.9461L101.162 16.4672L100.329 17.4709L101.162 16.9921L100.329 17.8945L101.162 17.4157L100.329 18.1708L101.162 17.692L100.329 18.6312L101.162 18.1616L100.329 19.0271L101.162 18.5483L100.329 19.1008L101.162 18.622L100.329 19.5704L101.162 19.0916L100.329 20.2427L101.162 19.773L100.329 20.5373L101.162 20.0585L100.329 21.1266L101.162 20.6478L100.329 21.1819L101.162 20.7123L100.329 22.2317L101.162 21.7528L100.329 23.1893L101.162 22.7197L100.329 23.7326L101.162 23.2538L100.329 23.9444L101.162 23.4656L100.329 24.3864L101.162 23.9076L100.329 25.1967L101.162 24.7179L100.329 25.4638L101.162 24.9849L100.329 26.1084L101.162 25.6295L100.329 27.066L101.162 26.5872L100.329 27.4344L101.162 26.9555L100.329 27.9961L101.162 27.5172L100.329 28.7511L101.171 28.2631L100.329 28.8432L101.171 28.3644L100.329 29.4326L101.171 28.9537L100.329 30.381L101.171 29.9022L100.329 31.219L101.171 30.7401L100.329 31.44L101.171 30.9519L100.329 31.7807L101.171 31.2926L100.329 32.1582L101.171 31.6794L100.329 32.9594L101.171 32.4713L100.329 32.9686L101.171 32.4897L100.329 33.7421L101.171 33.254L100.329 34.0183L101.171 33.5395L100.329 34.755L101.171 34.2761L100.329 35.0036L101.171 34.5248L100.329 35.639L101.171 35.1509L100.329 36.6795L101.171 36.2007L100.329 36.7071L101.171 36.2191L100.329 37.6096L101.171 37.1307L100.329 38.6317L101.18 38.1436L100.329 39.1566L101.18 38.6685L100.329 39.2671L101.18 38.779L100.329 39.4236L101.18 38.9448L100.329 39.7459L101.18 39.2578L100.329 39.9301L101.18 39.4512L100.329 40.2431L101.18 39.7551L100.329 40.7956L101.18 40.3168L100.329 41.7717L101.18 41.2929L100.329 41.9191L101.18 41.431L100.329 42.2966L101.18 41.8086L100.329 42.5176L101.18 42.0388L100.329 43.0425L101.18 42.5544L100.329 43.4477L101.18 42.9596L100.329 44.4882L101.18 44.0001L100.329 45.3998L101.18 44.9118L100.329 46.4495L101.18 45.9615L100.329 47.4625L101.18 46.9652L100.329 48.1071L101.18 47.619L100.329 49.12L101.18 48.6319L100.329 49.2489L101.18 48.7608L100.329 49.8382L101.18 49.3502L100.329 49.9303L101.19 49.4331L100.329 50.2618L101.19 49.7738L100.329 50.7406L101.19 50.2526L100.329 51.4589L101.19 50.9617L100.329 51.9193L101.19 51.4313L100.329 52.26L101.19 51.772L100.329 52.6375L101.19 52.1495L100.329 53.4663L101.19 52.9783L100.329 53.9175L101.19 53.4203L100.329 54.3779L101.19 53.8899L100.329 55.4093L101.19 54.9212L100.329 56.0078L101.19 55.5198L100.329 56.8734L101.19 56.3853L100.329 57.4075L101.19 56.9194L100.329 57.7298L101.19 57.2325L100.329 58.5861L101.19 58.0981L100.329 59.0005L101.19 58.5125L100.329 59.286L101.19 58.7887L100.329 59.8753L101.19 59.3781L100.329 60.8422L101.19 60.3449L100.329 61.3486L101.19 60.8514L100.329 62.2603L101.19 61.763L100.329 62.3155L101.19 61.8183L100.329 62.8588L101.199 62.3708L100.329 63.8717L101.199 63.3745L100.329 64.461L101.199 63.9638L100.329 65.2161L101.199 64.7189L100.329 65.6397L101.199 65.1425L100.329 66.358L101.199 65.8607L100.329 66.9197L101.199 66.4224L100.329 67.1407L101.199 66.6434L100.329 67.242L101.199 66.7447L100.329 67.3617L101.199 66.8644L100.329 68.3562L101.199 67.8497L100.329 68.5864L101.199 68.0891L100.329 68.8626L101.199 68.3654L100.329 69.1573L101.199 68.6601L100.329 69.2218L101.199 68.7245L100.329 69.894L101.199 69.3967L100.329 70.2255L101.199 69.719L100.329 70.9253L101.69 70.1426L101.819 71.0082L103.319 70.1426L101.94 71.0082L103.449 70.1426L102.763 71.0082L104.273 70.1426L103.254 71.0082L104.754 70.1426L104.708 71.0082L106.208 70.1426L106.032 70.999L107.531 70.1426L106.911 70.999L108.411 70.1426L107.67 70.999L109.17 70.1426L108.855 70.999L110.355 70.1334L110.457 70.999L111.948 70.1334L111.503 70.9898L112.994 70.1334L112.549 70.9898L114.04 70.1334L112.938 70.9898L114.429 70.1334L114.669 70.9898L116.16 70.1334L115.401 70.9898L116.891 70.1334L116.669 70.9806L118.16 70.1334L118.4 70.9806L119.882 70.1334L119.558 70.9806L121.039 70.1242L120.946 70.9806L122.418 70.1242L121.594 70.9713L123.076 70.1242L121.844 70.9713L123.326 70.1242L123.354 70.9713L124.835 70.1242L123.594 70.9713L125.076 70.1242L124.168 70.9713L125.65 70.1242L125.316 70.9713L126.788 70.1242L126.992 70.9713L128.464 70.1242L127.622 70.9621L129.094 70.1242L128.723 70.9621L130.186 70.1242L130.149 70.9621L131.621 70.115L130.63 70.9621L132.093 70.115L131.834 70.9621L133.306 70.115L133.417 70.9529L134.889 70.115L133.769 70.9529L135.232 70.115L134.343 70.9529L136.296 69.8387L135.315 70.9529L136.296 70.3912L135.482 70.9529L136.296 70.4833L135.833 70.9529L136.296 70.6859" stroke="#A7A9AC" stroke-linecap="round" stroke-linejoin="round"/>
<path d="M250.375 70.5478V10.3161H226.461V19.6718H219.999V70.5478H250.375Z" fill="white"/>
<path d="M227.461 10.7489L228.923 9.91096L228.192 10.7489L229.655 9.90174L229.673 10.7489L231.145 9.90174L229.979 10.7489L231.451 9.90174L230.979 10.7489L232.451 9.90174L232.432 10.7397L233.904 9.89255L232.673 10.7397L234.154 9.89255L234.025 10.7397L235.506 9.89255L234.154 10.7397L235.636 9.89255L234.562 10.7397L236.043 9.89255L236.321 10.7397L237.802 9.88334L237.821 10.7397L239.302 9.88334L239.459 10.7305L240.95 9.88334L239.691 10.7305L241.181 9.88334L240.07 10.7305L241.561 9.88334L241.589 10.7305L243.079 9.87412L243.403 10.7305L244.903 9.87412L245.125 10.7305L246.625 9.86493L246.255 10.7305L247.754 9.86493L247.532 10.7213L249.041 9.86493L247.838 10.7213L249.347 9.86493L248.875 10.7213L250.384 9.85571L249.699 10.7213L250.782 10.1043L249.912 10.8963L250.782 10.399L249.912 11.4764L250.782 10.9791L249.912 12.342L250.782 11.8447L249.912 12.7655L250.782 12.2591L249.912 12.876L250.782 12.3788L249.912 13.4378L250.782 12.9405L249.912 13.9718L250.782 13.4746L249.912 14.6256L250.782 14.1192L249.912 14.6993L250.782 14.202L249.912 15.5096L250.782 15.0124L249.912 16.1542L250.782 15.6569L249.912 16.3108L250.782 15.8135L249.912 16.4028L250.782 15.9056L249.912 16.9185L250.782 16.412L249.912 17.075L250.782 16.5778L249.921 17.9775L250.791 17.4802L249.921 18.1616L250.791 17.6644L249.921 18.8891L250.791 18.3826L249.921 19.064L250.791 18.5668L249.921 19.1561L250.791 18.6589L249.921 19.2942L250.791 18.7878L249.921 19.7178L250.791 19.2206L249.921 20.298L250.791 19.7915L249.921 20.3532L250.791 19.856L249.921 20.5374L250.791 20.0401L249.921 21.3017L250.791 20.8044L249.921 22.2686L250.791 21.7713L249.921 22.6461L250.791 22.1488L249.921 23.438L250.791 22.9407L249.921 24.0826L250.791 23.5853L249.921 24.6627L250.791 24.1655L249.921 25.1968L250.791 24.6995L249.921 26.0992L250.791 25.5927L249.921 26.4675L250.791 25.9703L249.921 26.7806L250.791 26.2834L249.921 27.7107L250.791 27.2134L249.921 27.7383L250.791 27.241L249.93 28.4381L250.791 27.9409L249.93 29.1195L250.8 28.6131L249.93 29.1472L250.8 28.6499L249.93 29.7457L250.8 29.2485L249.93 29.8746L250.8 29.3774L249.93 30.8599L250.8 30.3627L249.93 31.5689L250.8 31.0625L249.93 32.499L250.8 31.9925L249.93 32.6371L250.8 32.1399L249.93 33.3001L250.8 32.8029L249.93 33.7145L250.8 33.2172L249.93 34.3222L250.8 33.825L249.93 34.4143L250.8 33.9171L249.93 35.326L250.8 34.8287L249.93 35.768L250.8 35.2615L249.93 36.1271L250.8 35.6206L249.93 36.8914L250.8 36.3941L249.93 37.0755L250.8 36.5691L249.93 37.2781L250.8 36.7809L249.93 37.407L250.8 36.9098L249.939 38.0885L250.8 37.582L249.939 38.5673L250.8 38.07L249.939 39.1658L250.81 38.6686L249.939 39.8104L250.81 39.3131L249.939 40.5931L250.81 40.0959L249.939 40.8694L250.81 40.3721L249.939 40.8878L250.81 40.3905L249.939 41.4771L250.81 40.9799L249.939 42.177L250.81 41.6705L249.939 42.5269L250.81 42.0296L249.939 43.2727L250.81 42.7663L249.939 43.3372L250.81 42.84L249.939 44.3501L250.81 43.8437L249.939 44.9118L250.81 44.4054L249.939 44.9487L250.81 44.4514L249.939 45.1512L250.81 44.6448L249.939 45.2157L250.81 44.7092L249.939 45.3446L250.81 44.8474L249.939 45.6393L250.81 45.1328L249.939 45.7314L250.81 45.2341L249.939 46.6246L250.81 46.1273L249.939 47.0942L250.81 46.5969L249.949 48.1255L250.81 47.6283L249.949 48.2176L250.81 47.7204L249.949 49.0003L250.81 48.4939L249.949 49.0648L250.81 48.5583L249.949 49.9027L250.819 49.4055L249.949 50.7499L250.819 50.2526L249.949 50.9985L250.819 50.5013L249.949 51.3484L250.819 50.8512L249.949 51.8273L250.819 51.33L249.949 52.6376L250.819 52.1312L249.949 53.5216L250.819 53.0151L249.949 54.0741L250.819 53.5769L249.949 54.4332L250.819 53.936L249.949 55.1239L250.819 54.6266L249.949 55.3541L250.819 54.8568L249.949 55.7776L250.819 55.2804L249.949 56.4591L250.819 55.9618L249.958 57.1589L250.819 56.6616L249.958 57.6654L250.819 57.1589L249.958 58.1073L250.819 57.6009L249.958 58.531L250.819 58.0337L249.958 59.4886L250.828 58.9914L249.958 60.124L250.828 59.6175L249.958 60.6305L250.828 60.1332L249.958 61.054L250.828 60.5476L249.958 61.6986L250.828 61.2014L249.958 62.4905L250.828 61.9933L249.958 62.8865L250.828 62.3892L249.958 63.1535L250.828 62.6563L249.958 64.1572L250.828 63.66L249.958 64.7742L250.828 64.2769L249.958 65.5753L250.828 65.0688L249.958 66.3212L250.828 65.8147L249.958 66.4225L250.828 65.916L249.958 66.6159L250.828 66.1186L249.967 67.6196L250.828 67.1223L249.967 68.126L250.828 67.6288L249.967 68.7246L250.828 68.2273L249.967 69.673L250.837 69.1758L249.967 69.8203L250.837 69.3231" stroke="#A7A9AC" stroke-linecap="round" stroke-linejoin="round"/>
<path d="M219.536 19.5336L219.999 19.2666L219.536 19.727L220.351 19.2574L219.536 20.5097L221.721 19.2482L219.536 21.5226L220.406 21.0254L219.536 22.4158L220.406 21.9186L219.536 22.7105L220.406 22.2133L219.536 23.7418L220.406 23.2354L219.536 24.2667L220.406 23.7695L219.536 25.1691L220.406 24.6719L219.536 25.9426L220.406 25.4454L219.545 26.9924L220.406 26.4951L219.545 27.904L220.406 27.4067L219.545 28.4197L220.416 27.9224L219.545 28.8893L220.416 28.392L219.545 29.1103L220.416 28.613L219.545 29.5062L220.416 28.9998L219.545 30.0864L220.416 29.5891L219.545 30.7125L220.416 30.2153L219.545 31.6149L220.416 31.1177L219.545 32.3424L220.416 31.8452L219.545 32.7844L220.416 32.2872L219.545 32.9594L220.416 32.4621L219.545 33.5303L220.416 33.033L219.545 34.1196L220.416 33.6224L219.545 34.1565L220.416 33.6592L219.545 34.2854L220.416 33.7789L219.545 34.4419L220.416 33.9447L219.545 35.2062L220.416 34.7089L219.555 36.0902L220.416 35.593L219.555 36.9558L220.416 36.4585L219.555 37.0479L220.416 36.5506L219.555 37.4807L220.425 36.9834L219.555 37.895L220.425 37.3886L219.555 38.4936L220.425 37.9963L219.555 38.9724L220.425 38.4751L219.555 39.8472L220.425 39.3499L219.555 40.8693L220.425 40.3721L219.555 41.4218L220.425 40.9246L219.555 41.652L220.425 41.1548L219.555 41.6704L220.425 41.1732L219.555 41.6981L220.425 41.2008L219.555 41.8362L220.425 41.3389L219.555 42.6742L220.425 42.1769L219.555 43.1622L220.425 42.6649L219.555 43.8068L220.425 43.3095L219.555 44.083L220.425 43.5858L219.555 44.3317L220.425 43.8344L219.564 45.3261L220.425 44.8289L219.564 46.0536L220.434 45.5563L219.564 46.2378L220.434 45.7405L219.564 46.6153L220.434 46.1089L219.564 47.6098L220.434 47.1126L219.564 48.282L220.434 47.7756L219.564 48.7332L220.434 48.236L219.564 48.7609L220.434 48.2636L219.564 48.8806L220.434 48.3833L219.564 49.3686L220.434 48.8714L219.564 49.3962L220.434 48.8898L219.564 50.4368L220.434 49.9395L219.564 50.5565L220.434 50.0592L219.564 51.0169L220.434 50.5196L219.564 51.7904L220.434 51.2931L219.564 52.2692L220.434 51.772L219.564 52.5271L220.434 52.0298L219.564 53.0703L220.434 52.5731L219.564 53.0888L220.434 52.5823L219.573 53.7702L220.434 53.2729L219.573 54.203L220.443 53.7057L219.573 54.3135L220.443 53.8162L219.573 54.7739L220.443 54.2766L219.573 55.6026L220.443 55.1054L219.573 56.192L220.443 55.6947L219.573 57.076L220.443 56.5787L219.573 58.0613L220.443 57.564L219.573 58.7335L220.443 58.2362L219.573 59.0466L220.443 58.5493L219.573 59.7004L220.443 59.2031L219.573 59.7188L220.443 59.2123L219.573 60.6396L220.443 60.1424L219.582 61.5696L220.453 61.0632L219.582 62.426L220.453 61.9288L219.582 63.3745L220.453 62.8772L219.582 64.2124L220.453 63.7152L219.582 64.2769L220.453 63.7704L219.582 65.124L220.453 64.6176L219.582 65.2898L220.453 64.7926L219.582 65.5661L220.453 65.0688L219.582 65.7318L220.453 65.2346L219.582 66.4224L220.453 65.916L219.582 66.9381L220.453 66.4409L219.582 67.5274L220.453 67.0302L219.582 68.5127L220.453 68.0155L219.582 68.7613L220.453 68.2641L219.582 69.01L220.453 68.5035L219.582 69.1573L220.453 68.6601L219.582 69.4888L220.453 68.9823L219.592 70.1794L220.462 69.6822L219.592 70.6214L220.462 70.1242L220.388 71.0082L221.888 70.1426L221.786 71.0082L223.295 70.1426L223.619 70.999L225.128 70.1334L225.35 70.999L226.859 70.1334L225.776 70.999L227.285 70.1334L226.628 70.999L228.137 70.1334L227.554 70.999L229.063 70.1242L228.331 70.9898L229.84 70.1242L229.581 70.9898L231.09 70.1242L231.062 70.9898L232.572 70.1242L231.572 70.9898L233.081 70.1242L232.618 70.9898L234.127 70.115L233.497 70.9806L235.006 70.115L234.516 70.9806L236.025 70.115L234.979 70.9806L236.488 70.115L236.099 70.9806L237.617 70.115L236.599 70.9806L238.108 70.115L236.83 70.9806L238.339 70.115L238.487 70.9713L240.006 70.1058L239.302 70.9713L240.811 70.1058L240.515 70.9713L242.033 70.1058L241.154 70.9713L242.672 70.1058L241.672 70.9713L243.181 70.1058L242.043 70.9713L243.552 70.1058L242.237 70.9713L243.746 70.0966L242.617 70.9713L244.126 70.0966L243.959 70.9622L245.468 70.0966L245.514 70.9622L247.023 70.0966L247.088 70.9622L248.597 70.0966L248.514 70.9622L250.838 69.6269L248.764 70.9622L250.838 69.7743L249.782 70.9529L250.838 70.3544L250.375 70.9529L250.838 70.6859" stroke="#A7A9AC" stroke-linecap="round" stroke-linejoin="round"/>
<path d="M220.869 20.1322L222.415 19.239L222.684 20.1138L224.23 19.2298L223.924 20.1046L225.47 19.2114L225.359 20.0862L226.896 19.2114L225.656 20.0862L226.896 19.3771L226.424 20.0769L226.896 19.8099" stroke="#A7A9AC" stroke-linecap="round" stroke-linejoin="round"/>
<path d="M226.054 10.1779L226.517 9.91089L226.054 10.7581L227.526 9.91089L226.054 11.3105L226.868 10.8409L226.054 11.7065L226.868 11.2369L226.054 12.5169L226.878 12.0472L226.054 13.2995L226.878 12.8299L226.054 13.8244L226.878 13.3548L226.054 14.6716L226.878 14.202L226.054 14.9018L226.878 14.4322L226.054 15.1873L226.878 14.7176L226.054 15.3438L226.878 14.8742L226.054 16.3843L226.887 15.9055L226.054 16.7066L226.887 16.2278L226.054 17.121L226.887 16.6422L226.054 17.3696L226.887 16.8908L226.054 18.4194L226.887 17.9406L226.054 18.6864L226.896 18.2076L226.054 18.9443L226.896 18.4654" stroke="#A7A9AC" stroke-linecap="round" stroke-linejoin="round"/>
<path d="M64.9441 10.1504L65.407 9.88334L64.9441 10.5187L66.0458 9.88334L64.9904 10.7765L66.5458 9.88334L66.6754 10.7765L68.2307 9.88334L68.4159 10.7765L69.9712 9.88334L68.4622 10.7765L70.0175 9.88334L68.6103 10.7765L70.1657 9.88334L69.3324 10.7673L70.8971 9.88334L69.3787 10.7673L70.9341 9.87412L71.0637 10.7673L72.6191 9.87412L72.7394 10.7673L74.304 9.87412L74.2485 10.7673L75.8039 9.87412L75.5724 10.7673L77.1278 9.87412L76.1371 10.7673L77.6925 9.87412L77.0167 10.7673L78.572 9.87412L78.6183 10.7673L80.1737 9.87412L79.2016 10.7581L80.7662 9.86493L81.0162 10.7581L82.5808 9.86493L81.9605 10.7581L83.5251 9.86493L82.0438 10.7581L83.5992 9.86493L83.3955 10.7581L84.9509 9.86493L84.0713 10.7581L85.6267 9.86493L85.4508 10.7581L87.0062 9.86493L86.7932 10.7581L88.3486 9.86493L88.0616 10.7581L89.6169 9.86493L88.1449 10.7581L89.7095 9.86493L89.4966 10.7489L91.052 9.85571L89.8484 10.7489L91.4038 9.85571L91.2556 10.7489L92.811 9.85571L91.3019 10.7489L92.8573 9.85571L91.8296 10.7489L93.385 9.85571L92.3388 10.7489L93.8942 9.85571L93.7183 10.7489L94.2738 10.4266L93.8201 10.7489L94.283 10.4911" stroke="#939598" stroke-linecap="round" stroke-linejoin="round"/>
<path d="M115.04 29.7825L105.994 34.3406H115.04V70.5478H44.8262V34.3406H53.8713L44.8262 29.7825V29.276H53.8713V7.91272H64.9163V10.3161H94.9495V7.91272H105.994V29.276H115.04V29.7825Z" fill="white"/>
<path d="M54.8713 8.34554L56.3434 7.49836L55.399 8.34554L56.8711 7.49836L56.8526 8.33632L58.3246 7.48914L58.6301 8.33632L60.1114 7.47996L59.9077 8.33632L61.3983 7.47074L61.565 8.32711L63.0648 7.47074L62.6204 8.32711L64.1294 7.46152L63.7036 8.31789L65.2126 7.45233L63.861 8.31789L65.3237 7.47996L64.4627 8.71387L65.3423 8.20739L64.4627 8.89802L65.3423 8.39157L64.472 9.39528L65.3515 8.88883L64.4812 9.62548L65.3608 9.11904L64.4998 10.3069L65.37 9.80044L64.6294 10.7765L66.1292 9.91094L65.6663 10.7765L67.1754 9.91094L66.1107 10.7765L67.6197 9.91094L67.2031 10.7673L68.7122 9.90172L68.0734 10.7673L69.5825 9.90172L68.703 10.7673L70.212 9.90172L70.1379 10.7673L71.647 9.90172L71.5544 10.7673L73.0635 9.89253L72.5636 10.7581L74.0726 9.89253L73.6005 10.7581L75.1096 9.89253L75.3966 10.7581L76.9056 9.89253L76.9334 10.7581L78.4425 9.88332L77.7666 10.7489L79.2757 9.88332L77.9518 10.7489L79.4609 9.88332L79.7016 10.7489L81.2106 9.88332L80.0534 10.7489L81.5717 9.88332L80.8866 10.7489L82.3957 9.88332L82.4235 10.7489L83.9325 9.8741L82.7567 10.7489L84.2658 9.8741L83.627 10.7397L85.1453 9.8741L84.8398 10.7397L86.3489 9.8741L85.0528 10.7397L86.5711 9.8741L86.5804 10.7397L88.0987 9.86491L87.0525 10.7397L88.5616 9.86491L87.2932 10.7397L88.8023 9.86491L88.3394 10.7305L89.8485 9.86491L89.3393 10.7305L90.8483 9.86491L90.6169 10.7305L92.1259 9.86491L90.7002 10.7305L92.2185 9.86491L91.9871 10.7305L93.4962 9.85569L93.4313 10.7213L95.3941 9.59786L93.8942 10.7213L95.3941 9.86491L94.9497 10.7213L95.4126 10.4634" stroke="#939598" stroke-linecap="round" stroke-linejoin="round"/>
<path d="M94.4958 7.77453L94.9588 7.50751L94.4958 7.84821L95.0976 7.50751L94.5144 8.59408L96.4215 7.49829L94.5329 9.3952L95.3754 8.90716L94.5421 9.59779L95.3754 9.10975" stroke="#939598" stroke-linecap="round" stroke-linejoin="round"/>
<path d="M95.8296 8.37313L97.3572 7.49833L97.422 8.36391L98.9496 7.48911L98.6163 8.3547L100.144 7.47992L99.681 8.3547L101.199 7.47992L100.246 8.34551L101.764 7.47992L101.875 8.33629L103.384 7.4707L102.347 8.33629L103.856 7.4707L102.579 8.33629L104.088 7.46149L103.792 8.32707L105.31 7.46149L105.134 8.31785L106.402 7.59042L105.532 8.38232L106.402 7.87587L105.532 8.97167L106.402 8.47441L105.532 9.41365L106.402 8.91642L105.532 9.72676L106.402 9.2295L105.532 10.2885L106.402 9.782L105.532 10.9699L106.412 10.4726L105.541 11.3658L106.412 10.8594L105.541 12.3327L106.412 11.8354L105.541 13.3272L106.412 12.83L105.541 13.6863L106.412 13.1891L105.541 13.981L106.421 13.4837L105.551 15.0031L106.421 14.5059L105.551 15.7766L106.421 15.2794L105.551 15.9147L106.421 15.4175L105.551 16.9L106.421 16.3936L105.551 17.3604L106.421 16.854L105.56 18.3641L106.43 17.8577L105.56 18.7141L106.43 18.2168L105.56 19.3126L106.43 18.8062L105.56 20.1782L106.43 19.6717L105.56 20.5926L106.43 20.0861L105.56 21.1082L106.43 20.611L105.56 21.5687L106.439 21.0622L105.569 21.9738L106.439 21.4766L105.569 22.2501L106.439 21.7528L105.569 22.8947L106.439 22.3974L105.569 23.751L106.439 23.2446L105.569 24.8008L106.449 24.2943L105.578 25.6848L106.449 25.1783L105.578 25.961L106.449 25.4546L105.578 26.2004L106.449 25.694L105.578 26.8358L106.449 26.3386L105.578 27.3146L106.449 26.8174L105.578 27.729L106.449 27.2226L105.578 27.9224L106.449 27.4159L105.578 28.6406L106.458 28.1434L105.578 28.6683L106.458 28.171L105.588 29.497L106.68 28.8709L105.588 29.6443L106.93 28.8709L106.523 29.7272L108.032 28.8617L107.421 29.7272L108.93 28.8524L109.282 29.7088L110.791 28.8432L109.458 29.7088L110.976 28.8432L109.874 29.7088L111.392 28.8432L110.383 29.6996L111.892 28.834L111.994 29.6904L113.503 28.8248L112.902 29.6904L114.411 28.8248L113.8 29.6812L115.299 28.8156" stroke="#939598" stroke-linecap="round" stroke-linejoin="round"/>
<path d="M104.754 34.7458L108.226 32.7476L105.939 34.7458L115.457 29.276L106.995 34.7458L108.411 33.9262L107.68 34.7458L109.105 33.9262L108.809 34.7458L110.244 33.917L109.476 34.7458L110.929 33.9078L109.652 34.7458L111.105 33.9078L111.3 34.7458L112.772 33.8986L112.105 34.7458L113.586 33.8894L112.54 34.7458L114.031 33.8894L113.123 34.7458L114.623 33.8894L114.244 34.7458L115.447 34.0551L114.29 34.7458L115.447 34.0735L114.577 35.2246L115.447 34.7273L114.577 35.7863L115.447 35.289L114.577 35.9981L115.447 35.4916L114.577 36.9834L115.447 36.4861L114.577 37.6003L115.447 37.0939L114.577 37.7937L115.447 37.2873L114.577 38.1528L115.447 37.6464L114.577 38.7145L115.447 38.2081L114.577 39.3131L115.447 38.8158L114.586 40.1879L115.457 39.6906L114.586 40.6207L115.457 40.1234L114.586 41.0535L115.457 40.5562L114.586 41.827L115.457 41.3297L114.586 42.5728L115.457 42.0756L114.586 43.5765L115.457 43.0793L114.586 44.4974L115.457 44.0001L114.586 44.6447L115.457 44.1383L114.586 45.5563L115.457 45.0499L114.596 46.4219L115.466 45.9247L114.596 46.4772L115.466 45.9799L114.596 46.8455L115.466 46.3483L114.596 47.444L115.466 46.9468L114.596 47.8216L115.466 47.3151L114.596 48.1347L115.466 47.6374L114.596 48.5306L115.466 48.0334L114.596 48.7332L115.466 48.2359L114.596 48.8529L115.466 48.3464L114.596 49.4515L115.466 48.9542L114.596 50.0408L115.466 49.5435L114.596 50.2157L115.466 49.7093L114.596 50.9893L115.466 50.492L114.596 51.3944L115.466 50.888L114.605 51.818L115.475 51.3207L114.605 52.0298L115.475 51.5325L114.605 52.6191L115.475 52.1127L114.605 52.7296L115.475 52.2324L114.605 53.6136L115.475 53.1164L114.605 54.1293L115.475 53.6228L114.605 54.3319L115.475 53.8346L114.605 54.4608L115.475 53.9635L114.605 54.5805L115.475 54.0832L114.605 55.4092L115.475 54.9028L114.605 55.5474L115.475 55.0409L114.605 56.1735L115.475 55.6763L114.605 56.7905L115.475 56.2932L114.614 57.2878L115.475 56.7905L114.614 57.5548L115.475 57.0575L114.614 58.0705L115.475 57.5732L114.614 58.844L115.484 58.3467L114.614 59.1478L115.484 58.6414L114.614 59.5898L115.484 59.0926L114.614 60.0871L115.484 59.5898L114.614 60.8053L115.484 60.3081L114.614 61.5052L115.484 61.0079L114.614 61.7077L115.484 61.2105L114.614 62.0577L115.484 61.5604L114.614 62.4444L115.484 61.9472L114.614 63.356L115.484 62.8588L114.623 63.8257L115.484 63.3284L114.623 64.5899L115.484 64.0927L114.623 65.566L115.494 65.0688L114.623 65.8423L115.494 65.345L114.623 66.229L115.494 65.7318L114.623 66.8644L115.494 66.3672L114.623 67.1406L115.494 66.6434L114.623 67.4445L115.494 66.9473L114.623 67.8129L115.494 67.3156L114.623 68.218L115.494 67.7208L114.623 68.5311L115.494 68.0339L114.633 69.0744L115.494 68.5771L114.633 69.3875L115.494 68.8903L114.633 69.4427L115.494 68.9455L114.633 69.5348L115.494 69.0376L114.633 69.8203L115.494 69.323" stroke="#939598" stroke-linecap="round" stroke-linejoin="round"/>
<path d="M44.3633 34.2026L44.8262 33.9355L44.3633 34.663L45.6316 33.9355L44.3633 35.1879L46.5667 33.9263L44.3633 35.3812L45.2335 34.8748L44.3633 36.3481L45.2335 35.8509L44.3633 37.2413L45.2335 36.7441L44.3633 38.2266L45.2335 37.7293L44.3725 38.9264L45.2335 38.4292L44.3725 39.1658L45.2335 38.6686L44.3725 39.9578L45.2428 39.4605L44.3725 40.3445L45.2428 39.8473L44.3725 41.0259L45.2428 40.5287L44.3725 41.6889L45.2428 41.1917L44.3725 42.665L45.2428 42.1678L44.3725 43.2452L45.2428 42.7387L44.3725 44.0187L45.2428 43.5122L44.3818 44.5527L45.2428 44.0463L44.3818 44.8106L45.2428 44.3133L44.3818 45.2526L45.2428 44.7553L44.3818 45.6117L45.2521 45.1144L44.3818 46.4312L45.2521 45.934L44.3818 46.6246L45.2521 46.1181L44.3818 47.5915L45.2521 47.0942L44.3818 48.3281L45.2521 47.8217L44.3818 49.2582L45.2521 48.7609L44.3818 49.3042L45.2521 48.7978L44.3818 49.7831L45.2521 49.2858L44.3911 50.3816L45.2521 49.8844L44.3911 50.575L45.2521 50.0685L44.3911 51.0446L45.2613 50.5474L44.3911 51.4037L45.2613 50.9065L44.3911 51.5695L45.2613 51.0722L44.3911 52.2877L45.2613 51.7813L44.3911 52.6008L45.2613 52.1036L44.3911 53.5217L45.2613 53.0244L44.3911 53.6321L45.2613 53.1349L44.3911 54.4609L45.2613 53.9636L44.3911 55.2528L45.2613 54.7556L44.3911 55.8237L45.2613 55.3265L44.3911 56.8274L45.2613 56.3302L44.4003 57.7943L45.2706 57.297L44.4003 58.3376L45.2706 57.8404L44.4003 59.2492L45.2706 58.752L44.4003 59.3413L45.2706 58.8441L44.4003 59.9491L45.2706 59.4518L44.4003 60.078L45.2706 59.5807L44.4003 60.4831L45.2706 59.9859L44.4003 60.8239L45.2706 60.3266L44.4003 60.9159L45.2706 60.4095L44.4003 61.008L45.2706 60.5016L44.4003 61.5145L45.2706 61.008L44.4003 61.9288L45.2706 61.4316L44.4003 62.0854L45.2706 61.5789L44.4096 63.1259L45.2798 62.6287L44.4096 63.439L45.2798 62.9418L44.4096 63.8626L45.2798 63.3561L44.4096 64.6085L45.2798 64.102L44.4096 64.9308L45.2798 64.4335L44.4096 65.5477L45.2798 65.0505L44.4096 65.8977L45.2798 65.4004L44.4096 66.1831L45.2798 65.6766L44.4096 67.0487L45.2798 66.5514L44.4096 67.7946L45.2798 67.2973L44.4096 67.8958L45.2798 67.3986L44.4096 68.8075L45.2891 68.3102L44.4188 69.6086L45.2891 69.1021L44.4188 70.29L45.2891 69.7928L44.4836 71.0083L45.9927 70.1427L45.0391 71.0083L46.5482 70.1427L45.3632 71.0083L46.8722 70.1427L45.8446 71.0083L47.3537 70.1427L46.6315 71.0083L48.1406 70.1427L47.5018 71.0083L49.0109 70.1427L49.3441 71.0083L50.8532 70.1427L50.2329 71.0083L51.742 70.1427L50.8254 71.0083L52.3345 70.1427L51.742 71.0083L53.2511 70.1427L51.9272 71.0083L53.4362 70.1427L53.714 71.0083L55.223 70.1427L53.8991 71.0083L55.4082 70.1427L54.936 70.999L56.4451 70.1335L56.2877 70.999L57.7968 70.1335L57.6672 70.999L59.1762 70.1335L59.0189 70.999L60.5279 70.1335L59.2318 70.999L60.7409 70.1335L61.0464 70.999L62.5462 70.1335L61.463 70.999L62.9721 70.1335L62.4814 70.999L63.9905 70.1335L63.0924 70.999L64.6015 70.1335L63.6016 70.999L65.1107 70.1335L64.4071 70.999L65.9161 70.1335L65.4069 70.999L66.916 70.1335L66.305 70.9899L67.8141 70.1243L67.6196 70.9899L69.1287 70.1243L68.7954 70.9899L70.3045 70.1243L69.4713 70.9899L70.9803 70.1243L69.7768 70.9899L71.2858 70.1243L70.4804 70.9899L71.9802 70.1243L70.8044 70.9899L72.3135 70.1243L72.5172 70.9899L74.0263 70.1243L74.2392 70.9899L75.7482 70.1243L74.6003 70.9899L76.1093 70.1243L76.1278 70.9899L77.6369 70.1243L77.9517 70.9806L79.4608 70.1151L78.7757 70.9806L80.2847 70.1151L79.7755 70.9806L81.2846 70.1151L80.581 70.9806L82.0901 70.1151L81.7105 70.9806L83.2195 70.1151L82.6733 70.9806L84.1824 70.1151L83.2844 70.9806L84.7934 70.1151L83.3862 70.9806L84.8953 70.1151L85.1175 70.9806L86.6265 70.1151L85.6544 70.9806L87.1635 70.1151L86.7006 70.9806L88.2097 70.1151L87.719 70.9806L89.2281 70.1058L88.08 70.9806L89.5891 70.1058L89.4965 70.9714L91.0056 70.1058L89.978 70.9714L91.487 70.1058L91.2463 70.9714L92.7554 70.1058L91.7555 70.9714L93.2646 70.1058L92.0333 70.9714L93.5423 70.1058L93.0979 70.9714L94.607 70.1058L94.4126 70.9714L95.9217 70.1058L96.0143 70.9714L97.5233 70.1058L96.2179 70.9714L97.727 70.1058L96.4216 70.9714L97.9307 70.1058L97.5511 70.9714L99.0509 70.1058L98.5047 70.9714L100.014 70.1058L99.0139 70.9714L100.523 70.1058L99.6712 70.9714L101.18 70.0966L101.078 70.9622L102.597 70.0966L101.995 70.9622L103.504 70.0966L102.689 70.9622L104.198 70.0966L104.467 70.9622L105.976 70.0966L105.346 70.9622L106.855 70.0966L107.031 70.9622L108.54 70.0966L107.18 70.9622L108.679 70.0966L107.365 70.9622L108.874 70.0966L109.013 70.9622L110.522 70.0966L109.096 70.9622L110.605 70.0966L109.179 70.9622L110.698 70.0966L109.846 70.9622L111.355 70.0966L111.383 70.9622L112.892 70.0874L111.522 70.9622L113.031 70.0874L112.123 70.953L113.632 70.0874L113.151 70.953L115.493 69.6086L113.494 70.953L115.503 69.802L114.327 70.953L115.503 70.2808L115.04 70.953L115.503 70.686" stroke="#939598" stroke-linecap="round" stroke-linejoin="round"/>
<path d="M45.6968 34.8011L47.2151 33.9263L46.1134 34.7919L47.6317 33.9263L46.9188 34.7919L48.4279 33.9263L48.7334 34.7827L50.2332 33.9171L49.1593 34.7827L50.6591 33.9171L49.7796 34.7735L51.2794 33.9171L51.2239 34.7642L53.2884 33.5856L52.0293 34.7642L53.705 33.7974L52.0478 34.7642L53.7236 33.8066L52.5385 34.7642L53.9735 33.9355L53.3069 34.755L54.3809 34.1381L54.5938 34.7458L55.0567 34.4788L55.0104 34.7458L55.2789 34.5893L55.1123 34.7458L55.3345 34.6169" stroke="#939598" stroke-linecap="round" stroke-linejoin="round"/>
<path d="M44.3726 29.1287L44.8262 28.8709L44.3726 29.1472L44.854 28.8709L44.3911 29.5155L45.5298 28.8617L44.6688 30.1785L46.9741 28.8525L45.1873 30.4455L46.0575 29.9483L46.002 30.8507L46.863 30.3534L46.613 31.1546L47.474 30.6573L46.8074 31.2558L47.6684 30.7586L47.5944 31.6426L48.4461 31.1546L48.3535 32.0293L49.2145 31.5321L48.8072 32.2504L49.6589 31.7623L49.5293 32.6095L50.3811 32.1214L50.344 33.0239L51.1865 32.5266L50.8995 33.3001L51.742 32.812L51.4457 33.5764L52.2882 33.0883L51.7976 33.7421L52.64 33.2633" stroke="#939598" stroke-linecap="round" stroke-linejoin="round"/>
<path d="M46.2058 29.6996L47.6871 28.8524L47.6779 29.6996L49.1684 28.8432L48.2148 29.6996L49.7146 28.834L49.298 29.6904L50.7886 28.834L50.8441 29.6904L52.3625 28.8248L51.4274 29.6904L52.9365 28.8156L52.2791 29.6812L54.3067 28.5209L53.8437 29.6812L54.3067 29.4141" stroke="#939598" stroke-linecap="round" stroke-linejoin="round"/>
<path d="M53.4641 7.77453L53.9363 7.50751L53.4641 8.17051L54.6214 7.50751L53.4641 8.32703L54.9084 7.50751L53.4641 8.52962L55.2509 7.50751L53.4641 9.01766L54.2788 8.54802L53.4641 9.31233L54.2788 8.85192L53.4641 9.46886L54.2788 8.99925L53.4641 10.003L54.2881 9.53332L53.4641 10.1687L54.2881 9.69907L53.4641 10.5002L54.2881 10.0398L53.4641 11.1356L54.2881 10.666L53.4641 12.0564L54.2881 11.5776L53.4641 12.7194L54.2881 12.2498L53.4641 13.2719L54.2881 12.8023L53.4641 13.8889L54.2881 13.41L53.4641 14.3585L54.2881 13.8889L53.4641 14.7176L54.2881 14.248L53.4641 15.307L54.2881 14.8373L53.4641 15.9423L54.2881 15.4727L53.4641 16.3015L54.2881 15.8318L53.4641 16.3383L54.2881 15.8687L53.4641 16.5409L54.2881 16.062L53.4641 16.946L54.2881 16.4764L53.4641 17.0749L54.2881 16.5961L53.4641 17.3604L54.2973 16.8908L53.4641 17.9313L54.2973 17.4617L53.4641 18.1615L54.2973 17.6919L53.4641 18.8614L54.2973 18.3825L53.4641 19.6072L54.2973 19.1284L53.4641 19.6349L54.2973 19.156L53.4641 20.3623L54.2973 19.8927L53.4641 21.2187L54.2973 20.7491L53.4641 22.0659L54.2973 21.587L53.4641 22.158L54.2973 21.6791L53.4641 22.5815L54.2973 22.1027L53.4641 23.4563L54.2973 22.9775L53.4641 23.7141L54.3066 23.2353L53.4641 24.3587L54.3066 23.8799L53.4641 24.681L54.3066 24.2022L53.4641 24.8928L54.3066 24.414L53.4641 25.5558L54.3066 25.0678L53.4641 25.8689L54.3066 25.3901L53.4641 26.2833L54.3066 25.8045L53.4641 27.1396L54.3066 26.6608L53.4641 27.7474L54.3066 27.2686L53.4641 28.4933L54.3066 28.0144L53.4641 28.5485L54.3066 28.0697" stroke="#939598" stroke-linecap="round" stroke-linejoin="round"/>
<path d="M172.014 25.6756V70.5478H125.696V25.6756H129.797V20.8781H167.922V25.6756H172.014Z" fill="white"/>
<path d="M130.788 21.3109L132.25 20.4729L132.436 21.3109L133.898 20.4729L133.741 21.3109L135.213 20.4637L135.583 21.3109L137.046 20.4637L135.981 21.3109L137.444 20.4637L136.296 21.3017L137.768 20.4637L137.879 21.3017L139.351 20.4637L139.666 21.3017L141.138 20.4545L139.907 21.3017L141.379 20.4545L141.296 21.3017L142.768 20.4545L142.999 21.3017L144.48 20.4545L144.804 21.3017L146.286 20.4545L145.369 21.3017L146.85 20.4545L145.712 21.3017L147.193 20.4545L147.202 21.3017L148.684 20.4453L148.943 21.2925L150.424 20.4453L149.026 21.2925L150.507 20.4453L150.73 21.2925L152.22 20.4453L151.035 21.2925L152.516 20.4453L152.535 21.2925L154.025 20.4361L153.674 21.2925L155.164 20.4361L154.896 21.2925L156.386 20.4361L156.155 21.2925L157.655 20.4361L156.608 21.2925L158.099 20.4361L157.71 21.2925L159.201 20.4361L158.21 21.2925L159.71 20.4269L159.136 21.2925L160.636 20.4269L159.349 21.2925L160.849 20.4269L159.802 21.2925L161.302 20.4269L161.413 21.2832L162.913 20.4269L163.219 21.2832L164.719 20.4269L163.385 21.2832L164.885 20.4269L163.728 21.2832L165.228 20.4269L164.774 21.2832L166.283 20.4177L164.867 21.2832L166.376 20.4177L165.922 21.2832L167.431 20.4177L167.459 21.4398L168.329 20.9333L167.459 21.7713L168.338 21.2648L167.459 21.9647L168.338 21.4582L167.468 22.2409L168.338 21.7437L167.477 23.0328L168.348 22.5264L167.477 23.6498L168.357 23.1525L167.487 23.9168L168.357 23.4104L167.496 24.6074L168.366 24.1102L167.496 25.2336L168.375 24.7272L167.505 25.4546L168.375 24.9482L167.505 25.7861L168.403 25.2704L168.283 26.1268L169.801 25.252L169.718 26.1084L171.246 25.2336L169.792 26.1084L171.31 25.2336L170.94 26.09L172.421 25.2336L171.246 26.0808L172.421 25.4086L171.551 26.4675L172.421 25.9611L171.551 27.3884L172.421 26.8911L171.56 28.2447L172.431 27.7475L171.56 28.4105L172.431 27.904L171.56 29.0275L172.431 28.5302L171.56 29.3958L172.431 28.8985L171.56 30.1969L172.431 29.6996L171.56 30.7863L172.431 30.289L171.56 31.7807L172.431 31.2743L171.56 32.8305L172.431 32.324L171.56 33.6869L172.431 33.1804L171.56 33.7881L172.431 33.2909L171.56 34.0092L172.431 33.5119L171.56 34.4511L172.44 33.9447L171.57 35.4364L172.44 34.93L171.57 35.7772L172.44 35.2799L171.57 35.9245L172.44 35.4272L171.57 36.698L172.44 36.1915L171.57 37.5267L172.44 37.0203L171.57 37.9503L172.44 37.4531L171.57 38.3463L172.44 37.849L171.57 38.4752L172.44 37.978L171.57 39.3131L172.44 38.8159L171.57 39.4329L172.44 38.9356L171.57 39.792L172.44 39.2947L171.57 40.5747L172.44 40.0775L171.57 41.1732L172.44 40.676L171.57 41.4126L172.44 40.9154L171.57 41.4771L172.44 40.9707L171.579 42.3151L172.449 41.8178L171.579 42.9689L172.449 42.4716L171.579 43.7516L172.449 43.2543L171.579 44.7185L172.449 44.2212L171.579 44.7737L172.449 44.2764L171.579 45.5472L172.449 45.0499L171.579 46.5877L172.449 46.0905L171.579 46.9285L172.449 46.4312L171.579 47.4901L172.449 46.9929L171.579 48.4662L172.449 47.969L171.579 48.632L172.449 48.1255L171.579 49.5712L172.449 49.074L171.588 50.4184L172.458 49.9212L171.588 50.8328L172.458 50.3355L171.588 51.109L172.458 50.6118L171.588 51.7076L172.458 51.2011L171.588 52.1127L172.458 51.6155L171.588 52.5087L172.458 52.0022L171.588 52.6837L172.458 52.1864L171.588 53.6229L172.458 53.1256L171.588 54.5714L172.458 54.0741L171.588 54.8844L172.458 54.3872L171.588 55.4001L172.458 54.8937L171.588 55.5382L172.458 55.041L171.588 55.9802L172.458 55.483L171.588 56.1276L172.458 55.6303L171.588 56.2933L172.458 55.7961L171.597 56.7353L172.458 56.2289L171.597 57.2694L172.468 56.7722L171.597 57.693L172.468 57.1957L171.597 58.2455L172.468 57.7482L171.597 58.5954L172.468 58.0982L171.597 59.286L172.468 58.7888L171.597 59.9398L172.468 59.4426L171.597 60.5291L172.468 60.0319L171.597 61.1185L172.468 60.6212L171.597 61.5421L172.468 61.0448L171.597 62.334L172.468 61.8367L171.597 62.5458L172.468 62.0485L171.597 63.3101L172.468 62.8128L171.607 64.2585L172.468 63.7521L171.607 64.7742L172.468 64.2769L171.607 65.1333L172.477 64.6361L171.607 65.1517L172.477 64.6545L171.607 65.4372L172.477 64.9399L171.607 66.1923L172.477 65.695L171.607 66.8276L172.477 66.3304L171.607 67.8129L172.477 67.3157L171.607 68.2549L172.477 67.7577L171.607 68.4575L172.477 67.9511L171.607 68.6785L172.477 68.1813L171.607 69.2678L172.477 68.7706L171.607 69.8203L172.477 69.3231" stroke="#939598" stroke-linecap="round" stroke-linejoin="round"/>
<path d="M125.233 25.5374L125.705 25.2612L125.233 26.2557L126.992 25.252L125.233 26.9279L126.103 26.4306L125.233 27.775L126.103 27.2778L125.233 28.3275L126.103 27.8303L125.242 29.0274L126.103 28.5301L125.242 29.764L126.103 29.2668L125.242 30.5467L126.112 30.0403L125.242 31.5136L126.112 31.0072L125.242 31.7899L126.112 31.2926L125.242 32.8212L126.112 32.3239L125.242 32.8488L126.112 32.3424L125.242 33.8065L126.112 33.3092L125.242 34.3406L126.112 33.8341L125.242 35.1969L126.112 34.6997L125.242 35.7126L126.112 35.2154L125.251 36.3572L126.112 35.8599L125.251 36.9834L126.112 36.4769L125.251 37.3977L126.121 36.9005L125.251 38.2633L126.121 37.7661L125.251 39.1842L126.121 38.6777L125.251 39.4604L126.121 38.9632L125.251 40.28L126.121 39.7827L125.251 40.8416L126.121 40.3444L125.251 40.9245L126.121 40.4181L125.251 41.5231L126.121 41.0258L125.251 41.7901L126.121 41.2929L125.251 42.5636L126.121 42.0664L125.251 43.1529L126.121 42.6465L125.251 43.3463L126.121 42.8491L125.26 43.8344L126.121 43.3279L125.26 44.2671L126.121 43.7699L125.26 45.1235L126.131 44.6263L125.26 45.6852L126.131 45.1788L125.26 46.0536L126.131 45.5563L125.26 46.3943L126.131 45.8878L125.26 46.8823L126.131 46.3851L125.26 47.6098L126.131 47.1125L125.26 48.1807L126.131 47.6834L125.26 48.3004L126.131 47.8031L125.26 48.4017L126.131 47.9044L125.26 48.9818L126.131 48.4846L125.26 49.9855L126.131 49.4883L125.26 50.0039L126.131 49.4975L125.26 50.8327L126.131 50.3354L125.26 51.8088L126.131 51.3115L125.27 52.3337L126.131 51.8364L125.27 52.8769L126.14 52.3797L125.27 53.6504L126.14 53.1532L125.27 53.9543L126.14 53.4571L125.27 54.5897L126.14 54.0924L125.27 54.9672L126.14 54.47L125.27 55.5566L126.14 55.0593L125.27 56.3577L126.14 55.8604L125.27 56.6984L126.14 56.2011L125.27 57.1404L126.14 56.6431L125.27 57.8771L126.14 57.3798L125.27 57.9599L126.14 57.4627L125.27 58.8716L126.14 58.3743L125.279 59.553L126.149 59.0557L125.279 60.3081L126.149 59.8016L125.279 60.4002L126.149 59.9029L125.279 60.6488L126.149 60.1515L125.279 61.4591L126.149 60.9619L125.279 62.1037L126.149 61.5972L125.279 62.6193L126.149 62.1221L125.279 63.5862L126.149 63.089L125.279 64.4886L126.149 63.9822L125.279 64.5992L126.149 64.1019L125.279 65.1701L126.149 64.6636L125.279 65.3634L126.149 64.857L125.279 65.7686L126.149 65.2622L125.279 65.9067L126.149 65.4095L125.279 66.1093L126.149 65.612L125.279 66.1277L126.149 65.6305L125.279 66.2014L126.149 65.7041L125.279 66.45L126.158 65.9528L125.288 67.0578L126.158 66.5605L125.288 67.3248L126.158 66.8276L125.288 68.3561L126.158 67.8589L125.288 68.6048L126.158 68.1075L125.288 68.8534L126.158 68.3561L125.288 69.7558L126.158 69.2586L125.288 69.9584L126.158 69.4519L125.288 70.9897L126.76 70.1426L126.992 71.0081L128.501 70.1426L128.797 71.0081L130.306 70.1426L129.88 71.0081L131.389 70.1426L130.445 71.0081L131.954 70.1426L131.723 70.9989L133.232 70.1333L133.158 70.9989L134.667 70.1333L133.204 70.9989L134.713 70.1333L133.537 70.9989L135.046 70.1333L134.454 70.9989L135.963 70.1333L135.361 70.9989L136.87 70.1333L136.083 70.9989L137.592 70.1333L136.37 70.9989L137.879 70.1333L137.639 70.9989L139.148 70.1333L139.277 70.9897L140.786 70.1242L140.823 70.9897L142.332 70.1242L140.888 70.9897L142.397 70.1242L141.638 70.9897L143.147 70.1242L142.638 70.9897L144.147 70.1242L144.203 70.9897L145.712 70.1242L145.878 70.9897L147.387 70.1242L147.313 70.9805L148.822 70.1149L147.341 70.9805L148.85 70.1149L147.628 70.9805L149.146 70.1149L148.47 70.9805L149.98 70.1149L149.841 70.9805L151.35 70.1149L150.628 70.9805L152.137 70.1149L151.211 70.9805L152.72 70.1149L152.563 70.9805L154.072 70.1149L153.924 70.9805L155.433 70.1057L154.933 70.9713L156.442 70.1057L154.988 70.9713L156.497 70.1057L155.433 70.9713L156.942 70.1057L156.247 70.9713L157.756 70.1057L157.664 70.9713L159.182 70.1057L159.293 70.9713L160.802 70.1057L160.247 70.9713L161.765 70.1057L161.497 70.9713L163.015 70.0965L161.858 70.9713L163.367 70.0965L163.034 70.9621L164.543 70.0965L163.311 70.9621L164.82 70.0965L164.469 70.9621L165.978 70.0965L164.793 70.9621L166.302 70.0965L166.191 70.9621L167.7 70.0965L166.774 70.9621L168.283 70.0965L167.866 70.9621L169.385 70.0965L168.848 70.9621L170.357 70.0873L169.412 70.9621L170.921 70.0873L170.931 70.9529L172.477 70.0689L171.532 70.9529L172.477 70.4096L172.014 70.9529L172.477 70.6858" stroke="#939598" stroke-linecap="round" stroke-linejoin="round"/>
<path d="M126.575 26.1268L128.14 25.2336L127.464 26.1176L129.02 25.2244L128.538 26.1083L130.223 25.1323L129.677 26.0899L130.232 25.7676L129.76 26.0899L130.232 25.8137" stroke="#939598" stroke-linecap="round" stroke-linejoin="round"/>
<path d="M129.39 20.7399L129.853 20.4728L129.39 20.7859L129.936 20.4728L129.39 21.2463L130.733 20.4728L129.39 21.4674L131.121 20.4728L129.39 21.937L130.205 21.4674L129.39 22.0659L130.205 21.5963L129.39 22.3053L130.205 21.8357L129.39 22.3513L130.205 21.8817L129.39 22.646L130.205 22.1672L129.39 23.4932L130.214 23.0235L129.39 23.6221L130.214 23.1432L129.39 23.7786L130.214 23.309L129.39 24.5429L130.214 24.0641L129.39 24.9481L130.223 24.4693" stroke="#939598" stroke-linecap="round" stroke-linejoin="round"/>
<path d="M81.6458 28.1526L87.7005 34.1749V39.7459" fill="white"/>
<path d="M81.3403 28.4934L82.1458 28.033L81.7107 28.8709L82.5161 28.4013L82.618 29.7641L83.4234 29.3037L83.303 30.4363L84.0992 29.9851L84.2751 31.4032L85.0713 30.9428L85.1547 32.2688L85.9416 31.8084L85.5343 32.6463L86.3304 32.1951L86.4045 33.5027L87.1914 33.0515L87.0156 34.1105L87.8025 33.6593L87.2563 35.0405L88.1358 34.534L87.2563 35.7864L88.1358 35.2799L87.2563 36.6243L88.145 36.1179L87.2563 37.4531L88.145 36.9466L87.2563 38.4476L88.145 37.9319L87.2563 39.0645L88.1543 38.5581L87.6729 39.7275L88.1543 39.4513" stroke="#808285" stroke-linecap="round" stroke-linejoin="round"/>
<path d="M89.4409 39.2947L95.8475 44.6724V52.5547" fill="white"/>
<path d="M89.3115 39.5065L89.9318 39.1381L90.2281 40.5562L91.0613 40.0774L91.1169 41.2929L91.9408 40.814L91.9593 41.9927L92.7741 41.5231L92.4222 42.3795L93.2462 41.9098L93.1629 42.9964L93.9776 42.5268L93.8017 43.5305L94.6164 43.0609L94.4313 44.0462L95.246 43.5858L95.0238 44.5434L95.8385 44.083L95.4034 45.8878L96.2829 45.3814L95.4034 46.5048L96.2921 45.9891L95.4034 47.6098L96.2921 47.1033L95.4034 48.3188L96.2921 47.8032L95.4034 49.3226L96.3014 48.8069L95.4126 50.2618L96.3014 49.7553L95.4126 51.597L96.3014 51.0905L95.5978 52.5455L96.3106 52.1403" stroke="#808285" stroke-linecap="round" stroke-linejoin="round"/>
<path d="M97.2458 52.2324L107.68 57.9968V70.732H97.2458" fill="white"/>
<path d="M97.2549 70.5662L97.7085 70.2992L97.9585 71.1924L99.5231 70.2992L100.375 71.1831L101.939 70.2899L101.773 71.1831L103.337 70.2807L103.68 71.1831L105.245 70.2807L105.883 71.1739L108.133 69.8755L107.67 71.1647L108.133 70.8977" stroke="#808285" stroke-linecap="round" stroke-linejoin="round"/>
<path d="M97.2642 52.2601L97.7178 51.993L97.5327 52.9139L98.4399 52.389L98.6992 53.5493L99.5972 53.0336L99.2176 53.8439L100.116 53.319L100.477 54.5345L101.375 54.0189L101.116 54.8844L102.014 54.3688L102.291 55.529L103.189 55.0134V56.0263L104.087 55.5106L103.828 56.3762L104.726 55.8605L105.004 57.03L105.902 56.5143L106.17 57.6654L107.059 57.1497L107.226 58.356L108.115 57.8495L107.226 59.5254L108.115 59.019L107.226 60.1608L108.115 59.6452L107.226 61.3395L108.115 60.8238L107.235 62.8865L108.124 62.38L107.235 64.4703L108.124 63.9639L107.235 65.6674L108.124 65.1609L107.235 66.6527L108.124 66.137L107.235 67.2881L108.133 66.7724L107.235 68.1629L108.133 67.6472L107.235 68.7798L108.133 68.2734L107.235 69.5441L108.133 69.0285" stroke="#808285" stroke-linecap="round" stroke-linejoin="round"/>
<path d="M97.2458 52.2324V70.7319H-11.5833V57.9968L-9.77792 56.505L1.22071 57.9968V45.4643L3.3223 44.3685L13.5247 46.1641V32.9317L17.7279 31.7346L29.0135 33.9446V30.648L30.7355 29.9482L46.6317 33.033L66.5366 26.1636V32.149L70.0362 31.219L81.6459 28.1526V41.2837L87.7007 39.7459L89.4412 39.2947V54.0188L95.8478 52.5546L97.2458 52.2324Z" fill="white"/>
<path d="M15.1079 32.9133L17.8483 31.3479L18.2557 32.2595L19.3481 31.6334L20.1351 32.6279L21.2368 31.9925L21.2553 32.8489L22.3663 32.2043L23.2458 33.2356L24.3753 32.5818L24.1531 33.4106L25.2918 32.7568L25.7177 33.7144L26.8657 33.0607L27.5323 34.0736L29.458 32.9686L29.1432 34.3867L29.4765 34.1933" stroke="#808285" stroke-linecap="round" stroke-linejoin="round"/>
<path d="M28.5691 30.6481L30.1893 29.7272L28.5784 31.5689L29.4208 31.0901L28.5969 32.9225L29.4486 32.4437" stroke="#808285" stroke-linecap="round" stroke-linejoin="round"/>
<path d="M30.856 30.3902L31.9392 29.7641L31.7632 30.5652L32.8557 29.9482L33.4482 30.8967L34.5407 30.2705L35.4109 31.2742L36.5034 30.6481L36.883 31.5597L37.9662 30.9335L37.7532 31.7254L38.8457 31.0993L38.8827 31.9464L39.9659 31.3203L40.0678 32.1766L41.151 31.5505L41.2158 32.3977L42.299 31.7715L43.1507 32.766L44.2339 32.149L45.2245 33.1712L46.3077 32.545L46.0392 33.3277L48.3445 32.0017L49.3629 32.5266L53.2513 30.2982L53.4365 31.1177L57.3804 28.8524L57.2508 29.8009L61.2503 27.508L63.0556 27.7935L66.9533 25.5651L66.0645 27.462L66.9626 26.9463L66.0738 28.0329L66.9718 27.5172L66.083 28.9445L66.9811 28.4381L66.1016 30.381L66.9996 29.8654L66.1201 31.8452L67.0181 31.3387L66.5274 32.6371L69.4993 30.9335L71.3046 31.3571L74.2765 29.6536L73.2766 30.823L76.2484 29.1195L76.4151 29.9851L79.3777 28.2723L78.7111 29.3589L81.6829 27.6553L80.5627 28.8617L82.0533 28.0053L81.1737 29.7088L82.0625 29.1931L81.1737 30.3626L82.0625 29.8561L81.183 31.2742L82.0718 30.7586L81.183 31.8359L82.0718 31.3203L81.1923 32.8857L82.081 32.3792L81.1923 33.871L82.081 33.3645L81.2015 34.58L82.0903 34.0644L81.2015 35.7126L82.0903 35.2062L81.2108 36.5967L82.0996 36.0902L81.2108 37.1768L82.0996 36.6703L81.22 38.5672L82.1088 38.0516L81.22 39.4881L82.1088 38.9724L81.2293 40.7496L82.1181 40.2431L81.8774 41.7073L84.7844 40.0406L84.4048 41.0443L87.3026 39.3776L86.1639 40.5747L89.0709 38.9079L88.9691 40.105L89.8578 39.5985L88.9783 40.9245L89.8578 40.4181L88.9783 42.361L89.8671 41.8546L88.9876 43.0333L89.8671 42.5176L88.9876 44.4514L89.8764 43.9449L88.9969 45.9247L89.8856 45.409L89.0061 47.2507L89.8949 46.7442L89.0061 47.9689L89.8949 47.4625L89.0154 49.0371L89.8949 48.5306L89.0154 49.6448L89.9041 49.1292L89.0154 50.271L89.9041 49.7553L89.0246 51.7075L89.9134 51.201L89.0339 52.7665L89.9134 52.2508L89.0339 53.9359L89.9227 53.4203L89.0339 54.4884L91.3577 53.1532L91.8298 53.9359L94.4869 52.4073L95.8108 52.9875L97.6532 51.9285L96.7737 53.6044L97.6624 53.098L96.7829 55.0686L97.6624 54.5621L96.7829 55.9249L97.6624 55.4185L96.7922 56.9471L97.6717 56.4406L96.7922 58.3283L97.6717 57.8218L96.8014 59.8385L97.6809 59.332L96.8014 60.437L97.6809 59.9398L96.8014 61.1L97.6809 60.5936L96.8107 62.205L97.6809 61.7078L96.8107 63.1903L97.6902 62.6838L96.8199 64.59L97.6902 64.0927L96.8199 65.5016L97.6902 65.0044L96.8292 66.9473L97.6995 66.45L96.8292 67.905L97.6995 67.3985L96.8385 68.7706L97.6995 68.2733L96.8385 69.4612L97.7087 68.9639L96.8385 70.0137L97.7087 69.5072" stroke="#808285" stroke-linecap="round" stroke-linejoin="round"/>
<path d="M-10.9353 56.9195L-9.5466 56.1276L-12 59.0742L-11.1668 58.5954L-12 60.2897L-11.1668 59.8109L-12 61.5881L-11.1575 61.1093L-12 63.043L-11.1483 62.555L-12 64.2309L-11.1483 63.7428L-12 64.9215L-11.139 64.4335L-11.9907 65.5845L-11.139 65.0965L-11.9907 66.2383L-11.139 65.7503L-11.9907 67.2052L-11.1297 66.7171L-11.9907 67.7853L-11.1297 67.2881L-11.9907 68.4575L-11.1297 67.9603L-11.9907 69.1389L-11.1205 68.6417L-11.9907 70.4097L-11.1205 69.9124L-11.8241 71.1924L-10.315 70.3268L-10.3521 71.1924L-8.84299 70.3268L-8.72263 71.1924L-7.21356 70.3268L-6.50069 71.1924L-4.99162 70.3268L-4.45465 71.1924L-2.94558 70.3268L-1.93644 71.1924L-0.436632 70.3268L-0.751407 71.1924L0.757664 70.3268L0.304016 71.1924L1.81309 70.3268L3.01664 71.1832L4.51646 70.3176L4.59052 71.1832L6.09959 70.3176L7.14576 71.1832L8.64556 70.3176L8.92331 71.1832L10.4324 70.3176L11.2934 71.1832L12.8025 70.3176L12.6728 71.1832L14.1727 70.3176L14.3856 71.1832L15.8947 70.3176L16.552 71.1832L18.0611 70.3176L18.4129 71.1832L19.9219 70.3176L20.8755 71.1832L22.3753 70.3176L21.8939 71.174L23.403 70.3084L23.0419 71.174L24.551 70.3084L25.5972 71.174L27.1062 70.3084L26.6804 71.174L28.1894 70.3084L28.5968 71.174L30.1058 70.3084L29.8559 71.174L31.365 70.3084L32.1241 71.174L33.6332 70.3084L34.0591 71.174L35.5681 70.3084L35.1608 71.174L36.6606 70.3084L36.4384 71.174L37.9475 70.3084L38.6974 71.174L40.2064 70.3084L41.3359 71.1648L42.845 70.2992L43.1227 71.1648L44.6318 70.2992L45.1132 71.1648L46.6223 70.2992L46.613 71.1648L48.1221 70.2992L48.6683 71.1648L50.1774 70.2992L51.1866 71.1648L52.6956 70.2992L53.964 71.1648L55.4731 70.2992L55.2231 71.1648L56.7322 70.2992L57.4543 71.1648L58.9634 70.29L58.5467 71.1556L60.0558 70.29L61.2871 71.1556L62.7962 70.29L62.8981 71.1556L64.4071 70.29L65.2311 71.1556L66.7402 70.29L67.4808 71.1556L68.9899 70.29L69.7953 71.1556L71.3044 70.29L71.8321 71.1556L73.3412 70.29L74.3225 71.1556L75.8316 70.2808L75.9335 71.1556L77.4425 70.2808L78.6739 71.1463L80.1737 70.2808L80.9514 71.1463L82.4604 70.2808L82.1271 71.1463L83.6362 70.2808L83.4233 71.1463L84.9231 70.2808L86.2007 71.1463L87.7098 70.2808L87.2191 71.1463L88.7282 70.2808L89.3484 71.1463L90.8575 70.2808L91.2278 71.1463L92.7369 70.2808L92.598 71.1371L94.0979 70.2716L93.9127 71.1371L95.4218 70.2716L95.4681 71.1371L97.7085 69.8572L97.2456 71.1371L97.7085 70.8701" stroke="#808285" stroke-linecap="round" stroke-linejoin="round"/>
<path d="M-9.29639 57.0023L-8.11135 56.3209L-7.45402 57.2509L-6.24121 56.5603L-5.83385 57.4627L-4.62104 56.7721L-4.29701 57.6653L-3.07494 56.9655L-3.28788 57.8034L-2.05655 57.0944L-2.38058 57.9323L-1.14 57.2141L-0.130862 58.227L1.69298 57.1773L1.32266 58.4204L1.69298 58.2086" stroke="#808285" stroke-linecap="round" stroke-linejoin="round"/>
<path d="M0.785645 45.5011L3.44272 43.9817L0.794905 46.5877L1.63739 46.0996L0.794905 47.6466L1.63739 47.1678L0.794905 48.5306L1.64665 48.0426L0.794905 49.5712L1.64665 49.0831L0.804161 50.7314L1.65591 50.2342L0.804161 52.1495L1.66517 51.6522L0.804161 53.3834L1.66517 52.8862L0.813421 54.6357L1.67442 54.1477L0.813421 55.6394L1.67442 55.1422L0.813421 56.3117L1.68368 55.8144L0.813421 57.0759L1.68368 56.5787" stroke="#808285" stroke-linecap="round" stroke-linejoin="round"/>
<path d="M3.64648 44.8565L4.77597 44.2027L4.79449 45.0499L5.93323 44.3961L6.1184 45.2801L7.2664 44.6263L7.01644 45.4366L8.16444 44.7736L8.84028 45.7589L10.0068 45.0867L9.66426 45.8971L10.84 45.2248L11.34 46.1917L12.525 45.5103L12.6639 46.4219L13.9693 45.676L13.6175 46.5877L13.9693 46.3851" stroke="#808285" stroke-linecap="round" stroke-linejoin="round"/>
<path d="M13.1174 32.8949L14.0432 32.3608L13.1174 33.5211L16.2282 31.7438L13.1174 34.4419L13.9414 33.9723L13.1174 35.9613L13.9414 35.4916L13.1174 36.5966L13.9414 36.127L13.1174 37.7292L13.9414 37.2596L13.1174 38.8159L13.9507 38.337L13.1174 39.5617L13.9507 39.0829L13.1174 40.3628L13.9507 39.884L13.1174 41.385L13.9599 40.9061L13.1174 42.1677L13.9599 41.6888L13.1174 43.024L13.9599 42.5452L13.1174 44.1383L13.9599 43.6594L13.1174 45.3446L13.9599 44.8657" stroke="#808285" stroke-linecap="round" stroke-linejoin="round"/>
<path d="M66.5366 26.1636L70.0362 27.7566V31.219" fill="white"/>
<path d="M66.583 26.1452L67.0089 25.8966L66.9441 26.8451L67.8977 26.3018L67.5921 27.1397L68.5365 26.5872L69.1382 27.8211L70.0826 27.2779L69.5919 28.7235L70.4807 28.2079L69.5919 29.3774L70.4899 28.8617L69.6011 30.1785L70.4899 29.6628L70.0178 31.2098L70.4992 30.9336" stroke="#808285" stroke-linecap="round" stroke-linejoin="round"/>
<path d="M359.537 22.333V70.4004H324.56V22.333H330.161V17.4341H353.945V22.333H359.537Z" fill="white"/>
<path d="M331.152 17.867L332.615 17.029L333.328 17.867L334.8 17.0198L335.429 17.867L336.901 17.0198L337.827 17.8578L339.308 17.0106L339.716 17.8578L341.188 17.0106L341.854 17.8578L343.336 17.0014L344.067 17.8578L345.557 17.0014L346.344 17.8486L347.844 16.9922L348.955 17.8486L350.455 16.983L350.372 17.8486L351.871 16.983L353.094 17.8394L354.353 17.1119L353.492 18.1616L354.362 17.6552L353.501 19.6442L354.38 19.1377L353.519 20.6939L354.39 20.1967L353.529 22.0752L354.408 21.5687L354.112 22.7842L355.63 21.9094L356.186 22.7658L357.704 21.891L358.232 22.7382L359.75 21.8726L359.084 23.1986L359.954 22.7014L359.084 24.5891L359.954 24.0918L359.084 26.0348L359.954 25.5375L359.084 26.8451L359.954 26.3386L359.084 28.1895L359.954 27.6923L359.084 29.2761L359.954 28.7788L359.084 29.8746L359.954 29.3774L359.093 31.0073L359.963 30.51L359.093 31.7992L359.963 31.3019L359.093 33.1068L359.963 32.6003L359.093 34.2118L359.963 33.7145L359.093 34.93L359.963 34.4328L359.093 35.9429L359.963 35.4457L359.093 36.9098L359.963 36.4033L359.102 38.2911L359.963 37.7938L359.102 39.3684L359.972 38.8712L359.102 40.2708L359.972 39.7736L359.102 41.1272L359.972 40.63L359.102 42.1494L359.972 41.6521L359.102 43.4017L359.972 42.9044L359.102 44.5067L359.972 44.0002L359.102 45.1421L359.972 44.6448L359.111 45.7682L359.972 45.271L359.111 46.8732L359.982 46.376L359.111 48.4018L359.982 47.9046L359.111 48.9451L359.982 48.4386L359.111 50.2987L359.982 49.8015L359.111 51.8089L359.982 51.3116L359.111 52.8586L359.982 52.3614L359.111 53.9268L359.982 53.4296L359.121 55.2344L359.982 54.7371L359.121 56.0539L359.991 55.5567L359.121 57.2234L359.991 56.7261L359.121 58.1258L359.991 57.6286L359.121 59.24L359.991 58.7428L359.121 60.566L359.991 60.0688L359.121 61.4408L359.991 60.9343L359.13 62.3985L359.991 61.9012L359.13 63.66L359.991 63.1628L359.13 64.2677L360 63.7705L359.13 65.7135L360 65.2162L359.13 66.9198L360 66.4225L359.13 68.1997L360 67.7025L359.13 68.8167L360 68.3194L359.13 69.5902L360 69.0929" stroke="#A7A9AC" stroke-linecap="round" stroke-linejoin="round"/>
<path d="M324.097 22.1948L324.569 21.9186L324.097 23.2077L326.374 21.9001L324.106 24.3404L324.967 23.8431L324.106 25.5006L324.967 25.0034L324.106 26.9095L324.976 26.4123L324.106 27.5909L324.976 27.0937L324.106 28.6867L324.976 28.1895L324.106 29.7457L324.976 29.2484L324.106 31.0164L324.976 30.5192L324.106 32.37L324.976 31.8728L324.106 32.9133L324.976 32.4161L324.115 33.5119L324.976 33.0146L324.115 34.58L324.976 34.0736L324.115 35.9705L324.986 35.4732L324.115 37.3702L324.986 36.8729L324.115 37.9227L324.986 37.4254L324.115 38.6317L324.986 38.1344L324.115 39.4236L324.986 38.9264L324.115 40.6207L324.986 40.1234L324.125 42.0112L324.986 41.5139L324.125 42.6649L324.995 42.1677L324.125 44.1107L324.995 43.6042L324.125 45.5563L324.995 45.0591L324.125 46.9468L324.995 46.4404L324.125 48.0518L324.995 47.5546L324.134 49.5067L324.995 49.0095L324.134 51.0906L325.004 50.5933L324.134 51.993L325.004 51.4957L324.134 53.4295L325.004 52.923L324.134 54.4792L325.004 53.982L324.134 55.9894L325.004 55.4921L324.143 57.3062L325.004 56.8089L324.143 58.2915L325.013 57.7942L324.143 59.3228L325.013 58.8256L324.143 60.5475L325.013 60.0503L324.143 61.1368L325.013 60.6396L324.143 62.6838L325.013 62.1774L324.143 63.2732L325.013 62.7667L324.143 64.7373L325.013 64.2401L324.152 66.2843L325.023 65.7779L324.152 67.2696L325.023 66.7723L324.152 68.3286L325.023 67.8313L324.152 69.5532L325.023 69.0468L324.152 70.4557L325.023 69.9584L326.189 70.8608L327.698 69.9953L328.3 70.8516L329.809 69.986L330.467 70.8516L331.976 69.986L331.911 70.8516L333.42 69.986L334.133 70.8424L335.642 69.9769L336.031 70.8424L337.54 69.9769L338.067 70.8424L339.576 69.9769L340.012 70.8332L341.521 69.9676L341.993 70.8332L343.502 69.9676L344.104 70.8332L345.622 69.9676L346.576 70.824L348.085 69.9584L348.751 70.824L350.26 69.9584L351.158 70.824L352.667 69.9492L353.565 70.8148L355.075 69.9492L356.297 70.8148L357.806 69.94L358.556 70.8056L360 69.9769L359.537 70.8056L360 70.5385" stroke="#A7A9AC" stroke-linecap="round" stroke-linejoin="round"/>
<path d="M325.439 22.7841L326.986 21.9001L326.847 22.7749L328.393 21.8817L328.717 22.7565L330.587 21.6791L330.124 22.7381L330.587 22.4711" stroke="#A7A9AC" stroke-linecap="round" stroke-linejoin="round"/>
<path d="M329.754 17.296L330.217 17.0289L329.754 17.8669L331.207 17.0289L329.754 18.8522L330.569 18.3826L329.754 19.598L330.569 19.1192L329.754 20.5925L330.578 20.1137L329.754 21.2371L330.578 20.7675" stroke="#A7A9AC" stroke-linecap="round" stroke-linejoin="round"/>
<path d="M315.663 30.16L316.126 29.893L315.672 30.6204L316.941 29.893L315.672 31.3571L318.228 29.893L315.682 32.2319L319.755 29.893L315.682 32.9686L321.061 29.8838L315.691 33.3001L321.635 29.8838L315.691 33.6224L322.199 29.8838" stroke="white" stroke-linecap="round" stroke-linejoin="round"/>
<path d="M246.838 30.1601L247.301 29.8931L246.847 31.4585L249.569 29.8931L246.847 32.1215L250.727 29.8931L246.857 32.7845L251.884 29.8931L246.857 33.8526L253.754 29.8931" stroke="white" stroke-linecap="round" stroke-linejoin="round"/>
<path d="M196.076 30.16L196.539 29.893L196.076 31.2374L198.418 29.893L196.076 31.8267L199.446 29.893L196.076 32.2779L200.242 29.893L196.076 32.6186L200.825 29.893L196.076 32.9225L201.362 29.8838L196.076 33.9723L203.195 29.8838L196.076 35.2983L205.501 29.8838L196.076 36.569L207.732 29.8745L196.076 37.1307L208.704 29.8745L196.076 38.1252L210.445 29.8745L196.076 38.4843L211.065 29.8745L196.076 39.0092L211.991 29.8745L196.076 40.0221L213.768 29.8654L196.076 40.943L214.074 30.6112L196.076 41.2837L214.074 30.9427L196.076 42.1677L214.083 31.8359L196.076 42.6097L214.083 32.2779L196.076 43.0885L214.083 32.7476L196.076 44.35L214.092 34.0091L196.076 44.8013L214.592 34.1748L196.076 46.0628L216.777 34.1748L196.076 46.8915L218.231 34.1748L196.076 47.7848L219.786 34.1656L196.076 48.236L220.573 34.1656L196.076 49.3318L222.48 34.1656L196.076 50.004L223.647 34.1656L196.076 50.3999L224.35 34.1656L196.076 50.7775L224.998 34.1656L196.076 52.0666L227.257 34.1656L196.076 52.3705L227.785 34.1656L196.076 53.54L229.822 34.1656L196.076 54.1017L230.812 34.1564L196.076 55.1606L232.645 34.1564L196.076 56.2932L234.617 34.1564L196.076 57.4075L236.562 34.1564L196.076 58.0889L237.756 34.1564L196.076 58.4388L238.367 34.1564L196.076 59.507L240.228 34.1564L196.076 60.5475L242.042 34.1472L196.076 61.0079L242.857 34.1472L196.076 61.5512L243.801 34.1472L196.076 62.2971L245.088 34.1472L196.076 63.1903L246.653 34.1472L196.076 63.7152L254.976 29.893L196.076 63.9822L255.457 29.893L196.076 64.9859L257.189 29.8838L196.076 65.3819L257.883 29.8838L196.076 65.7042L258.448 29.8838L196.076 66.7631L260.29 29.8838L196.076 67.8865L262.262 29.8838L196.076 69.0008L264.206 29.8838L196.076 69.4888L265.049 29.8838L196.076 70.5846L266.956 29.8838L196.965 70.7319L268.104 29.8745L198.807 70.7319L269.946 29.8745L200.936 70.7319L272.085 29.8745L202.964 70.7319L274.112 29.8745L203.677 70.7319L274.825 29.8745L205.603 70.7319L276.751 29.8745L207.306 70.7319L278.455 29.8745L209.509 70.7319L280.667 29.8654L211.657 70.7319L282.815 29.8654L212.657 70.7319L282.908 30.3902L214.037 70.7319L282.908 31.1821L216.027 70.7319L282.917 32.324L217.064 70.7319L282.926 32.9041L219.23 70.7319L282.926 34.1472L219.971 70.7319L283.63 34.1748L220.665 70.7319L284.324 34.1748L222.749 70.7319L286.417 34.1748L223.248 70.7319L286.916 34.1748L223.869 70.7319L287.537 34.1748L225.008 70.7319L288.676 34.1656L226.822 70.7319L290.49 34.1656L228.683 70.7319L292.351 34.1656L230.072 70.7319L293.749 34.1656L230.544 70.7227L294.212 34.1656L231.22 70.7227L294.897 34.1656L232.877 70.7227L296.554 34.1656L233.469 70.7227L297.137 34.1656L235.164 70.7227L298.841 34.1656L235.691 70.7227L299.369 34.1564L237.404 70.7227L301.081 34.1564L239.635 70.7227L303.322 34.1564L241.293 70.7227L304.97 34.1564L242.478 70.7227L306.164 34.1564L244.135 70.7227L307.821 34.1564L245.459 70.7227L309.145 34.1564L247.764 70.7227L311.45 34.1472L249.514 70.7227L313.209 34.1472L251.597 70.7227L315.293 34.1472L252.236 70.7227L323.356 29.8838L253.023 70.7227L324.143 29.8838L255.198 70.7227L326.328 29.8745L257.439 70.7227L328.569 29.8745L258.457 70.7227L329.587 29.8745L259.985 70.7227L331.115 29.8745L261.327 70.7227L332.457 29.8654L263.132 70.7227L333.688 30.2061L264.808 70.7227L333.688 31.1637L266.956 70.7227L333.688 32.3976L268.909 70.7227L333.688 33.5211L269.419 70.7227L333.688 33.8065L271.465 70.7227L333.688 34.9852L273.511 70.7227L333.688 36.1639L275.436 70.7227L333.698 37.2688L276.853 70.7227L333.698 38.0792L277.686 70.7227L333.698 38.558L279.612 70.7227L333.698 39.663L280.584 70.7227L333.698 40.2155L281.371 70.7135L333.698 40.6667L283.38 70.7135L333.698 41.827L284.121 70.7135L333.698 42.2505L286.324 70.7135L333.698 43.5121L287.787 70.7135L333.698 44.35L289.574 70.7135L333.698 45.3814L290.397 70.7135L333.698 45.851L292.518 70.7135L333.698 47.0665L293.897 70.7135L333.698 47.8584L294.934 70.7135L333.698 48.4478L296.619 70.7135L333.698 49.4238L297.424 70.7135L333.698 49.8843L299.054 70.7135L333.707 50.8143L299.591 70.7135L333.707 51.1274L300.387 70.7135L333.707 51.5878L301.896 70.7135L333.707 52.4534L304.137 70.7135L333.707 53.7333L305.766 70.7135L333.707 54.6726L307.849 70.7135L333.707 55.8697L309.682 70.7135L333.707 56.9102L311.969 70.7135L333.707 58.227L312.756 70.7135L333.707 58.6782L313.302 70.7135L333.707 58.9913L314.607 70.7135L333.707 59.7372L316.885 70.7135L333.707 61.0447L317.7 70.7135L333.707 61.5144L318.783 70.7135L333.707 62.1405L320.357 70.7135L333.707 63.043L321.588 70.7135L333.707 63.7428L322.949 70.7135L333.707 64.5255L323.949 70.7135L333.707 65.1056L325.819 70.7135L333.716 66.1738L326.958 70.7043L333.716 66.8276L327.485 70.7043L333.716 67.1315L329.365 70.7043L333.716 68.2088L330.355 70.7043L333.716 68.7797L332.614 70.7043L333.716 70.0689L333.253 70.7043L333.716 70.4373" stroke="white" stroke-linecap="round" stroke-linejoin="round"/>
<path d="M197.048 30.2982L198.511 29.4602L199.039 30.2982L200.511 29.451L200.724 30.2982L202.196 29.451L201.492 30.289L202.973 29.4418L202.936 30.289L204.418 29.4418L204.519 30.289L206.001 29.4326L205.964 30.289L207.454 29.4326L206.704 30.2798L208.204 29.4326L207.223 30.2798L208.713 29.4234L208.991 30.2798L210.482 29.4234L210.296 30.2798L211.796 29.4142L212.37 30.2706L213.879 29.4142L213.268 30.2706L214.5 29.5707L213.639 30.4547L214.509 29.9575L213.648 31.3295L214.518 30.8231L213.648 31.9649L214.527 31.4584L213.666 33.0239L214.546 32.5266L213.685 34.1841L214.555 33.6869L213.685 34.4604L214.944 33.7421L215.648 34.5985L217.157 33.7329L217.823 34.5985L219.332 33.7329L219.999 34.5985L221.508 33.7329L220.582 34.5985L222.091 33.7237L221.36 34.5893L222.869 33.7237L223.295 34.5893L224.804 33.7237L224.267 34.5893L225.776 33.7237L225.878 34.5893L227.396 33.7145L226.424 34.5893L227.933 33.7145V34.5801L229.442 33.7145L229.137 34.5801L230.646 33.7145L230.849 34.5801L232.368 33.7145L231.683 34.5801L233.192 33.7053L232.442 34.5801L233.951 33.7053L234.682 34.5709L236.191 33.7053L235.682 34.5709L237.191 33.7053L236.265 34.5709L237.784 33.7053L238.487 34.5709L239.996 33.6961L239.348 34.5616L240.857 33.6961L241.644 34.5616L243.153 33.6961L243.024 34.5616L244.533 33.6869L244.366 34.5524L245.875 33.6869L245.718 34.5524L247.283 33.65L246.829 34.5524L247.292 34.2854" stroke="#939598" stroke-linecap="round" stroke-linejoin="round"/>
<path d="M246.375 29.7272L246.838 29.4602L246.384 30.6389L248.431 29.4602L246.394 31.5229L247.246 31.0256L246.412 32.8028L247.264 32.3148L246.422 33.4198L247.273 32.9317" stroke="#939598" stroke-linecap="round" stroke-linejoin="round"/>
<path d="M247.708 30.3257L249.217 29.4602L248.912 30.3257L250.421 29.4602L250.328 30.3257L251.847 29.4509L252.226 30.3165L253.735 29.4509L252.958 30.3165L254.467 29.4509L254.485 30.3165L256.004 29.4509L255.346 30.3165L256.855 29.4509L257.087 30.3165L258.596 29.4417L258.661 30.3073L260.17 29.4417L260.475 30.3073L261.993 29.4417L261.956 30.3073L263.466 29.4417L264.197 30.2981L265.706 29.4325L265.475 30.2981L266.984 29.4325L267.335 30.2981L268.844 29.4325L268.9 30.2981L270.409 29.4325L270.178 30.2889L271.687 29.4233L272.298 30.2889L273.798 29.4233L273.085 30.2889L274.594 29.4233L274.455 30.2889L275.955 29.4233L276.658 30.2797L278.167 29.4141L277.908 30.2797L279.417 29.4141L278.612 30.2797L280.121 29.4141L279.538 30.2797L281.047 29.4141L281.371 30.2705L282.88 29.4049L282.472 30.7033L283.352 30.1968L282.491 31.882L283.361 31.3847L282.491 32.2779L283.37 31.7806L282.5 32.8396L283.37 32.3331L282.509 33.2908L283.38 32.7936L282.509 33.5855L283.389 33.079L282.519 34.4971L283.843 33.742L284.389 34.5984L285.898 33.7328L285.611 34.5984L287.12 33.7328L287.685 34.5984L289.194 33.7328L289.823 34.5984L291.332 33.7236L291.323 34.5892L292.832 33.7236L293.508 34.5892L295.017 33.7236L295.749 34.58L297.267 33.7144L297.498 34.58L299.007 33.7144L298.313 34.58L299.822 33.7144L299.072 34.58L300.591 33.7144L300.266 34.58L301.776 33.7144L301.34 34.58L302.859 33.7052L302.831 34.5708L304.349 33.7052L304.497 34.5708L306.007 33.7052L306.553 34.5708L308.062 33.696L307.284 34.5708L308.802 33.696L309.265 34.5615L310.774 33.696L309.997 34.5615L311.506 33.696L310.469 34.5615L311.978 33.696L312.441 34.5615L313.959 33.6868L313.302 34.5524L314.811 33.6868L314.006 34.5524L316.107 33.3461L314.7 34.5524L316.116 33.742L315.663 34.5524L316.126 34.2853" stroke="#939598" stroke-linecap="round" stroke-linejoin="round"/>
<path d="M315.2 29.7272L315.663 29.4602L315.209 30.1876L316.478 29.4602L315.219 30.9243L316.07 30.4363L315.228 31.7899L316.08 31.3019L315.246 32.5266L316.098 32.0385L315.246 32.8581L316.098 32.37L315.246 33.1803L316.098 32.6923" stroke="#939598" stroke-linecap="round" stroke-linejoin="round"/>
<path d="M316.533 30.3257L318.052 29.4509L318.811 30.3165L320.329 29.4509L319.977 30.3165L321.496 29.4417L321.144 30.3165L322.662 29.4417L323.023 30.3073L324.532 29.4325L324.514 30.2981L326.023 29.4325L326.643 30.2981L328.152 29.4233L327.532 30.2889L329.041 29.4233L328.31 30.2889L329.819 29.4233L330.18 30.2797L331.689 29.4141L331.837 30.2797L333.346 29.4141L332.383 30.2797L333.892 29.4049L333.253 30.7217L334.124 30.2244L333.253 31.4031L334.124 30.9059L333.253 32.3147L334.124 31.8175L333.253 33.1343L334.124 32.637L333.253 33.4289L334.124 32.9225L333.253 34.2208L334.124 33.7236L333.263 35.51L334.133 35.0128L333.263 36.7716L334.133 36.2743L333.263 38.0239L334.133 37.5174L333.263 38.6409L334.133 38.1436L333.263 39.3683L334.133 38.8711L333.263 39.9576L334.133 39.4604L333.263 40.9706L334.133 40.4641L333.272 41.7348L334.142 41.2376L333.272 42.6741L334.142 42.1769L333.272 43.4844L334.142 42.978L333.272 44.5894L334.142 44.0922L333.272 45.5471L334.142 45.0499L333.272 46.4127L334.142 45.9154L333.281 47.2322L334.142 46.7258L333.281 48.1899L334.151 47.6926L333.281 49.2857L334.151 48.7884L333.281 50.096L334.151 49.5988L333.281 50.4183L334.151 49.9211L333.281 51.643L334.151 51.1458L333.281 52.6559L334.151 52.1587L333.281 53.3466L334.151 52.8493L333.29 54.5529L334.151 54.0556L333.29 55.7131L334.161 55.2159L333.29 56.3024L334.161 55.8052L333.29 57.3522L334.161 56.8549L333.29 57.8863L334.161 57.3798L333.29 58.1901L334.161 57.6929L333.29 58.7703L334.161 58.273L333.29 59.5714L334.161 59.0741L333.3 60.216L334.161 59.7187L333.3 60.5659L334.161 60.0686L333.3 61.367L334.161 60.8698L333.3 62.4904L334.17 61.9932L333.3 63.3929L334.17 62.8956L333.3 63.8533L334.17 63.356L333.3 65.0688L334.17 64.5715L333.3 66.2474L334.17 65.7502L333.309 67.0209L334.17 66.5237L333.309 68.1351L334.17 67.6287L333.309 68.5219L334.17 68.0246L333.309 68.8073L334.17 68.3101L333.309 69.8203L334.179 69.323" stroke="#939598" stroke-linecap="round" stroke-linejoin="round"/>
<path d="M195.641 29.7272L196.104 29.4602L195.641 30.8046L196.456 30.335L195.641 31.394L196.456 30.9243L195.641 31.8452L196.456 31.3755L195.641 32.1859L196.456 31.7162L195.641 32.4897L196.456 32.0201L195.641 33.5395L196.456 33.0699L195.641 34.8655L196.465 34.3959L195.641 36.1362L196.465 35.6666L195.641 36.6979L196.465 36.2191L195.641 37.6925L196.465 37.2228L195.641 38.0516L196.465 37.5727L195.641 38.5764L196.465 38.0976L195.641 39.5894L196.465 39.1197L195.641 40.5102L196.465 40.0313L195.641 40.8509L196.465 40.3721L195.641 41.7349L196.474 41.2653L195.641 42.1769L196.474 41.7073L195.641 42.6557L196.474 42.1769L195.641 43.9173L196.474 43.4384L195.641 44.3685L196.474 43.8896L195.641 45.63L196.474 45.1512L195.641 46.4588L196.474 45.98L195.641 47.352L196.474 46.8732L195.641 47.8032L196.483 47.3244L195.641 48.899L196.483 48.4109L195.641 49.562L196.483 49.0832L195.641 49.9671L196.483 49.4883L195.641 50.3447L196.483 49.8566L195.641 51.6338L196.483 51.155L195.641 51.9377L196.483 51.4497L195.641 53.1072L196.483 52.6191L195.641 53.6689L196.483 53.1808L195.641 54.7279L196.493 54.2398L195.641 55.8605L196.493 55.3724L195.641 56.9655L196.493 56.4774L195.641 57.6561L196.493 57.1681L195.641 58.006L196.493 57.518L195.641 59.0742L196.493 58.5769L195.641 60.1147L196.493 59.6267L195.641 60.5843L196.502 60.0871L195.641 61.1184L196.502 60.6304L195.641 61.8643L196.502 61.3671L195.641 62.7575L196.502 62.2603L195.641 63.2824L196.502 62.7852L195.641 63.5586L196.502 63.0614L195.641 64.5531L196.502 64.0559L195.641 64.9491L196.502 64.4519L195.641 65.2714L196.502 64.7742L195.641 66.3303L196.502 65.8331L195.641 67.4538L196.511 66.9565L195.641 68.568L196.511 68.0707L195.641 69.056L196.511 68.5588L195.641 70.1518L196.511 69.6546L195.641 70.8148L196.511 70.3083L196.817 71.1924L198.316 70.3268L198.946 71.1924L200.455 70.3268L200.974 71.1924L202.483 70.3268L201.686 71.1924L203.186 70.3268L203.612 71.1924L205.112 70.3268L205.316 71.1924L206.815 70.3268L207.519 71.1924L209.019 70.3268L209.667 71.1924L211.167 70.3268L210.676 71.1924L212.176 70.3268L212.046 71.1924L213.546 70.3268L214.046 71.1831L215.546 70.3268L215.074 71.1831L216.573 70.3268L217.24 71.1831L218.74 70.3268L217.99 71.1831L219.49 70.3268L218.684 71.1831L220.184 70.3268L220.767 71.1831L222.267 70.3268L221.267 71.1831L222.767 70.3268L221.888 71.1831L223.387 70.3268L223.026 71.1831L224.526 70.3268L224.85 71.1831L226.341 70.3268L226.702 71.1831L228.202 70.3268L228.1 71.1831L229.59 70.3268L228.563 71.1831L230.062 70.3268L229.248 71.1831L230.738 70.3268L230.896 71.1831L232.396 70.3268L231.488 71.1831L232.979 70.3268L233.182 71.1831L234.673 70.3176L233.719 71.1831L235.21 70.3176L235.432 71.1831L236.923 70.3176L237.663 71.1831L239.154 70.3176L239.311 71.1739L240.802 70.3176L240.506 71.1739L241.996 70.3176L242.163 71.1739L243.653 70.3176L243.478 71.1739L244.968 70.3176L245.783 71.1739L247.273 70.3176L247.542 71.1739L249.032 70.3176L249.625 71.1739L251.115 70.3176L250.264 71.1739L251.754 70.3176L251.051 71.1739L252.541 70.3176L253.226 71.1739L254.717 70.3176L255.476 71.1739L256.957 70.3176L256.485 71.1739L257.966 70.3176L258.013 71.1739L259.494 70.3176L259.355 71.1739L260.836 70.3176L261.16 71.1647L262.651 70.3176L262.836 71.1647L264.317 70.3176L264.993 71.1647L266.475 70.3176L266.947 71.1647L268.428 70.3176L267.447 71.1647L268.928 70.3176L269.502 71.1647L270.983 70.3176L271.548 71.1647L273.029 70.3176L273.474 71.1647L274.955 70.3176L274.89 71.1647L276.372 70.3176L275.723 71.1647L277.196 70.3176L277.649 71.1647L279.121 70.3176L278.621 71.1647L280.103 70.3176L279.408 71.1647L280.88 70.3176L281.417 71.1647L282.898 70.3176L282.158 71.1647L283.639 70.3083L284.361 71.1555L285.833 70.3083L285.824 71.1555L287.305 70.3083L287.611 71.1555L289.092 70.3083L288.435 71.1555L289.907 70.3083L290.555 71.1555L292.036 70.3083L291.934 71.1555L293.416 70.3083L292.971 71.1555L294.443 70.3083L294.656 71.1555L296.138 70.3083L295.462 71.1555L296.934 70.3083L297.1 71.1555L298.572 70.3083L297.637 71.1555L299.109 70.3083L298.434 71.1555L299.906 70.3083L299.943 71.1555L301.415 70.3083L302.174 71.1555L303.646 70.3083L303.813 71.1555L305.285 70.3083L305.896 71.1555L307.368 70.3083L307.729 71.1463L309.192 70.3083L310.015 71.1463L311.488 70.3083L310.802 71.1463L312.274 70.3083L311.358 71.1463L312.821 70.3083L312.654 71.1463L314.117 70.3083L314.932 71.1463L316.404 70.3083L315.756 71.1463L317.218 70.3083L316.829 71.1463L318.302 70.3083L318.403 71.1463L319.866 70.3083L319.635 71.1463L321.097 70.3083L320.996 71.1463L322.468 70.3083L322.005 71.1463L323.468 70.3083L323.875 71.1463L325.338 70.3083L325.014 71.1463L326.476 70.3083L325.541 71.1463L327.004 70.3083L327.421 71.1463L328.884 70.2992L328.411 71.1371L329.874 70.2992L330.661 71.1371L332.124 70.2992L332.522 71.1371L334.179 70.1886L333.716 71.1371L334.179 70.8793" stroke="#939598" stroke-linecap="round" stroke-linejoin="round"/>
<path d="M258.513 29.0458L258.976 28.7696L258.8 29.8654L260.716 28.7696L259.735 29.8654L261.642 28.7696L261.698 29.8654L263.605 28.7604L262.725 29.8562L264.633 28.7604L264.901 29.8562L266.817 28.7604L266.706 29.847L268.614 28.7512L268.252 29.847L270.169 28.7512L270.132 29.847L271.261 29.1932L270.817 29.8378L271.271 29.5799" stroke="white" stroke-linecap="round" stroke-linejoin="round"/>
<path d="M259.383 29.2115L260.947 28.3091L261.521 29.2024L263.077 28.3091L262.577 29.2024L264.141 28.2999L263.049 29.2024L264.614 28.2999L265.373 29.1931L266.928 28.2999L266.641 29.1931L268.197 28.2907L268.743 29.1839L270.298 28.2907L270.724 29.1839L271.724 28.6038L271.252 29.8561L271.742 29.5799" stroke="#939598" stroke-linecap="round" stroke-linejoin="round"/>
<path d="M258.05 28.5854L258.512 28.3183L258.05 29.5707L260.253 28.3091L258.457 29.8561L258.938 29.5799" stroke="#939598" stroke-linecap="round" stroke-linejoin="round"/>
<path d="M264.086 14.5427L264.577 14.2665L264.086 15.6109L264.854 15.1689L264.086 16.237L264.854 15.7951L264.086 16.7896L264.854 16.3475L264.086 17.7288L264.864 17.2868L264.086 18.843L264.864 18.3918L264.086 19.3402L264.864 18.8891L264.086 20.3348L264.864 19.8928L264.086 21.4213L264.864 20.9701L264.086 22.3974L264.873 21.9462L264.086 22.8302L264.873 22.3698L264.086 23.5945L264.873 23.1433L264.086 23.9444L264.873 23.4932L264.086 24.414L264.873 23.9628L264.086 25.5927L264.873 25.1323L264.086 26.1176L264.873 25.6572L264.086 26.578L264.873 26.1176L264.086 27.7198L264.882 27.2686L264.271 28.742L264.882 28.3921" stroke="white" stroke-linecap="round" stroke-linejoin="round"/>
<path d="M263.623 14.0822L264.095 13.8152L263.623 15.1504L265.317 14.1743L263.623 15.7766L265.317 14.8005L263.623 16.3291L265.317 15.353L263.623 17.2683L265.317 16.2922L263.623 18.3825L265.327 17.4065L263.623 18.8798L265.327 17.9037L263.623 19.8743L265.327 18.8982L263.623 20.9609L265.327 19.9756L263.623 21.9369L265.327 20.9516L263.623 22.3605L265.327 21.3844L263.623 23.134L265.336 22.1487L263.623 23.4839L265.336 22.4987L263.623 23.9536L265.336 22.9683L263.623 25.123L265.336 24.1377L263.623 25.6571L265.336 24.6718L263.623 26.1175L265.336 25.123L263.623 27.2594L265.336 26.2741L263.623 28.3828L265.345 27.3975L264.382 28.7327L265.345 28.1802L264.873 28.7235L265.345 28.4565" stroke="#939598" stroke-linecap="round" stroke-linejoin="round"/>
<path d="M264.91 14.5519L265.373 14.2757L264.91 15.3531L266.799 14.2757L264.91 16.4765L268.771 14.2665L264.91 17.517L270.594 14.2573L264.91 18.1984L271.252 14.5612L264.91 18.8338L271.261 15.1873L266.947 18.9167L271.27 16.4304L269.15 18.9075L271.27 17.6828L270.02 18.8983L271.279 18.18L270.817 18.8983L271.279 18.6312" stroke="white" stroke-linecap="round" stroke-linejoin="round"/>
<path d="M264.892 18.7509L265.345 18.4839L265.595 19.3771L267.169 18.4747L267.697 19.3679L269.271 18.4655L269.891 19.3587L271.743 18.2997L270.511 19.3587L271.743 18.6496L271.28 19.3587L271.743 19.0916" stroke="#939598" stroke-linecap="round" stroke-linejoin="round"/>
<path d="M264.91 14.0915L265.373 13.8152L265.234 14.7176L266.799 13.8152L267.206 14.6992L268.771 13.806L269.03 14.6992L270.594 13.7968L270.224 14.69L271.715 13.8337L270.817 14.9847L271.724 14.469L270.826 16.2186L271.724 15.7122L270.835 17.4709L271.733 16.9645L270.844 17.9682L271.733 17.4525" stroke="#939598" stroke-linecap="round" stroke-linejoin="round"/>
<path d="M177.365 9.15589L182.365 6.2829L181.346 8.54814L184.652 6.65123L183.365 8.67707L186.096 7.11164L185.133 9.12827L187.531 7.74702L186.374 9.62553L188.633 8.32715L188.068 10.5556L190.206 9.33085L189.17 11.3014L191.262 10.1043L190.503 12.3696L192.586 11.1817L191.475 13.2628L193.576 12.0565L192.669 14.4783L194.826 13.2444L193.641 15.5649L195.854 14.3033L194.706 16.8817L197.011 15.5649L195.289 17.6368L197.65 16.2832L195.937 18.53L198.372 17.1395L196.77 19.7271L199.298 18.2722L197.724 21.1912L200.381 19.6718L198.576 22.5817L201.362 20.9794L199.455 24.0826L202.39 22.3975L200.066 25.1692L203.112 23.4288L200.659 26.2558L203.807 24.4509L201.409 27.7015L204.705 25.8138L202.066 28.9999L205.492 27.0385L202.585 30.068L206.13 28.033L203.307 31.5966L207.01 29.4695L204.001 33.1068L207.871 30.8783L204.464 34.1473L208.445 31.8636L205.001 35.3904L209.121 33.0239L205.371 36.2652L209.593 33.8434L205.871 37.4623L210.222 34.9668L206.473 38.9356L210.982 36.3389L206.88 39.9854L211.519 37.3242L207.38 41.2654L212.167 38.5213L207.769 42.2875L212.667 39.4697L208.139 43.2636L213.148 40.3813L208.482 44.2212L213.611 41.2745L208.834 45.1605L214.065 42.1585L209.371 46.6983L214.796 43.5951L209.76 47.7941L215.305 44.608L210.343 49.5252L216.101 46.2194L210.75 50.7131L216.638 47.3336L211.121 51.8549L217.157 48.3926L211.509 53.0612L217.685 49.516L211.982 54.5622L218.342 50.9157L212.389 55.8882L218.907 52.1404L212.768 57.1221L219.434 53.2914L213.305 58.9177L220.193 54.9581L213.592 59.9122L220.61 55.8882L213.953 61.1922L221.129 57.0668L214.463 62.9786L221.86 58.7335L214.731 63.9547L222.249 59.6452L215.092 65.3083L222.786 60.8883L215.379 66.3857L223.202 61.892L215.676 67.5275L223.647 62.951L216.027 68.9456L224.193 64.2585L216.333 70.1979L224.665 65.4096L218.425 70.5202L225.165 66.6527L220.517 70.5386L225.554 67.6472L222.739 70.5478L225.971 68.697L224.591 70.5571L226.313 69.5718" stroke="#FE2B25" stroke-linecap="round" stroke-linejoin="round"/>
<path d="M171.292 10.1043L176.606 7.05637L166.931 14.0639L180.504 6.26447L164.672 16.5686L172.19 12.2591L162.747 18.9351L169.227 15.2057L160.719 21.6424L166.968 18.0511L159.127 23.9076L165.404 20.3072L157.821 25.869L164.2 22.2041L156.22 28.3829L162.802 24.6074L155.072 30.2614L161.83 26.3755L153.822 32.3701L160.812 28.3552L152.387 34.8839L159.664 30.7034L150.804 37.7662L158.432 33.3922L149.471 40.2616L157.423 35.6943L148.295 42.5453L156.544 37.803L147.11 44.8934L155.673 39.9854L146.073 47.0297L154.914 41.9467L145.138 48.9727L154.239 43.7516L144.073 51.2379L153.489 45.8327L143.018 53.54L152.739 47.9506L142.157 55.4553L152.146 49.7186L141.509 56.9103L151.693 51.063L140.768 58.5862L151.193 52.6008L139.935 60.5291L150.628 54.3964L139.277 62.0854L150.183 55.8237L138.537 63.8626L149.684 57.4628L137.676 65.9897L149.11 59.4241L137.009 67.6564L148.665 60.9619L136.13 69.9124L148.073 63.0522L138.129 70.5662L147.489 65.1978L140.037 70.557L147.156 66.4685L143.184 70.5386L146.619 68.568L145.703 70.5202L146.212 70.2255" stroke="#FE2B25" stroke-linecap="round" stroke-linejoin="round"/>
</g>
</svg>
