<svg width="244" height="38" viewBox="0 0 244 38" fill="none" xmlns="http://www.w3.org/2000/svg">
<path d="M150.4 1.5C150.941 10.8256 150.629 20.181 149.47 29.45C149.24 31.29 152.03 31.45 152.56 29.87L153.05 28.42C153.69 26.5 150.65 25.67 150.05 27.58L149.57 29.03L152.66 29.45C153.814 20.1806 154.126 10.8256 153.59 1.5C153.48 -0.5 150.33 -0.5 150.44 1.5H150.4Z" fill="#FE2B25"/>
<path d="M153.31 18.14C157.006 16.3289 160.995 15.1911 165.09 14.78C165.505 14.7724 165.901 14.6049 166.195 14.3123C166.49 14.0198 166.66 13.6249 166.67 13.21C166.665 12.7926 166.497 12.3937 166.202 12.0985C165.906 11.8033 165.507 11.6352 165.09 11.63C160.442 12.0827 155.914 13.3664 151.72 15.42C151.524 15.5151 151.35 15.6497 151.209 15.8152C151.067 15.9808 150.962 16.1738 150.898 16.3821C150.835 16.5904 150.815 16.8096 150.841 17.0258C150.866 17.2421 150.936 17.4508 151.046 17.6387C151.156 17.8267 151.303 17.9899 151.479 18.1182C151.655 18.2464 151.856 18.3369 152.068 18.384C152.281 18.4311 152.501 18.4337 152.715 18.3917C152.928 18.3497 153.131 18.264 153.31 18.14Z" fill="#FE2B25"/>
<path d="M163.34 4.14001L160.56 29.95C160.37 31.7 163.4 32.13 163.65 30.37L163.89 28.69C163.987 28.2887 163.927 27.8655 163.723 27.5068C163.518 27.1481 163.185 26.881 162.79 26.76C162.387 26.6495 161.956 26.7032 161.593 26.9093C161.229 27.1155 160.962 27.4573 160.85 27.86L160.61 29.53L163.7 29.95L166.49 4.13C166.71 2.13 163.56 2.13 163.34 4.13V4.14001Z" fill="#FE2B25"/>
<path d="M169.82 2.83C168.407 7.02711 167.602 11.4048 167.43 15.83C167.29 19.4 167.18 23.88 169.43 26.88C171.68 29.88 175.75 30.02 178.83 28.23C182.29 26.23 183.76 22.32 185.02 18.75C185.69 16.84 182.65 16.01 182.02 17.92C181.07 20.6 180.02 23.87 177.43 25.43C175.05 26.88 172.27 26.43 171.26 23.64C170.25 20.85 170.45 17.27 170.66 14.28C170.937 10.6642 171.663 7.09692 172.82 3.65999C173.47 1.73999 170.43 0.910004 169.82 2.83Z" fill="#FE2B25"/>
<path d="M182.97 3.95001L180.71 27.86C180.56 29.46 182.92 29.95 183.64 28.66L184.78 26.66C185.78 24.89 183.06 23.3 182.07 25.07L180.92 27.07L183.86 27.86L186.11 3.95001C186.3 1.95001 183.11 1.95001 182.97 3.95001Z" fill="#FE2B25"/>
<path d="M192.67 5.65006C192.923 5.92348 193.24 6.13107 193.592 6.25495C193.943 6.37883 194.32 6.41528 194.689 6.36115C195.058 6.30702 195.409 6.16392 195.71 5.94422C196.012 5.72452 196.255 5.43481 196.42 5.10005C196.57 4.74525 196.645 4.36301 196.639 3.97773C196.633 3.59245 196.547 3.21263 196.386 2.86253C196.225 2.51242 195.993 2.19973 195.704 1.94447C195.415 1.6892 195.077 1.49697 194.71 1.38004C191.6 0.190044 187.94 2.19007 186.71 5.09007C185.28 8.39007 186.83 11.3601 188.86 13.9601C190.06 15.5101 191.29 17.0301 192.49 18.5801C193.4 19.7501 194.49 21.1701 194.44 22.7401C194.37 23.9401 193.44 25.0501 192.2 24.2701C190.96 23.4901 191.87 22.0601 192.97 21.8401C194.97 21.4501 194.11 18.4201 192.13 18.8401C191.456 18.9646 190.82 19.2415 190.27 19.6496C189.72 20.0577 189.271 20.5861 188.957 21.1946C188.643 21.803 188.472 22.4752 188.457 23.1599C188.443 23.8445 188.585 24.5234 188.873 25.1446C189.161 25.7658 189.588 26.3129 190.12 26.744C190.652 27.175 191.275 27.4787 191.943 27.6317C192.61 27.7847 193.304 27.783 193.971 27.6267C194.637 27.4704 195.26 27.1637 195.79 26.73C198.28 24.73 197.79 21.0901 196.33 18.6201C194.53 15.6201 191.84 13.27 190.06 10.29C189.607 9.66017 189.344 8.9135 189.304 8.1388C189.263 7.36411 189.445 6.59399 189.83 5.92005C190.257 5.24483 190.898 4.73118 191.65 4.46006C192.001 4.33708 192.368 4.26305 192.74 4.24006C192.903 4.23005 193.066 4.23005 193.23 4.24006C193.329 4.23629 193.427 4.25331 193.52 4.29005C194.08 4.49005 194.52 4.21004 194.93 3.44004C193.6 1.91004 191.38 4.15004 192.71 5.66004L192.67 5.65006Z" fill="#FE2B25"/>
<path d="M203.73 5.55997L203.8 28.26L206.73 27.47L206.04 26.24C205.04 24.47 202.34 26.06 203.33 27.83L204.01 29.06C204.188 29.3531 204.457 29.5802 204.775 29.7072C205.094 29.8341 205.445 29.8538 205.776 29.7635C206.107 29.6731 206.4 29.4776 206.609 29.2064C206.819 28.9351 206.935 28.6029 206.94 28.26L206.88 5.55997C206.848 5.16392 206.669 4.79432 206.377 4.52478C206.085 4.25524 205.702 4.10559 205.305 4.10559C204.908 4.10559 204.525 4.25524 204.233 4.52478C203.941 4.79432 203.761 5.16392 203.73 5.55997Z" fill="#FE2B25"/>
<path d="M199.89 5.33998C206.537 4.40048 213.301 4.69881 219.84 6.21996C221.84 6.66996 222.66 3.63996 220.68 3.21996C213.59 1.59252 206.258 1.29752 199.06 2.34996C198.66 2.46215 198.319 2.7277 198.114 3.089C197.908 3.45031 197.852 3.87823 197.96 4.27995C198.077 4.67752 198.343 5.01433 198.703 5.2195C199.063 5.42466 199.488 5.48218 199.89 5.37996V5.33998Z" fill="#FE2B25"/>
<path d="M50.8796 11.95C52.7396 9.48 50.5896 6.50001 48.0696 5.74001C45.6221 5.11421 43.0369 5.30738 40.7096 6.29C38.3775 7.17728 36.3462 8.71023 34.8534 10.7096C33.3605 12.7089 32.4678 15.0919 32.2796 17.58C32.1012 20.0787 32.6486 22.5758 33.8558 24.7707C35.0631 26.9657 36.8788 28.7651 39.0846 29.9525C41.2904 31.1399 43.7923 31.6647 46.2893 31.4638C48.7863 31.2629 51.172 30.3448 53.1596 28.82C55.6196 26.97 57.2296 24.09 55.1596 21.26C53.0896 18.43 49.7196 18.44 46.6296 18.76C44.6296 18.97 44.6296 22.08 46.6296 21.91L58.8096 20.91C60.8096 20.74 60.8096 17.59 58.8096 17.76L46.6296 18.76V21.91C48.3996 21.72 50.7896 21.32 52.2396 22.66C53.6896 24 52.3496 25.59 50.9796 26.51C49.5542 27.4695 47.9142 28.0628 46.2048 28.2372C44.4954 28.4116 42.7694 28.1619 41.1796 27.51C39.675 26.8107 38.368 25.7481 37.3765 24.4179C36.3849 23.0877 35.7399 21.5316 35.4996 19.89C35.2303 18.217 35.4096 16.5025 36.0192 14.9214C36.6288 13.3403 37.6469 11.9492 38.9696 10.89C40.4061 9.70986 42.1327 8.93636 43.9696 8.65001C44.8296 8.52001 49.5296 8.53999 48.1396 10.38C46.9196 12 49.6496 13.57 50.8596 11.97L50.8796 11.95Z" fill="#1F87FC"/>
<path d="M64.05 18.74C63.0223 18.7369 62.0267 19.0976 61.2396 19.7584C60.4525 20.4192 59.9248 21.3373 59.75 22.35C59.6067 23.3921 59.7904 24.4531 60.2759 25.3863C60.7613 26.3195 61.5245 27.079 62.46 27.56C63.4357 28.0343 64.5139 28.2589 65.5978 28.2135C66.6817 28.1681 67.7374 27.8542 68.67 27.3C69.567 26.817 70.2977 26.075 70.7669 25.1706C71.236 24.2662 71.4218 23.2415 71.3 22.23C70.93 19.82 68.66 18.5 66.63 17.62C66.2651 17.4221 65.8384 17.3709 65.437 17.4768C65.0356 17.5827 64.6898 17.8378 64.47 18.19C64.265 18.5517 64.2099 18.9794 64.3165 19.3813C64.423 19.7831 64.6828 20.1273 65.04 20.34C65.7098 20.6265 66.3581 20.9607 66.98 21.34L67.23 21.5L67.3 21.55C67.16 21.44 67.38 21.61 67.4 21.64L67.55 21.77C67.6833 21.9034 67.8033 22.0333 67.91 22.16C67.91 22.16 67.78 21.96 67.91 22.11C68.04 22.26 68.03 22.29 68.08 22.39L68.2 22.62C68.2 22.62 68.13 22.38 68.2 22.54C68.27 22.7 68.28 22.84 68.31 22.98C68.23 22.64 68.31 23.07 68.31 23.19C68.31 23.31 68.31 23.41 68.31 23.19C68.31 22.97 68.31 23.28 68.31 23.33C68.31 23.38 68.26 23.48 68.24 23.56C68.22 23.64 68.37 23.31 68.24 23.46C68.11 23.61 68.11 23.7 68.03 23.82C67.9891 23.8905 67.9423 23.9575 67.89 24.02C67.89 23.97 68.1 23.79 67.89 24.02L67.53 24.37C67.3 24.55 67.53 24.42 67.53 24.37L67.38 24.48C67.26 24.56 67.14 24.64 67.01 24.71C66.88 24.78 66.47 24.95 66.82 24.82L66.31 24.99C66.15 24.99 65.98 25.06 65.82 25.11C65.66 25.16 66.06 25.11 65.82 25.11H65.61H64.82C64.64 25.11 65.05 25.17 64.76 25.11L64.28 24.98C64.28 24.98 63.97 24.87 64.14 24.98C64.31 25.09 64.14 24.98 64.08 24.98C64.02 24.98 63.78 24.8 63.62 24.72C63.62 24.72 63.82 24.89 63.69 24.77L63.45 24.55C63.3882 24.4915 63.3313 24.4279 63.28 24.36C63.13 24.17 63.28 24.36 63.28 24.36C63.43 24.55 63.15 24.16 63.12 24.1C63.0761 24.0254 63.036 23.9487 63 23.87C63 23.93 63.1 24.17 63 23.87C62.9 23.57 62.91 23.54 62.87 23.38C62.87 23.44 62.87 23.71 62.87 23.38V23.13C62.8731 23.0295 62.897 22.9308 62.94 22.84C62.94 22.78 62.94 22.73 62.94 22.67C62.87 22.97 62.94 22.76 62.94 22.67C62.9797 22.5978 63.0231 22.5277 63.07 22.46C63.13 22.36 63.3 22.25 63.07 22.46L63.41 22.12C63.16 22.34 63.47 22.12 63.59 22.04C63.87 21.88 63.54 22.04 63.53 22.04C63.52 22.04 63.76 21.99 63.82 21.96C63.88 21.93 63.7 21.96 63.69 21.96H64.05C64.446 21.9284 64.8157 21.7488 65.0852 21.4569C65.3547 21.165 65.5044 20.7823 65.5044 20.385C65.5044 19.9877 65.3547 19.605 65.0852 19.3131C64.8157 19.0212 64.446 18.8416 64.05 18.81V18.74Z" fill="#FE2B25"/>
<path d="M77.4799 18.46C76.9628 18.1532 76.3832 17.9669 75.7842 17.9149C75.1851 17.863 74.5821 17.9467 74.0199 18.16C73.4 18.3879 72.84 18.7539 72.3826 19.2304C71.9252 19.7069 71.5823 20.2813 71.3799 20.91C71.051 22.1394 71.1594 23.4448 71.6865 24.6031C72.2137 25.7614 73.1269 26.7006 74.2699 27.26C75.3779 27.8861 76.6355 28.1984 77.9077 28.1632C79.1798 28.1279 80.4183 27.7465 81.4899 27.06C82.4488 26.3575 83.1748 25.3835 83.5741 24.264C83.9735 23.1444 84.0277 21.9307 83.7299 20.78C83.3484 19.5091 82.5475 18.4049 81.4578 17.6476C80.3682 16.8904 79.0541 16.5246 77.7299 16.61C77.3159 16.6177 76.921 16.7856 76.6283 17.0784C76.3355 17.3712 76.1676 17.766 76.1599 18.18C76.1625 18.5956 76.3288 18.9934 76.6226 19.2873C76.9165 19.5811 77.3143 19.7474 77.7299 19.75H78.2899H78.6099C78.2799 19.68 78.5399 19.75 78.6099 19.75C78.7723 19.784 78.9326 19.8274 79.0899 19.88L79.3299 19.96C78.9799 19.83 79.3299 19.96 79.4099 20.01L79.8899 20.31C79.7099 20.14 80.0799 20.43 79.8899 20.31L80.1199 20.52C80.2409 20.6361 80.3544 20.7597 80.4599 20.89C80.2499 20.65 80.3999 20.8 80.4599 20.89L80.6499 21.21L80.7599 21.43C80.6199 21.16 80.7599 21.32 80.7599 21.43C80.7599 21.54 80.8499 21.78 80.8999 21.96C80.8999 21.58 80.9499 22.14 80.8999 21.96C80.8999 22.04 80.8999 22.12 80.8999 22.2C80.8999 22.28 80.8499 22.92 80.8999 22.51C80.882 22.6761 80.8485 22.8402 80.7999 23C80.7999 23.07 80.7999 23.15 80.7299 23.23C80.6599 23.31 80.5899 23.62 80.6799 23.39C80.7699 23.16 80.6199 23.52 80.6099 23.54L80.4899 23.75L80.3599 23.96C80.1599 24.29 80.5699 23.74 80.3099 24.03C80.1999 24.15 80.0899 24.27 79.9699 24.38L79.7899 24.54C79.6086 24.6557 79.4179 24.7561 79.2199 24.84C79.2899 24.84 79.4799 24.76 79.2199 24.84L78.7999 24.96L78.5099 25.02C78.5799 25.02 78.8199 25.02 78.5099 25.02H77.9299H77.5599H77.4099H77.1899L76.8499 24.94L76.2699 24.74C76.5699 24.85 76.1299 24.68 76.0299 24.62C75.851 24.5264 75.6774 24.4228 75.5099 24.31C75.4399 24.31 75.2199 24.07 75.4499 24.31L75.2099 24.09L74.9799 23.85C74.8099 23.61 74.9299 23.85 74.9799 23.85C74.8799 23.7 74.7899 23.55 74.6999 23.39C74.6099 23.23 74.6999 23.33 74.6999 23.39C74.6573 23.2855 74.6205 23.1787 74.5899 23.07C74.5619 22.9847 74.5385 22.8979 74.5199 22.81V22.61C74.5199 22.78 74.5199 22.81 74.5199 22.69C74.5199 22.57 74.5199 22.51 74.5199 22.42C74.5199 22.33 74.5799 21.96 74.5199 22.17C74.4599 22.38 74.5199 22.1 74.5199 22.05C74.5199 22 74.6799 21.63 74.5899 21.8C74.4999 21.97 74.5899 21.73 74.6599 21.69C74.6907 21.6298 74.7276 21.5728 74.7699 21.52C74.6499 21.66 74.6299 21.69 74.7099 21.6C74.7681 21.5518 74.8217 21.4982 74.8699 21.44C74.9107 21.3973 74.9541 21.3573 74.9999 21.32C74.8599 21.43 74.8299 21.45 74.9199 21.39C74.9932 21.356 75.0634 21.3159 75.1299 21.27L75.2899 21.19C75.1099 21.26 75.0799 21.28 75.1899 21.24L75.4199 21.18H75.5899C75.3799 21.18 75.3399 21.18 75.4599 21.18H75.8699C75.6599 21.18 75.6199 21.18 75.7299 21.18C75.8034 21.2106 75.8808 21.2308 75.9599 21.24C76.0699 21.24 76.0299 21.24 75.8499 21.19L76.0499 21.31C76.2289 21.434 76.4315 21.5197 76.6452 21.5617C76.8588 21.6037 77.0788 21.6011 77.2914 21.554C77.504 21.5069 77.7046 21.4164 77.8805 21.2882C78.0565 21.1599 78.204 20.9967 78.3139 20.8087C78.4238 20.6207 78.4936 20.4121 78.519 20.1959C78.5445 19.9796 78.5249 19.7605 78.4616 19.5521C78.3983 19.3438 78.2927 19.1508 78.1513 18.9852C78.0099 18.8197 77.8358 18.6851 77.6399 18.59L77.4799 18.46Z" fill="#FFB900"/>
<path d="M99.9598 23.64C101.936 21.8585 103.623 19.7803 104.96 17.48C106.27 15.24 107.96 12.18 107.26 9.48001C106.56 6.78001 103.43 5.33 101.26 7.28C99.0898 9.23 99.8898 12.98 100.17 15.62C100.54 19.16 101 22.7 101.53 26.22C101.642 26.6204 101.908 26.9605 102.269 27.1664C102.63 27.3724 103.058 27.4275 103.46 27.32C103.857 27.199 104.192 26.9304 104.397 26.5694C104.601 26.2085 104.66 25.7827 104.56 25.38C104.1 22.3133 103.703 19.2333 103.37 16.14C103.29 15.39 102.25 9.4 103.61 9.5C104.61 9.57 104.21 11.43 104.06 11.94C103.681 13.131 103.175 14.2777 102.55 15.36C101.292 17.614 99.6662 19.6419 97.7398 21.36C96.2298 22.71 98.4698 24.93 99.9698 23.58L99.9598 23.64Z" fill="#00A050"/>
<path d="M106.9 23C108.157 23.2716 109.456 23.2886 110.72 23.05C111.866 22.789 112.87 22.1028 113.53 21.13C113.858 20.6005 114.048 19.9973 114.083 19.3755C114.118 18.7536 113.997 18.1329 113.73 17.57C113.444 17.0242 113.012 16.5686 112.483 16.2542C111.953 15.9399 111.346 15.7791 110.73 15.79C108.28 15.79 106.53 18.13 105.97 20.31C105.652 21.4315 105.683 22.6232 106.058 23.7269C106.433 24.8306 107.135 25.7942 108.07 26.49C108.572 26.8461 109.14 27.0964 109.742 27.2256C110.343 27.3547 110.964 27.36 111.568 27.2412C112.171 27.1223 112.744 26.8818 113.252 26.5344C113.76 26.1869 114.191 25.7397 114.52 25.22C114.644 25.041 114.73 24.8384 114.772 24.6248C114.814 24.4111 114.811 24.1911 114.764 23.9785C114.717 23.7659 114.626 23.5654 114.498 23.3894C114.37 23.2135 114.207 23.0659 114.019 22.956C113.831 22.8461 113.622 22.7763 113.406 22.7509C113.19 22.7255 112.97 22.745 112.762 22.8083C112.554 22.8716 112.361 22.9772 112.195 23.1186C112.03 23.2601 111.895 23.4341 111.8 23.63C111.8 23.63 111.71 23.81 111.68 23.81C111.65 23.81 111.88 23.6 111.68 23.75L111.53 23.9C111.31 24.13 111.59 23.9 111.59 23.9C111.59 23.9 111.29 24.09 111.22 24.13C111.15 24.17 111.22 24.13 111.29 24.13C111.36 24.13 111.07 24.2 111.02 24.21L110.81 24.26C110.6 24.32 111.11 24.26 110.9 24.26H110.45C110.28 24.26 110.58 24.26 110.59 24.26C110.6 24.26 110.43 24.26 110.38 24.21L110.16 24.15C109.82 24.06 110.42 24.31 110.11 24.15C109.967 24.0865 109.833 24.0059 109.71 23.91C109.71 23.91 110 24.17 109.71 23.91L109.54 23.75C109.54 23.75 109.21 23.4 109.35 23.56C109.49 23.72 109.35 23.56 109.3 23.48C109.241 23.4005 109.188 23.317 109.14 23.23L109.03 23.02C109.03 23.02 108.89 22.62 108.88 22.58C108.87 22.54 108.82 22.02 108.83 22.35C108.83 22.15 108.83 21.94 108.83 21.74C108.83 21.54 108.83 21.55 108.83 21.46C108.77 21.7 108.83 21.37 108.83 21.46C108.89 21.22 108.91 21.1 108.96 20.92C109.01 20.74 109.07 20.61 109.12 20.46C109.12 20.46 109.24 20.21 109.31 20.09L109.59 19.65C109.59 19.58 109.77 19.43 109.59 19.65C109.638 19.5823 109.691 19.5187 109.75 19.46C109.85 19.35 109.96 19.26 110.06 19.15C109.85 19.28 110.16 19.04 110.06 19.15L110.32 18.98L110.54 18.91C110.614 18.8795 110.691 18.8593 110.77 18.85C110.48 18.85 110.6 18.85 110.71 18.85C110.82 18.85 110.91 18.85 110.95 18.85C110.99 18.85 110.57 18.77 110.88 18.85C111.04 18.9 111.01 18.85 110.83 18.85C110.83 18.85 111.15 19.05 110.96 18.91C110.77 18.77 111.16 19.03 110.96 18.91C110.76 18.79 110.96 18.91 110.96 18.98C110.96 19.05 110.89 18.72 110.96 18.92L111.02 19.13C111.08 19.34 111.02 18.85 111.02 19.06C111.015 19.1166 111.015 19.1734 111.02 19.23C111.02 19.23 111.09 18.91 111.02 19.15C110.996 19.2625 110.962 19.3728 110.92 19.48C110.92 19.48 111.12 19.16 110.92 19.42C110.72 19.68 111.06 19.3 110.92 19.42L110.76 19.6C110.54 19.81 110.76 19.68 110.76 19.6C110.76 19.52 110.34 19.84 110.29 19.87C110.24 19.9 110.55 19.79 110.34 19.87C110.242 19.894 110.145 19.9241 110.05 19.96C109.969 19.9753 109.889 19.9953 109.81 20.02C109.45 20.11 110.15 20.02 109.69 20.02H108.99L108.29 19.97L107.83 19.9C107.427 19.8025 107.003 19.862 106.642 20.0663C106.282 20.2706 106.013 20.6045 105.89 21C105.785 21.4029 105.841 21.831 106.046 22.1932C106.252 22.5555 106.59 22.8234 106.99 22.94L106.9 23Z" fill="#FE2B25"/>
<path d="M91.7399 17.7701C90.6791 17.2447 89.4576 17.1447 88.3255 17.4905C87.1933 17.8363 86.2362 18.6017 85.6499 19.63C84.2999 21.97 85.5799 25.0201 87.8799 26.2101C89.0735 26.7684 90.4238 26.8951 91.7005 26.5687C92.9771 26.2422 94.1008 25.4828 94.8799 24.42C95.6995 23.2428 96.1488 21.8477 96.1702 20.4134C96.1916 18.9791 95.784 17.5712 94.9999 16.3701C94.8222 16.0776 94.5544 15.8508 94.2367 15.7236C93.919 15.5965 93.5687 15.5759 93.2383 15.665C92.9079 15.754 92.6154 15.948 92.4047 16.2176C92.194 16.4872 92.0765 16.8179 92.0699 17.16C92.1899 21.3934 92.1332 25.6267 91.8999 29.8601C91.8499 30.8601 91.7999 31.86 91.7099 32.79C91.6499 33.4 91.5799 34.26 91.0199 34.63C90.8399 34.75 90.8399 34.76 90.7299 34.56C90.6489 34.415 90.5979 34.2552 90.5799 34.0901C90.6637 33.2196 91.0127 32.3957 91.5799 31.73C92.6499 30.01 89.9299 28.4201 88.8599 30.1401C87.5899 32.2001 86.5899 35.0201 88.6799 36.9601C90.7699 38.9001 93.7399 37.23 94.5299 34.82C94.8638 33.4385 95.0283 32.0214 95.0199 30.6C95.1099 29.11 95.1799 27.6 95.2199 26.13C95.3199 23.13 95.3099 20.13 95.2199 17.13L92.2899 17.9301C92.6847 18.51 92.9313 19.1779 93.008 19.8752C93.0847 20.5726 92.9892 21.2782 92.7299 21.9301C92.4872 22.489 92.0688 22.9534 91.5382 23.253C91.0076 23.5526 90.3938 23.6709 89.7899 23.5901C88.8799 23.3701 87.9199 22.3201 88.2599 21.3401C88.3933 20.9813 88.6605 20.6881 89.0055 20.5221C89.3505 20.3562 89.7463 20.3303 90.1099 20.45C91.9099 21.37 93.4999 18.6601 91.6999 17.7401L91.7399 17.7701Z" fill="#1F87FC"/>
<path d="M123.97 15.49C125.505 16.8304 126.967 18.2525 128.35 19.75C129.03 20.49 129.69 21.25 130.35 22.02L131.27 23.17L131.44 23.39L131.62 23.6201L132.11 24.28C132.321 24.6394 132.666 24.9003 133.069 25.0053C133.472 25.1103 133.901 25.0509 134.26 24.8401C134.619 24.6292 134.88 24.2842 134.985 23.881C135.09 23.4778 135.031 23.0494 134.82 22.69C132.3 19.2441 129.409 16.0852 126.2 13.27C125.904 12.9838 125.507 12.8253 125.095 12.8288C124.684 12.8323 124.29 12.9974 123.998 13.2886C123.707 13.5798 123.542 13.9737 123.539 14.3855C123.535 14.7973 123.694 15.194 123.98 15.49H123.97Z" fill="#231F20"/>
<path d="M125.82 24.7C129.531 21.3171 133.694 18.4664 138.19 16.23C138.517 16.0033 138.747 15.6615 138.833 15.2729C138.919 14.8843 138.855 14.4776 138.654 14.134C138.453 13.7904 138.13 13.5352 137.749 13.4195C137.369 13.3038 136.958 13.3362 136.6 13.51C131.871 15.8939 127.496 18.9228 123.6 22.51C123.454 22.6558 123.337 22.8289 123.258 23.0196C123.178 23.2103 123.137 23.4149 123.137 23.6215C123.136 23.8281 123.176 24.0327 123.255 24.2238C123.334 24.4149 123.449 24.5886 123.595 24.735C123.741 24.8814 123.914 24.9977 124.105 25.0772C124.295 25.1567 124.5 25.1978 124.707 25.1983C124.913 25.1988 125.118 25.1585 125.309 25.0799C125.5 25.0013 125.674 24.8858 125.82 24.74V24.7Z" fill="#231F20"/>
<path d="M16.2698 22.95H25.5998C25.9959 22.9185 26.3655 22.7388 26.635 22.447C26.9045 22.1551 27.0542 21.7723 27.0542 21.375C27.0542 20.9777 26.9045 20.595 26.635 20.3031C26.3655 20.0112 25.9959 19.8316 25.5998 19.8H16.2698C15.8738 19.8316 15.5042 20.0112 15.2346 20.3031C14.9651 20.595 14.8154 20.9777 14.8154 21.375C14.8154 21.7723 14.9651 22.1551 15.2346 22.447C15.5042 22.7388 15.8738 22.9185 16.2698 22.95Z" fill="#666C73"/>
<path d="M1.57001 23.1L10.05 22.82C10.2674 22.8374 10.486 22.8095 10.6921 22.7382C10.8982 22.667 11.0873 22.5538 11.2475 22.4058C11.4077 22.2579 11.5356 22.0784 11.623 21.8786C11.7105 21.6788 11.7556 21.4631 11.7556 21.2451C11.7556 21.027 11.7105 20.8112 11.623 20.6115C11.5356 20.4117 11.4077 20.2322 11.2475 20.0843C11.0873 19.9363 10.8982 19.8231 10.6921 19.7519C10.486 19.6806 10.2674 19.6527 10.05 19.67L1.57001 19.96C1.15362 19.96 0.754286 20.1255 0.459854 20.4199C0.165422 20.7143 0 21.1136 0 21.53C0 21.9464 0.165422 22.3458 0.459854 22.6402C0.754286 22.9346 1.15362 23.1 1.57001 23.1Z" fill="#666C73"/>
<path d="M233.15 22.95H242.48C242.876 22.9185 243.245 22.7388 243.515 22.447C243.784 22.1551 243.934 21.7723 243.934 21.375C243.934 20.9777 243.784 20.595 243.515 20.3031C243.245 20.0112 242.876 19.8316 242.48 19.8H233.15C232.754 19.8316 232.384 20.0112 232.115 20.3031C231.845 20.595 231.695 20.9777 231.695 21.375C231.695 21.7723 231.845 22.1551 232.115 22.447C232.384 22.7388 232.754 22.9185 233.15 22.95Z" fill="#666C73"/>
<path d="M218.45 23.1L226.93 22.82C227.147 22.8374 227.366 22.8095 227.572 22.7382C227.778 22.667 227.967 22.5538 228.127 22.4058C228.288 22.2579 228.415 22.0784 228.503 21.8786C228.59 21.6788 228.635 21.4631 228.635 21.2451C228.635 21.027 228.59 20.8112 228.503 20.6115C228.415 20.4117 228.288 20.2322 228.127 20.0843C227.967 19.9363 227.778 19.8231 227.572 19.7519C227.366 19.6806 227.147 19.6527 226.93 19.67L218.45 19.96C218.034 19.96 217.634 20.1255 217.34 20.4199C217.045 20.7143 216.88 21.1136 216.88 21.53C216.88 21.9464 217.045 22.3458 217.34 22.6402C217.634 22.9346 218.034 23.1 218.45 23.1Z" fill="#666C73"/>
</svg>
